<svg width="20" height="21" viewBox="0 0 20 21" fill="none" xmlns="http://www.w3.org/2000/svg">
<path d="M10 2.0063C14.595 2.0063 18.3333 5.74463 18.3333 10.3396C18.3333 14.9346 14.595 18.673 10 18.673C5.405 18.673 1.66667 14.9346 1.66667 10.3396C1.66667 5.74463 5.405 2.0063 10 2.0063ZM10 0.33963C4.4775 0.33963 0 4.81713 0 10.3396C0 15.8621 4.4775 20.3396 10 20.3396C15.5225 20.3396 20 15.8621 20 10.3396C20 4.81713 15.5225 0.33963 10 0.33963ZM15 11.173H10.8333V15.3396H9.16667V11.173H5V9.5063H9.16667V5.33963H10.8333V9.5063H15V11.173Z" fill="#999999"/>
</svg>
