<svg xmlns="http://www.w3.org/2000/svg" width="2.699cm" height="2.699cm"><path stroke="#E9DD1B" stroke-width="5" fill="none" d="M37 2.5c19.53 0 34.499 15.446 34.499 34.5 0 19.53-14.969 34.499-34.499 34.499C17.946 71.499 2.5 56.53 2.5 37 2.5 17.946 17.946 2.5 37 2.5z"/><path fill-rule="evenodd" fill="#E9DD1B" d="M26.499 23.5h22a3 3 0 013.001 2.999v2a3.002 3.002 0 01-3.001 3.001h-22a3 3 0 01-2.999-3.001v-2a3 3 0 012.999-2.999z"/><path fill-rule="evenodd" fill="#E9DD1B" d="M35.5 31.5h3.999a3 3 0 013 3v25.999a3 3 0 01-3 3.001H35.5a3.002 3.002 0 01-3.001-3.001V34.5a3 3 0 013.001-3z"/><path fill-rule="evenodd" fill="#E9DD1B" d="M33.499 32.499l12.678-8.017 4.276 6.761-12.678 8.018-4.276-6.762z"/><path fill-rule="evenodd" fill="#E9DD1B" d="M23.5 30.349l12.7 8.137 4.284-6.862-12.701-8.136-4.283 6.861z"/></svg>