<svg xmlns="http://www.w3.org/2000/svg" xmlns:xlink="http://www.w3.org/1999/xlink" width="1.164cm" height="1.94cm">
    <path fill-rule="evenodd" fill="rgb(233, 221, 27)" d="M16.500,0.0 C18.709,0.0 20.500,1.790 20.500,3.999 L20.500,51.0 C20.500,53.209 18.709,55.0 16.500,55.0 C14.290,55.0 12.499,53.209 12.499,51.0 L12.499,3.999 C12.499,1.790 14.290,0.0 16.500,0.0 Z" />
    <path fill-rule="evenodd" fill="rgb(233, 221, 27)" d="M30.756,30.917 C32.791,32.343 33.284,35.149 31.858,37.184 L20.952,52.743 C19.526,54.778 16.720,55.271 14.684,53.845 C12.649,52.418 12.156,49.612 13.582,47.577 L24.488,32.19 C25.915,29.983 28.721,29.490 30.756,30.917 Z" />
    <path fill-rule="evenodd" fill="rgb(233, 221, 27)" d="M18.756,53.864 C20.791,52.437 21.284,49.631 19.858,47.596 L8.952,32.37 C7.526,30.2 4.720,29.509 2.684,30.935 C0.649,32.362 0.156,35.168 1.582,37.203 L12.488,52.762 C13.915,54.797 16.721,55.290 18.756,53.864 Z" />
</svg>