<svg width="1000" height="705" viewBox="0 0 1000 705" fill="none" xmlns="http://www.w3.org/2000/svg">
<rect width="1000" height="705" fill="#E5E5E5"/>
<path d="M261 297.9L266.1 303.2L259.2 308.4L257.4 312.4L256.4 314.9L254 318.9L251.8 320.9L249.8 322L247.3 322.4L245.3 322.2L239.4 320.8L237.5 321L236.1 321.9L233.6 324.1L232.7 325.6L232.2 327.3L232.5 332.3L232.3 334.5L231.8 336.8L230.3 339.9L229.7 341.8L229.4 343.3L230.5 346.9L230.8 348.4L230.7 350.3L230 352.8L228.8 355.4L223.9 361.8L222 362.7L221.1 363.8L220.4 366L219.3 366.9L217.5 367L213.6 368L212.7 368.4L210.6 370.4H209.7L207.1 368.9L205.6 368.6L203.5 368.9H201.9L200.3 368.5L197.6 365.9L195.8 365.1L195 364.5L194.3 362.7L193.7 361.9L192.6 361.3L188.5 361L186.6 360.4L185.3 359.2L184.4 358.1L183.3 357.3L181.7 356.8H179.2L177.9 357.1L177.1 357.5L176.4 359.2L175.7 362.6L174.7 363.9L171.5 364.1L170.5 363.7L168.8 362.3H168.2L167.7 363.2L167.5 365.5L167.6 367.6L167.5 368.4L166.4 368.3L165.5 367.2L164.2 365.1L162.1 363.4L158.7 361.8H157.2L156.3 362.3L155.5 363.3L154.1 365.8L153 368.2L152.4 369L151.6 369.1L149.6 366.4L147.8 364.9L147.7 364.3L148.4 361.9L148 360.8L147.1 359.6L144.9 357.8L142.6 355.3L141.5 354.7L140.3 354.5L137.4 354.9L136.4 354.5L135.6 353.4L135.4 352.2L135.3 350L134.4 349.1L132.8 348.6L129.3 348.2L127.5 348.4L126.4 349L126.2 349.8L126 351.9L125.6 352.9L125 353.6L122.2 355.9L119.8 358.3L118.4 358.4L116.9 356.6L115.8 356H114L112.5 356.3L111.3 356.8L108.9 358.9H107.4L105.6 357.9L102.8 355.1L102 353.3L101.6 351.3L100.8 351L99.2 351.2L98.2 351.8L97.2 352.7L96.6 354.4L96.5 356.1L95.9 357.7L95.2 358.1L94.1 358.2L92.5 357.9L91.1 357.2L89.8 355.3L89.5 354.3L89.8 352.5L89.3 351.8L88.2 351.1L86 350.5L84.7 350.6L82.7 351.1H81.8L75.2 349.9L73.7 349.4L72.4 348.5L71 346.4L69.9 343.4L66.2 339.6L51.2 329.1L49.7 328.5L49.8 326.6L50.3 325.5L51.1 325.2L53.1 325.7L54 324.9V323.6L53 320.2L52.9 318.8L53.4 318L57.5 314.5L59.7 313.4L61.9 312.7L64 312.8L65 313.3L66.9 315L67.7 315.4L68.8 315.3L71 314.2L72.9 314.6L76.9 316.3L79 316.2L79.9 315.8H80.8L81.6 316.2L82.4 317.1L84.4 318.9L86.3 318.2L91.4 312L92.1 311.7H95.1L96.2 310.9L97.4 308.6L98.3 305.6L98.7 298.8L99.8 295.5L101.6 293.4L103.6 292.7L108.1 292.5L110.5 290.6L109.9 287.2L106.8 281.3L107 278.2L108.5 275.8L110.3 273.4L111.7 270.6L112.1 264.7L112.7 261.8L114.3 259.9L116.5 259.3L120.4 259.6L122.7 258.4L124.9 255.5L125.6 253.5L127.9 254.3L132.8 255.5L168.1 253.5L170.8 254L172.3 255.8L173.8 256.6L175.1 256.7H177.1L178.5 257.1L180.2 258L181.6 259.4L184.2 260.4L193.5 260.8L196.3 261.4L198.3 262.3L199.4 263.4L201.8 265.1L202.6 266.1L203.4 267.9L205.7 274.1L206.9 276.6L208.5 278.6L210.6 280L213.3 280.9L215 281.6L220 286L227.9 289L228.8 290L229.6 292.9L230.8 294.6L232.4 295.5L234 295.9L243.6 296.1L251.6 297.8L256.6 298.2L261 297.9Z" fill="#BF007E" stroke="white" stroke-width="2" stroke-linecap="round" stroke-linejoin="round"/>
<path d="M247.7 150.9L246.6 155.2L246 156.5L244.8 158.4L244.3 159.7L244 162.3L243.7 163.5L243.1 164.7L240.4 168.7L238.6 170.6L238.7 172.7L240 176L244.5 183.1L247.6 189.2L248 190.5L248.8 191.7L249.9 193L256.5 196.8L260.6 200.9L262.4 204L261.6 206.1L259.3 210.6L258.9 212.1L259.1 213.1L260 213.8L265.3 215.9L266.7 217L267.2 218.6L266.8 221.5L265.7 225L264.4 227.3L263.5 228L259.6 229.8L258.4 230.6L257.5 231.7L256.9 232.8L256.7 234.1L257 235.5L258.3 237.3L262.5 241.1L263.9 243.3L265.3 246.5L267.1 253.7L268.1 255.6L270.2 257.3L271.2 258.2L271.7 259.5L271.2 263.3V269.1L269.6 268.1L267.2 267.5L264.5 267.8L263.3 268.5L262 270.1L260.6 272.9L259.5 276.8L258.9 280.4L259.1 289.8L261 297.9L256.6 298.2L251.6 297.8L243.6 296.1L234 295.9L232.4 295.5L230.8 294.6L229.6 292.9L228.8 290L227.9 289L220 286L215 281.6L213.3 280.9L210.6 280L208.5 278.6L206.9 276.6L205.7 274.1L203.4 267.9L202.6 266.1L201.8 265.1L199.4 263.4L198.3 262.3L196.3 261.4L193.5 260.8L184.2 260.4L181.6 259.4L180.2 258L178.5 257.1L177.1 256.7H175.1L173.8 256.6L172.3 255.8L170.8 254L168.1 253.5L132.8 255.5L127.9 254.3L125.6 253.5L126.9 251.1L129.8 250.6L131.9 249.4L133.9 246.5L134.2 243.5L131.4 241.5L130.6 240.4L130.9 238.6L131.7 237.1L134 230.8L135.3 228.3L137.5 226.3L141.4 225.2L142.5 224.3L143.4 222.3L143.3 220.6L143 219L142.9 217.1L143 215.3L143.6 214.7L148.5 210.7L149.3 209.6L151.4 201.9L151.8 201.8L150.7 199.8L150 199.2L148.1 198.6L147.7 197.2L151.8 192.3L154.2 190L159.4 186.6L161.5 184.5L162.2 183.1L162.7 180.3L163.2 178.9L164.2 177.5L166.5 175.2L167.4 174L168.1 172.1L167.8 169.2V167.4L168.3 165.7L169.5 163.4L170 162L171.3 156.4L171.9 154.6L176 148.6L177.9 146.4L179.8 145.3L184.5 143.9L186.6 139.6L186.5 134.4L185.5 129L185.3 124.1L187.3 120.3L190.4 116.8L196.9 111.9L202.1 110.6L203.5 109.5L204.1 108.2L206.8 112.3L208.1 115.4L209 116.9L210.2 118.1L214.5 121.4L216.1 123.6L217.8 126.7L220.8 131.4L221.7 133.2L222.9 136.5L223.5 137.7L224.5 138.4L226.3 138.8L228.2 138.3H230.1L231.7 138.6L232.7 138.4L235.2 137L236.3 136.7L237.4 137L238.9 138L240.6 139.5L243.7 141.3L245 142.4L246 144.2L246.7 148.1L247.7 150.9Z" fill="#BF007E" stroke="white" stroke-width="2" stroke-linecap="round" stroke-linejoin="round"/>
<path d="M49.7 328.5L51.2 329.1L66.2 339.6L69.9 343.4L71 346.4L72.4 348.5L73.7 349.4L75.2 349.9L81.8 351.1H82.7L84.7 350.6L86 350.5L88.2 351.1L89.3 351.8L89.8 352.5L89.5 354.3L89.8 355.3L91.1 357.2L92.5 357.9L94.1 358.2L95.2 358.1L95.9 357.7L96.5 356.1L96.6 354.4L97.2 352.7L98.2 351.8L99.2 351.2L100.8 351L101.6 351.3L102 353.3L102.8 355.1L105.6 357.9L107.4 358.9H108.9L111.3 356.8L112.5 356.3L114 356H115.8L116.9 356.6L118.4 358.4L119.8 358.3L122.2 355.9L125 353.6L125.6 352.9L126 351.9L126.2 349.8L126.4 349L127.5 348.4L129.3 348.2L132.8 348.6L134.4 349.1L135.3 350L135.4 352.2L135.6 353.4L136.4 354.5L137.4 354.9L140.3 354.5L141.5 354.7L142.6 355.3L144.9 357.8L147.1 359.6L148 360.8L148.4 361.9L147.7 364.3L147.8 364.9L149.6 366.4L151.6 369.1L152.4 369L153 368.2L154.1 365.8L155.5 363.3L156.3 362.3L157.2 361.8H158.7L162.1 363.4L164.2 365.1L165.5 367.2L166.4 368.3L167.5 368.4L167.6 367.6L167.5 365.5L167.7 363.2L168.2 362.3H168.8L170.5 363.7L171.5 364.1L174.7 363.9L175.7 362.6L176.4 359.2L177.1 357.5L177.9 357.1L179.2 356.8H181.7L183.3 357.3L184.4 358.1L185.3 359.2L186.6 360.4L188.5 361L192.6 361.3L193.7 361.9L194.3 362.7L195 364.5L195.8 365.1L197.6 365.9L200.3 368.5L201.9 368.9H203.5L205.6 368.6L207.1 368.9L209.7 370.4H210.6L212.7 368.4L213.6 368L217.5 367L219.3 366.9L220.4 366L221.1 363.8L222 362.7L223.9 361.8L227.5 365.6L228.5 368.1L228.8 370.9L230 375L231 376.5L233.9 378.8L234.7 379.8L235.8 381.7L237.7 386.6L238.6 387.9L239.5 388.4L240.8 387.7L242.4 387.5L243.5 388.2L243.8 389.2L243.5 390.3L242.7 391.5L238.4 395.4L237.2 396.7L236.4 398.3L235.9 399.7L235.1 403.6L234.3 404.8L233.4 405.2L221.8 407.4L217.9 410.2L215 416.3L214.3 416.8L211.7 416.5L210.2 416.7L208.6 416.1L207.3 414.6L206.5 414L205.1 413.7L204 414.2L201.3 416.6L198.7 418.3L196.5 419.1L194 419.5H190.3L189.7 420L189.5 420.8L190 423.6L190.2 424.3L191.2 424.8L192.6 424.9L192.7 425.5L192 426.4L189.4 428.3L187.3 429.1L185.2 429.4L183.8 429.2L182.7 428.6L181.8 427.9L180.5 425.7L179.5 423.2L178.7 422L177.7 421.2L176.1 420.7L175.1 420.9L171.3 423.3L166.5 425.5L163.9 426.2H162L161.2 425.5L159.9 423.8L157.6 422.5L155.2 421.8L153.2 420.6L151.5 420.1H148.2L145.2 421.2L143.4 422.4L142.4 424L141.9 425.6L141.7 428.8L140.9 430.3L139.5 431.9L135 434.4L133.1 436L132.1 437.4L132.3 440.2V441.5L131.9 442.9L130.8 445L130.5 446.2L130.9 448.8L131.6 449.9L135.2 453.7L137.3 455.4L138.1 456.4L139 458.5V460.5L139.4 462.8L138.9 464.6L136.8 467.2L136.5 468.4V470L137.1 474.1V475.6L136 478.2L134.1 480.8L132 481.9L129.4 478.7L126.7 476.5L123.7 474.9L112.5 471.4L108 471.2L106.2 470.4L102.7 468L100.9 465.9L97.3 460.6L95.6 459.3L94.5 459.6L92.8 461.5L91.8 461.9L90.6 461.6L88.7 459.8L87.7 458.9L79 454.9L77.3 453.6L73.3 448.2L66.5 442L63 436.9L61.5 435.4L59.7 434.5L57.9 433.9L56.3 432.9L55.7 430.8L58 428.9L59.5 427.3L59.8 425.2L58.5 421.7L55.4 416.3L55 413.9L55.8 410.1L57 407.3L57.4 406L57.7 403.9L57.6 396L58.3 393V391.7L57.4 390.2L56.1 389.5L55 390L54 391.3L53.4 393L52.1 394.1L50.7 394.6L49.3 394.3L48 393.1L47 391L44.6 387.9L43.5 386.2L43.2 384.7L42.9 381.6L42.6 380.4L41.8 379.4L40 378.2L39.3 377.5L35.8 371.2L34.1 369.6L32.2 368.8L28.1 368.3L26.2 367.4L20.7 362.2L18.7 360.9L14.5 359L12.7 357.7L11.1 355.2L8.9 348.3L7.6 346L1 337.7L5.3 332.3L22.2 331.8L24.8 327.6L29.1 328.6L33.3 330.4L36.4 333.2L37.4 333.9L38.7 334.4H39.5L45.4 333.2L47.5 332.1L49.1 330.3L49.7 328.5Z" fill="#BF007E" stroke="white" stroke-width="2" stroke-linecap="round" stroke-linejoin="round"/>
<path d="M373.8 546.1L372.8 545L371.4 544.4L370.1 544.5L369.6 545.1L369.3 547.3L369.8 551.1L369.7 552.8L369.3 555L369.7 557.7V559.9L369.2 560.7L368.3 561.3L363.3 561.6L353.3 564.8L343.6 571.6L341.9 568L340.8 566.5L334.9 560.6L328.1 555.9L325.6 554.8L307.3 549.5L305.3 548.5L302.9 546.8L294.8 539.1L285.4 528.4L284.7 526.7L284.4 525.1L284 521.9L283 517.9L282.8 515.2L283.3 512.7L283.8 511.4V510.1L283.3 508.8L282 507.5L279.3 505.8L277.6 504.2L276.4 502.8L275.6 501.5L274.6 500.5L273.3 499.9L271.3 499.6L266.3 500.2L264.7 499.8L262.8 498.8L258.2 492.9L254.1 491L254.7 487.8L254.1 486.6L253.4 485.7L252.4 485.4L248.4 485.2L247.1 484.7L246.2 484L245.8 482.8L246 481.3L246.9 479.2L249.9 475.2L257.1 468.8L279.5 460.6L280.6 460.4L282 461.1L282.7 462.1L283.7 462.9L284.9 463.3L289.5 463.6L290.4 464L292.1 465.6L293.2 466L294.8 465.9L301.6 463L304.2 462.8L305.8 463L309 464.5H310.3L312 464.1L317.7 460.6L319.4 460L324.1 459L327.7 457.2L329.7 456.6L332.4 456.7L334 457.1L335.5 457.9L337.4 459.3L338.3 459.4L339.4 459L341.2 457.5L347.2 454.2L353.8 452L357 453H362.1L363.3 453.4L365.3 454.5L366.9 454.8L368.8 454.9L375.3 454.2L377.1 454.6L378.9 456L379.7 457.2L380.2 458.9L378.8 464.7L378.6 467.6L379.4 471.7L380.5 474.4L381 476.5L380.8 478.3L379.1 483.3L378.7 485.5L379.1 490.6L379 492.6L376.1 504.3L374.9 507.6L374.4 509.6L374.2 512.5L375.7 529.6L375.3 537.5L373.8 546.1Z" fill="#59AAF4" stroke="white" stroke-width="2" stroke-linecap="round" stroke-linejoin="round"/>
<path d="M343.6 571.6L342.1 573.3L336.3 573L333.7 573.6L332 574.3L330.7 575.2L324.1 575.6L322.7 576.3L322.3 576.8L324.7 577.7V578.3L322.4 580.3L321 582.4L319.6 584L318 584.8L315.9 585.5L315.1 586.3L314.7 587.1L314.5 588.3L313.7 591.5V592.5L314.1 593.5L314.9 594.1L316.1 594.4L319.4 594.8L320.8 595.9L321.1 596.7L320.9 597.7L320.3 597.9L318.2 597.5L316.8 597.7L311.2 600.9L310.3 602.2L309.7 604.1L309.2 606.7L308.7 610.4L308.4 611.6L306.2 616.4L305.9 618.1L306.1 620L306.8 622.4L307.1 624.2V625.9L306.7 627.7L305.9 628.2L304.8 628L301.5 628.9L292.9 638L290.7 637.1L285.9 636.4L282.1 634.7L259.3 619.1L258.8 617L259.2 609.9L258.4 607.9L256.4 606.9L252 606.3L247.9 604.5L244.4 601.4L241.6 597.6L239.7 593.3L239.6 592.2L239.9 589.8L239.8 588.7L239.3 587.7L237.1 585.6L236.8 584.4V582.5L237.1 580.5L237.5 579.1L238.3 578.5L239.2 578.2L243 578L244.3 577.4L245.2 575.9L245.5 573.4L246.1 570.9L247.7 569.4L249.8 568.8H252L254.2 569.7L258 572.3L260.3 572.9L262.4 572.5L264.7 571.4L266.6 569.5L267.2 566.8L261.9 560.9L260.3 559.7L252 558.7L248.4 557L244.8 554L237.5 545.9L235.9 545L234 544.5L231.4 544.4L230.3 545.3L226.6 549.4L224.6 550.6L220.2 551.6L218.6 552.8L218 555.1L206 576.9L204.6 578.3L202.1 579L199.8 578.7L197.4 577.7L195.6 575.9L194.5 571.6L193.5 570.6L192.3 569.9L191.2 568.8L190.6 567.7L190.1 564.8L195.8 563.8L197.2 564L199.8 564.7L202.3 564.6L203.4 564L204.3 563L204.8 561.1L204.7 559.3L204.2 557.2L203.4 554.7L203.3 552.8L203.5 550.9L203.9 549.1L204.6 546.9L205.7 544.4L208.1 540.3L209 537.9L209.6 535.9V534.7L209.9 533.7L210.5 532.9L212.1 532.6L213.2 532.8L214.2 533.3L217.8 537L219.3 537.9L220.4 538L223.8 537.9L224.7 538.1L226.2 539.2L227.4 541.5L228.2 541.9L229.3 542L230.9 541.7L232 540.8L233.1 539.1L234.1 535.8L235.7 528.7L238.3 522L242.8 514.6L243.9 511.1L244.5 508.7L245 505.2L245.4 503.4L246.2 501.2L249.6 495.8L254.1 491L258.2 492.9L262.8 498.8L264.7 499.8L266.3 500.2L271.3 499.6L273.3 499.9L274.6 500.5L275.6 501.5L276.4 502.8L277.6 504.2L279.3 505.8L282 507.5L283.3 508.8L283.8 510.1V511.4L283.3 512.7L282.8 515.2L283 517.9L284 521.9L284.4 525.1L284.7 526.7L285.4 528.4L294.8 539.1L302.9 546.8L305.3 548.5L307.3 549.5L325.6 554.8L328.1 555.9L334.9 560.6L340.8 566.5L341.9 568L343.6 571.6Z" fill="#59AAF4" stroke="white" stroke-width="2" stroke-linecap="round" stroke-linejoin="round"/>
<path d="M257.1 468.8L249.9 475.2L246.9 479.2L246 481.3L245.8 482.8L246.2 484L247.1 484.7L248.4 485.2L252.4 485.4L253.4 485.7L254.1 486.6L254.7 487.8L254.1 491L249.6 495.8L246.2 501.2L245.4 503.4L245 505.2L244.5 508.7L243.9 511.1L242.8 514.6L238.3 522L235.7 528.7L234.1 535.8L233.1 539.1L232 540.8L230.9 541.7L229.3 542L228.2 541.9L227.4 541.5L226.2 539.2L224.7 538.1L223.8 537.9L220.4 538L219.3 537.9L217.8 537L214.2 533.3L213.2 532.8L212.1 532.6L210.5 532.9L209.9 533.7L209.6 534.7V535.9L209 537.9L208.1 540.3L205.7 544.4L204.6 546.9L203.9 549.1L203.5 550.9L203.3 552.8L203.4 554.7L204.2 557.2L204.7 559.3L204.8 561.1L204.3 563L203.4 564L202.3 564.6L199.8 564.7L197.2 564L195.8 563.8L190.1 564.8L189.8 563.8L186.9 556.6L185.8 555.6L182.5 555L172.9 550L171.2 549.7L169.4 550.2L165.5 551.8L160.8 552.8H155.3L150.2 551.3L146.3 547.4L145.3 544.7L144.7 542L143.8 539.6L141.9 537.9L139.8 537.3L133.4 537.8L124.4 536.8L122.7 536L120.9 532.1L119 530.6L117.1 529.8L117.5 527.8L118.4 526.2L119.8 524.9L122.6 523.9L128.8 524.2L131.7 523.8L136 522.5L137.5 521.3L137.8 518.4L136.9 516L135.4 514.6L131.7 513.2L129.1 511.9L124 511L121.6 509.3L121.8 507.5L121.4 506.8L119.6 506.7L118.2 506.3L118 505L118.5 503.5L119.3 502.3L120.3 501.8L123 501.6L124.1 501.2L125.4 500.1L126.2 496.2L127.7 493.9L127.8 492L127.6 490.9L128.4 489.7L129.3 488.7L130.4 488.2L131.7 488.1L133.1 486.9L133.4 485.1L133 483.1L132 481.9L134.1 480.8L136 478.2L137.1 475.6V474.1L136.5 470V468.4L136.8 467.2L138.9 464.6L139.4 462.8L139 460.5V458.5L138.1 456.4L137.3 455.4L135.2 453.7L131.6 449.9L130.9 448.8L130.5 446.2L130.8 445L131.9 442.9L132.3 441.5V440.2L132.1 437.4L133.1 436L135 434.4L139.5 431.9L140.9 430.3L141.7 428.8L141.9 425.6L142.4 424L143.4 422.4L145.2 421.2L148.2 420.1H151.5L153.2 420.6L155.2 421.8L157.6 422.5L159.9 423.8L161.2 425.5L162 426.2H163.9L166.5 425.5L171.3 423.3L175.1 420.9L176.1 420.7L177.7 421.2L178.7 422L179.5 423.2L180.5 425.7L181.8 427.9L182.7 428.6L183.8 429.2L185.2 429.4L187.3 429.1L189.4 428.3L192 426.4L192.7 425.5L192.6 424.9L191.2 424.8L190.2 424.3L190 423.6L189.5 420.8L189.7 420L190.3 419.5H194L196.5 419.1L198.7 418.3L201.3 416.6L204 414.2L205.1 413.7L206.5 414L207.3 414.6L208.6 416.1L210.2 416.7L211.7 416.5L214.3 416.8L215 416.3L217.9 410.2L221.8 407.4L233.4 405.2L234.3 408.7L237.5 413L238.9 414L240.4 414.5L243.2 415.1L243.7 415.8L243.5 418L243.7 419.2L244.3 419.6L246.1 419.4L247.2 419.7L247.9 420.4L248.6 421.6L249.9 422.7L251.9 424L255.4 426.7L257 428.8L258 430.9L259.3 435.3L259.6 437.1L259.7 440.4L260.1 442.9L259.9 444.3L259.4 445.8L258.1 447.8L257.7 448.7L257.9 450.1L258.7 451.5L260.1 453.5L260.7 455.1L261 456.5L260.8 458.8L260.2 460.1L257.9 463.5L257.1 465.9V468.8Z" fill="#59AAF4" stroke="white" stroke-width="2" stroke-linecap="round" stroke-linejoin="round"/>
<path d="M353.6 437.7L353.3 440L353.5 441.4L355 445.9L355.3 447.6L353.8 452L347.2 454.2L341.2 457.5L339.4 459L338.3 459.4L337.4 459.3L335.5 457.9L334 457.1L332.4 456.7L329.7 456.6L327.7 457.2L324.1 459L319.4 460L317.7 460.6L312 464.1L310.3 464.5H309L305.8 463L304.2 462.8L301.6 463L294.8 465.9L293.2 466L292.1 465.6L290.4 464L289.5 463.6L284.9 463.3L283.7 462.9L282.7 462.1L282 461.1L280.6 460.4L279.5 460.6L257.1 468.8V465.9L257.9 463.5L260.2 460.1L260.8 458.8L261 456.5L260.7 455.1L260.1 453.5L258.7 451.5L257.9 450.1L257.7 448.7L258.1 447.8L259.4 445.8L259.9 444.3L260.1 442.9L259.7 440.4L259.6 437.1L259.3 435.3L258 430.9L257 428.8L255.4 426.7L251.9 424L249.9 422.7L248.6 421.6L247.9 420.4L247.2 419.7L246.1 419.4L244.3 419.6L243.7 419.2L243.5 418L243.7 415.8L243.2 415.1L240.4 414.5L238.9 414L237.5 413L234.3 408.7L233.4 405.2L234.3 404.8L235.1 403.6L235.9 399.7L236.4 398.3L237.2 396.7L238.4 395.4L242.7 391.5L243.5 390.3L243.8 389.2L243.5 388.2L242.4 387.5L240.8 387.7L239.5 388.4L238.6 387.9L237.7 386.6L235.8 381.7L234.7 379.8L233.9 378.8L231 376.5L230 375L228.8 370.9L228.5 368.1L227.5 365.6L223.9 361.8L228.8 355.4L230 352.8L230.7 350.3L230.8 348.4L230.5 346.9L229.4 343.3L229.7 341.8L230.3 339.9L231.8 336.8L232.3 334.5L232.5 332.3L232.2 327.3L232.7 325.6L233.6 324.1L236.1 321.9L237.5 321L239.4 320.8L245.3 322.2L247.3 322.4L249.8 322L251.8 320.9L254 318.9L256.4 314.9L257.4 312.4L259.2 308.4L266.1 303.2L271.3 306.5L272.2 306.8L281.9 305.8L282.9 306.1L283.9 307.4L285 309.6L286.7 314L288.5 320.7L289.2 321.6L290.4 322.1L295.2 322.8L296.5 323.4L297.6 324.2L299 326.1L300.3 328.5L302 333L302.1 334.5L301.6 335.1L300.1 334.6L299.4 334.8L298.8 335.9L299.8 338.2L310 351.7L312.5 352.9L314.6 353.2L315.8 354.2L319.9 364.9L321.6 367.7L324.4 371.1L325.3 372.8L328 384.5L330.3 390.8L331.2 394L331.6 396.3L331.3 399.1L331.5 400.4L332.1 401.5L334.3 404.2L334.7 405.6L333.7 408.9L333.8 410.2L334.2 411.7L335.3 414.3L336.6 416.2L339.1 418.2L343.2 420.2L345 421.5L347.3 424.1L352.5 429.2L353.2 430.1L353.8 432.7L353.6 437.7Z" fill="#59AAF4" stroke="white" stroke-width="2" stroke-linecap="round" stroke-linejoin="round"/>
<path d="M498.4 110.1L499.6 111.5L507.9 118.3L510.7 121.6L511.9 124L512.5 125.6L512.6 127.4L511.9 129.6L510.7 130.9L508 132.4L507.2 133.1L507 133.9L508.4 136.2L508.5 137.2L508.2 138.6L507.1 139.3L505.5 139.1L504.5 139.2L503.8 139.8L503.3 140.7L503.5 141.8L504.4 143.5L506.5 146.2L507.3 147.5L508.6 150.3L509 151.8L509.1 153.6L508.3 156.3L506.9 158.7L506.1 160.8L506 162.4L507.2 164L508.4 164.3L510.4 164.1L510.9 164.4L511.1 165.3L510.7 167.7L510.3 169.3L509.7 174L510.3 184.8L502.1 188.1L495.2 189.4L492.4 190.4L489 192.7L483.6 197.4L482.8 198.5L481.4 202.3L480.8 203.5L478.2 207.5L477.3 209.4L476.7 211.5L475.9 215.9L475.2 217.1L473.9 217.7L472 217.5L470.3 216.7L467.2 214.7L465.9 214.2L464.7 213.9L463.4 214.1L461.5 215L458.9 217.1L456.7 220L455.7 221.8L454.7 224.7L454.1 225.8L452.1 228.3L451.4 229.6L450.6 234.5L450 235.7L448.6 236.7L446.5 237.4L442.8 237.9L438 239.9L436.3 240.2L434 240.1L427 238.3L418.3 234L420.6 229.3L421.2 227.4L421.9 221L422.5 218.8L422.7 216.3L422.2 214.2L420.2 212.1L416.5 210L415.2 209L414.5 207.7L414.3 205.9L414.7 203.6L414.5 202.6L412.7 201.3L411.8 200.3L411.9 198L412.2 196L412.7 194.1L412.8 192.1L412.4 190.2L410.9 188L409.4 186.9L406.9 185.7L405.8 185L403.6 182.9L402 181.9L396 180.2L394.7 179.5L393.5 178.2L392.8 176.6L392.3 174.7L391.2 166.1L390.8 164.5V162.6L391.4 161.1L394.8 158.2L396.2 156.6L397.3 154.8L398.3 150.4L402.4 146.4L408.8 136.9L409.5 135.4L409.9 133.9L410.3 130.6L410.8 129.8L412.3 129.1L421.2 127.2L423.4 125.8L424.4 124.5L426.5 119.7L427.3 118.3L428.8 117.1L436.1 113.8L438 113.3L457.8 118L477.6 117.3L479.8 116.6L481.5 115.4L485.8 111.3L489.4 110L498.4 110.1Z" fill="#A33030" stroke="white" stroke-width="2" stroke-linecap="round" stroke-linejoin="round"/>
<path d="M398.3 150.4L397.3 154.8L396.2 156.6L394.8 158.2L391.4 161.1L390.8 162.6V164.5L391.2 166.1L392.3 174.7L392.8 176.6L393.5 178.2L394.7 179.5L396 180.2L402 181.9L403.6 182.9L405.8 185L406.9 185.7L409.4 186.9L410.9 188L412.4 190.2L412.8 192.1L412.7 194.1L412.2 196L411.9 198L411.8 200.3L412.7 201.3L414.5 202.6L414.7 203.6L414.3 205.9L414.5 207.7L415.2 209L416.5 210L420.2 212.1L422.2 214.2L422.7 216.3L422.5 218.8L421.9 221L421.2 227.4L420.6 229.3L418.3 234L415.1 234.4L413 236.9L409 244.5L408.6 246.2V247.6L410.1 249.9L410.8 251.4L411 254L410.3 255.7L409.2 256.7L405.4 257.4L404.1 258L402.3 259.7L401.3 261.9L400.2 265.1L400 266.9L400.2 268.3L401.1 270.8L401 272.5L400.3 273.4L398 274.8L396.6 276.3L394.5 279.5L394.1 281.4L394.6 283.1L397 285.5L396.2 286.7L394.5 287.5H393.1L386.5 285.4L384.4 285.1L380.5 286.1L378.9 286.3L374.2 286.1L373.1 286.4L371.1 287.4L369.9 287.6L364.9 287.7L363.7 288L363.1 288.7V289.7L363.5 291.7L363.3 292.6L362.6 293.1L361.1 293L359.4 292.4L357.2 290.9L356.4 289.4L356.3 288.1L356.8 286.9L358.5 284.1V282.9L357.8 282L356.6 281.6L353.2 281.9L351.3 281.8L349 281.4L343.8 279.2L337.9 274.9L336.4 274.1L334.6 273.6L324 275.7L320.2 278.6L319.1 279.6L318.1 280.2L316.8 280.4L315 280.2L310.2 278.6L308.2 278.7L307.2 279L302.9 281.7L302.1 282.5L300.9 284.2L300.1 284.6L299.4 284.5L298.7 283.4L298.3 280.6L297.8 279.8L295.6 278L294.6 277L293.1 274L291.6 273L289.2 272.3L274.4 271.9L271.2 269.1V263.3L271.7 259.5L271.2 258.2L270.2 257.3L268.1 255.6L267.1 253.7L265.3 246.5L263.9 243.3L262.5 241.1L258.3 237.3L257 235.5L256.7 234.1L256.9 232.8L257.5 231.7L258.4 230.6L259.6 229.8L263.5 228L264.4 227.3L265.7 225L266.8 221.5L267.2 218.6L266.7 217L265.3 215.9L260 213.8L259.1 213.1L258.9 212.1L259.3 210.6L261.6 206.1L262.4 204L263.6 204.4L276.2 204.7L278.1 205L279.2 205.6L280.3 206.5L281.1 208L282.9 212.6L284 214.6L285.1 215.9L286.4 216.4L290.3 216.8L291.3 217.2L292.1 217.8L293.1 219.4L293.9 220H294.9L297.2 219.6L298.5 219.5L302.4 220.6L304.2 220.3L306.3 219.5L307.8 219.2L309 219.4L311.4 220.3L312.7 220.2L313.7 219.6L314 218.3L313.8 215.8L314.1 214.7L315.6 211.9L316.3 210.8L317.5 210.6L318.4 211.2L319.1 212.4L319.8 214.7L320.4 215.4L321.3 215.7L323.5 214.9H324.6L325.5 215.2L327.6 217.6L328.6 217.5L329.6 216.8L330.5 214.6V213.2L330 211.8L328 209.5L327.6 208.1L328.1 207.1L329.6 206.4H330.7L332.5 207.1L333.1 206.8L333.5 204.8L334 203.9L335.2 203.2L336.5 203L338.8 203.1L340.2 202.9L341.8 202.5L342.8 201.6L343.2 200.1L343.1 198.9L342.1 195.5L341.6 194.4L340.2 192.6L339.8 191.6L339.9 190.6L340.5 189.8L342.7 189.2L343.3 188.7L344.2 186.1L345 184.7L345.4 182.1L345.7 181.1L350.6 179.1L353 177.5L354.3 177.1L355.5 177.2L356.6 177.7H357.6L358.5 177L359.2 175.1L360.2 173.2L361.8 171.3L365.5 169.3L369 168.2L375.2 167.5L376.8 166.9L377.7 165.5L377.6 162.5L378.1 159.5L378.6 157.7L379.3 156.3L379.4 154.1L377.8 151.6L380.8 149L398.3 150.4Z" fill="#A33030" stroke="white" stroke-width="2" stroke-linecap="round" stroke-linejoin="round"/>
<path d="M524.6 188.9L525.3 194.8L526.8 197.8L529.2 200.2L530.2 201.6L530.9 203.5L531.3 205.9L531.6 215.3L529.9 225.7L530.5 229.2L532.8 235.6L533.6 238.1L533.5 240.2L532.9 243.6L532.6 246.5L532.9 250.6L532.7 252.1L531.8 253.6L527.2 257.4L525.7 259.1L521.9 265L520.6 266.4L518.8 267.6L514.3 269.5L512.9 270.4L506.7 276.9L505.9 278.3L505.4 280L504.9 285.8L504.4 287L503.3 288.1L496.7 290.8L495.9 291.8V292.8L498.8 294.9L499.6 295.9V297.5L499 298.6L497.8 299.2L495.2 299.8L492.6 301.8L490.3 302.8L489.5 303.6L489.4 304.6L490 305.9L498.4 316.1L500.3 317.9L502.3 318.6L507.3 318.4L509 319.1L514.6 323.4L522.9 332.3L517.6 333.5L507.9 333.9L506.4 334.4L504.9 335.2L502.6 337.2L501.5 338.4L500.5 341.3L501.1 344.5L496.1 341.6L495 340.6L493.3 339.4L491.9 338.8L489.6 338.5L488.1 338.7L484.7 339.6L481.4 339.8L480.6 340.1L479.4 341.1L478.6 341.5H476.2L475 341.9H473.6L472.2 341.2L470.3 338.9L469.2 335.5L468.6 331.6L468.1 322.8L467.4 318.7L467.5 317.3L468 316L468.7 315L469 314.1L468.6 313.6L467.7 313.5L465.6 314.6L464.1 315L462.1 314.8L459.3 313.9H457.9L456.6 314.8L455.1 316.6L453.8 317.3L451.7 317.4L444.3 316.9L441 317.6L439.3 318.3L437.2 318.8L435.2 318.5L429.4 316.1L425.6 316.9H417.8L416.1 315.8L414.5 313.6L413.7 308.8L412.6 306.5L410.4 304.7L404.6 302.2L403.6 301.5L400.3 297.9L399.8 296.7L400.3 294.9L401.2 293.8L402.5 292.6L403.3 291.4L403.7 290L403.1 288.2L401.9 286.8L400.3 285.7L397 285.5L394.6 283.1L394.1 281.4L394.5 279.5L396.6 276.3L398 274.8L400.3 273.4L401 272.5L401.1 270.8L400.2 268.3L400 266.9L400.2 265.1L401.3 261.9L402.3 259.7L404.1 258L405.4 257.4L409.2 256.7L410.3 255.7L411 254L410.8 251.4L410.1 249.9L408.6 247.6V246.2L409 244.5L413 236.9L415.1 234.4L418.3 234L427 238.3L434 240.1L436.3 240.2L438 239.9L442.8 237.9L446.5 237.4L448.6 236.7L450 235.7L450.6 234.5L451.4 229.6L452.1 228.3L454.1 225.8L454.7 224.7L455.7 221.8L456.7 220L458.9 217.1L461.5 215L463.4 214.1L464.7 213.9L465.9 214.2L467.2 214.7L470.3 216.7L472 217.5L473.9 217.7L475.2 217.1L475.9 215.9L476.7 211.5L477.3 209.4L478.2 207.5L480.8 203.5L481.4 202.3L482.8 198.5L483.6 197.4L489 192.7L492.4 190.4L495.2 189.4L502.1 188.1L510.3 184.8L519.8 186.6L524.6 188.9Z" fill="#A33030" stroke="white" stroke-width="2" stroke-linecap="round" stroke-linejoin="round"/>
<path d="M497 89.2L498.3 93.5L500.8 97.5L505.3 102.3L506.2 103.7L506.4 105.4L505.6 106.9L504.7 107.9L498.4 110.1L489.4 110L485.8 111.3L481.5 115.4L479.8 116.6L477.6 117.3L457.8 118L438 113.3L436.1 113.8L428.8 117.1L427.3 118.3L426.5 119.7L424.4 124.5L423.4 125.8L421.2 127.2L412.3 129.1L410.8 129.8L410.3 130.6L409.9 133.9L409.5 135.4L408.8 136.9L402.4 146.4L398.3 150.4L380.8 149L377.8 151.6L375.1 153L373.9 153.4H372.4L371.1 153.1L369.7 152.2L367.9 150.4L366.6 149.6L364.5 148.6L363.5 147.4L362.9 146.2L362.7 145L361.3 144.1L358.8 143.7L342.6 144.4L340.2 144L327 139.5L322.8 137.3L320.7 136.5L317.9 136H306.8L301.5 137.9L291.8 136.1L290 135.1L288.6 133.8L288.4 132.7L288.7 131.7L289.5 130.8L293.4 128.2L295.2 126.2L295.8 125.1L297.2 120.4L298.1 118.9L304.3 111L305.3 110.4H306.3L307.1 110.9L308.9 113.2L310.1 114.3L314.9 117.5L316.5 118.2H318.3L320.3 117L321.9 115.2L323.8 112.4L326.1 109.7L327.9 105.7L328.6 103.7L329.9 100.7L330.3 98.8L330.1 96.7L329.3 95.5L328.1 94.3L326.5 93.4L319.3 91.4L318.1 90.6L317.4 89.5L317.3 88.2L317.7 86L318.9 84.7L320.7 83.9L328.2 84L332.3 85.3L333.9 86.1L335.7 86.6L337.5 86.7L339.9 86.2L342.5 84.9L357.5 73.4L358.4 71.7L358.5 70L357.4 68L356 66.6L352.5 64.4L351 63.2L350 62L344.9 54.8L343.2 48.5L344.1 47.5L345.1 45.6L346.3 44.6L347.4 44.3L351.4 43.6L353.4 44.2L360.2 45L364.5 46.5L367 46.8L374.3 46.4L376 47.3L381.5 52.4L382.2 54.8H384.5L395.1 50.4L398.4 50.6L400.2 51.9L405.4 53.3L407.5 54.3L411.3 58L413.4 58.2L419.6 60.6L421.9 60.7L428.9 57.1L434.1 57L438.3 53.4L440.7 52H442.7L448.8 53.4L454.7 53.3L456.8 53.9L461.7 56.8L464.4 58.9L466 61L466.7 63.5L466.8 65.6L467.3 67.5L469.2 69.7L472.7 71.9L481.3 75.3L482.8 76.6L484.1 78.5L487.7 84.9L490.1 88.7L492.1 90.1L497 89.2Z" fill="black" stroke="white" stroke-width="2" stroke-linecap="round" stroke-linejoin="round"/>
<path d="M377.8 151.6L379.4 154.1L379.3 156.3L378.6 157.7L378.1 159.5L377.6 162.5L377.7 165.5L376.8 166.9L375.2 167.5L369 168.2L365.5 169.3L361.8 171.3L360.2 173.2L359.2 175.1L358.5 177L357.6 177.7H356.6L355.5 177.2L354.3 177.1L353 177.5L350.6 179.1L345.7 181.1L345.4 182.1L345 184.7L344.2 186.1L343.3 188.7L342.7 189.2L340.5 189.8L339.9 190.6L339.8 191.6L340.2 192.6L341.6 194.4L342.1 195.5L343.1 198.9L343.2 200.1L342.8 201.6L341.8 202.5L340.2 202.9L338.8 203.1L336.5 203L335.2 203.2L334 203.9L333.5 204.8L333.1 206.8L332.5 207.1L330.7 206.4H329.6L328.1 207.1L327.6 208.1L328 209.5L330 211.8L330.5 213.2V214.6L329.6 216.8L328.6 217.5L327.6 217.6L325.5 215.2L324.6 214.9H323.5L321.3 215.7L320.4 215.4L319.8 214.7L319.1 212.4L318.4 211.2L317.5 210.6L316.3 210.8L315.6 211.9L314.1 214.7L313.8 215.8L314 218.3L313.7 219.6L312.7 220.2L311.4 220.3L309 219.4L307.8 219.2L306.3 219.5L304.2 220.3L302.4 220.6L298.5 219.5L297.2 219.6L294.9 220H293.9L293.1 219.4L292.1 217.8L291.3 217.2L290.3 216.8L286.4 216.4L285.1 215.9L284 214.6L282.9 212.6L281.1 208L280.3 206.5L279.2 205.6L278.1 205L276.2 204.7L263.6 204.4L262.4 204L260.6 200.9L256.5 196.8L249.9 193L248.8 191.7L248 190.5L247.6 189.2L244.5 183.1L240 176L238.7 172.7L238.6 170.6L240.4 168.7L243.1 164.7L243.7 163.5L244 162.3L244.3 159.7L244.8 158.4L246 156.5L246.6 155.2L247.7 150.9L252.2 147.2L266.1 140.5L269 139.7H271.1L282.7 143L284.1 143.9L286.6 146.4L288.2 147.3L292.6 148.4L293.7 149L295.5 151.1L296.8 152L297.4 151.7L298.3 149.9L299 149L303.1 145.6L303.6 144.6L303.8 143.4L303.6 142.2L302.7 140.1L301.5 137.9L306.8 136H317.9L320.7 136.5L322.8 137.3L327 139.5L340.2 144L342.6 144.4L358.8 143.7L361.3 144.1L362.7 145L362.9 146.2L363.5 147.4L364.5 148.6L366.6 149.6L367.9 150.4L369.7 152.2L371.1 153.1L372.4 153.4H373.9L375.1 153L377.8 151.6Z" fill="black" stroke="white" stroke-width="2" stroke-linecap="round" stroke-linejoin="round"/>
<path d="M343.2 48.5L344.9 54.8L350 62L351 63.2L352.5 64.4L356 66.6L357.4 68L358.5 70L358.4 71.7L357.5 73.4L342.5 84.9L339.9 86.2L337.5 86.7L335.7 86.6L333.9 86.1L332.3 85.3L328.2 84L320.7 83.9L318.9 84.7L317.7 86L317.3 88.2L317.4 89.5L318.1 90.6L319.3 91.4L326.5 93.4L328.1 94.3L329.3 95.5L330.1 96.7L330.3 98.8L329.9 100.7L328.6 103.7L327.9 105.7L326.1 109.7L323.8 112.4L321.9 115.2L320.3 117L318.3 118.2H316.5L314.9 117.5L310.1 114.3L308.9 113.2L307.1 110.9L306.3 110.4H305.3L304.3 111L298.1 118.9L297.2 120.4L295.8 125.1L295.2 126.2L293.4 128.2L289.5 130.8L288.7 131.7L288.4 132.7L288.6 133.8L290 135.1L291.8 136.1L301.5 137.9L302.7 140.1L303.6 142.2L303.8 143.4L303.6 144.6L303.1 145.6L299 149L298.3 149.9L297.4 151.7L296.8 152L295.5 151.1L293.7 149L292.6 148.4L288.2 147.3L286.6 146.4L284.1 143.9L282.7 143L271.1 139.7H269L266.1 140.5L252.2 147.2L247.7 150.9L246.7 148.1L246 144.2L245 142.4L243.7 141.3L240.6 139.5L238.9 138L237.4 137L236.3 136.7L235.2 137L232.7 138.4L231.7 138.6L230.1 138.3H228.2L226.3 138.8L224.5 138.4L223.5 137.7L222.9 136.5L221.7 133.2L220.8 131.4L217.8 126.7L216.1 123.6L214.5 121.4L210.2 118.1L209 116.9L208.1 115.4L206.8 112.3L204.1 108.2L204.4 106L204.7 104.9L207.3 101.2L207.6 99.8L208 97L208.4 95.8L209.2 94.8L210.9 93.5L211.7 92.7L214.1 89.2L215.3 87.9L217.2 86.9L219.1 86.2L220.4 86L225.3 86.8L226.8 86.7L228.2 86.1L229.4 84.9L231.2 78.7L234.4 78L242.2 82.1L245.9 82.7L249.9 82.1L253.7 80.4L256.8 77.7L259.4 74.3L260.7 73.3L262.9 72.3L265.1 72L265.8 71.6L266.7 69.9L266.5 68.7L265.9 67.7V66.3L267 64.2L268.7 63L272.9 61.5L274.7 59.9L277.3 54.9L279.1 52.9L281.2 52.2L283.1 50.9L284 48.8L283.1 45.6L284 43.7L285.6 43.6L287.4 44.5L290.7 46.6L292.4 47.2L294.1 46.9L298.6 43.3L300.1 40.6L302.4 33.2L304.5 30L306.7 29L309 29.3L316.4 31.9L318.2 33.2L322.6 38.4L327.6 42.8L330 45.6L330.7 45.9H332.3L333.8 45.6L340.6 49L342.8 48.9L343.2 48.5Z" fill="black" stroke="white" stroke-width="2" stroke-linecap="round" stroke-linejoin="round"/>
<path d="M443.7 527.1L444.9 530.7L445.6 531.3L446.6 531.6L447.5 531.2L451.8 527.6L452.5 526.7L453.9 523.1L455.1 521.4L456 520.8L457 521L457.5 521.8L457.8 523L457.5 525.7L457.6 527.4L458.4 529.4L463.1 539.3L464.3 540.9L466.4 543L468.1 543.5H469.8L471.4 543.1L473.3 543.3L474.1 543.9L474.6 544.7L474 545.6L472.1 546.4L471.2 547.1L470.3 548.7L470.6 550.1L473.2 554.4L474 556.7L474.5 560L474.7 561.8L475.8 565.6L476.8 572.3L476.7 573.3L476.1 575.2L476 577.8L477.3 582.7L477.7 589.2L478.3 591.5L479 592.7L480 593.4L485.1 593.8L487.4 595.4L486 598.8L485.8 602.6L486.7 609.1L487 616.1L486.7 619.4L485.5 624.4L485.4 628.3L485.6 630.8L486.1 633L486.3 635.8L485.6 637.1L484.3 638L480.7 638.7L479.3 639.2L478.1 640.1L475 643.5L473.9 644.1L472.4 644.5L470.6 644.6L468.8 645.2L466.9 646.2L464.7 649.2L464.1 651.3L464.2 654.1L467.4 662.5L471.2 670.1L475.7 677.7L476.3 679.9L476.1 681L475.2 681.8L472.2 683.3L470.8 684.3L469.6 685.5L467.3 688.6L450.3 682.2L446.7 681.7L443 682.9L437.1 687.4L435.3 687.9L414.3 689L413.3 688.7L419.1 676.4L419.8 675.3L421.7 673.8L422.2 673L422.5 671.3L422.8 670.6L424.3 669.5L424.9 668.5L426.2 664.5L426.4 663.5L426.1 662.3L424.6 659.8L424.4 658.6L424.9 657.3L425.9 656.6L427.9 655.4L428.3 654.5L428.5 653.2L428.3 651.7L427.8 650.3L426.4 649.1L425 648.8L421.7 648.6L419.9 647.9L419.3 647L419.1 646.1L420.2 641.1L420.3 638.6L421.4 637.5L422.4 637.4L426 638.1L426.7 637.8V636.9L424.5 632.9L423.7 629.3L423.5 627.1L423.7 625.2L424.6 623.1V621.9L424 620.5L422 618.4L420.8 617.5L418.1 616.5L414.3 614L413.2 612.7L412.1 611.1L410.3 607.2L409.3 606L406.9 604.1L405.6 602.7L404.4 600.8L403 597.9L401.5 596.3L400.2 595.6L397.9 595L397.1 594L394.3 590L393.1 588.8L388.9 586.3L388 585.3L387.6 584.2L387.7 582L389.1 579.4L393.1 574.7L397.1 572.2L399.6 571.6L400.8 571.8L402.9 573L403.7 574.1L404.7 575.8L405.5 576.5L406.3 576.6L407.6 576L410.9 571.2L412 570L413.3 569.3L414.4 569.1H415.8L418.3 569.8L420.4 569.6L423.5 567.8L424.3 566.7L425 563.6L425.5 562.3L426.8 561.3H427.8L428.7 562.2L428.5 564.7L429.3 566.7L430.1 567.7L431.1 568.2L432.7 566.8L432.4 564.1L431.6 560.7L430.4 557.9L429.2 556L429.6 553.5L428.2 547.1L427.7 543.9V542.6L429.7 540.5L431.4 537.9L432.3 536L432.9 534.4L433.7 531.1L433.9 529.1L434.8 525.6L437.8 520.3L439.4 518.3L440.5 517.7L441.5 517.6L442.6 517.9L443.9 520.2L443.7 527.1Z" fill="#28AA2D" stroke="white" stroke-width="2" stroke-linecap="round" stroke-linejoin="round"/>
<path d="M373.8 546.1L374.6 549.6L374.7 550.8L375.2 552.1L376 553.2L377.9 554.3L379.5 555L383 557.2L384 558.1L385 559.4L387.1 566.7L388.4 569L390.1 571.6L393.1 574.7L389.1 579.4L387.7 582L387.6 584.2L388 585.3L388.9 586.3L393.1 588.8L394.3 590L397.1 594L397.9 595L400.2 595.6L401.5 596.3L403 597.9L404.4 600.8L405.6 602.7L406.9 604.1L409.3 606L410.3 607.2L412.1 611.1L413.2 612.7L414.3 614L418.1 616.5L420.8 617.5L422 618.4L424 620.5L424.6 621.9V623.1L423.7 625.2L423.5 627.1L423.7 629.3L424.5 632.9L426.7 636.9V637.8L426 638.1L422.4 637.4L421.4 637.5L420.3 638.6L420.2 641.1L419.1 646.1L419.3 647L419.9 647.9L421.7 648.6L425 648.8L426.4 649.1L427.8 650.3L428.3 651.7L428.5 653.2L428.3 654.5L427.9 655.4L425.9 656.6L424.9 657.3L424.4 658.6L424.6 659.8L426.1 662.3L426.4 663.5L426.2 664.5L424.9 668.5L424.3 669.5L422.8 670.6L422.5 671.3L422.2 673L421.7 673.8L419.8 675.3L419.1 676.4L413.3 688.7L376.4 679.4L370.4 675.8L368 675.4L359.1 677.4L354.5 676.6L343.1 670.3L326.3 669.4L316.7 670.8L312.8 672.9L309.1 673.7L305.9 675.1L283.5 677.1L280.2 676.3L277.6 674L276.3 671.2L276.2 667.9L278.8 656.9L279.9 653.6L282 652.2L284.2 651.9L288.4 650.5L290.7 650.2L294.4 648.1L296.2 643.6L295.2 639.1L292.9 638L301.5 628.9L304.8 628L305.9 628.2L306.7 627.7L307.1 625.9V624.2L306.8 622.4L306.1 620L305.9 618.1L306.2 616.4L308.4 611.6L308.7 610.4L309.2 606.7L309.7 604.1L310.3 602.2L311.2 600.9L316.8 597.7L318.2 597.5L320.3 597.9L320.9 597.7L321.1 596.7L320.8 595.9L319.4 594.8L316.1 594.4L314.9 594.1L314.1 593.5L313.7 592.5V591.5L314.5 588.3L314.7 587.1L315.1 586.3L315.9 585.5L318 584.8L319.6 584L321 582.4L322.4 580.3L324.7 578.3V577.7L322.3 576.8L322.7 576.3L324.1 575.6L330.7 575.2L332 574.3L333.7 573.6L336.3 573L342.1 573.3L343.6 571.6L353.3 564.8L363.3 561.6L368.3 561.3L369.2 560.7L369.7 559.9V557.7L369.3 555L369.7 552.8L369.8 551.1L369.3 547.3L369.6 545.1L370.1 544.5L371.4 544.4L372.8 545L373.8 546.1Z" fill="#28AA2D" stroke="white" stroke-width="2" stroke-linecap="round" stroke-linejoin="round"/>
<path d="M535.7 446.6L537.3 449.5L537.9 450.9L538.3 452.4V454.2L537.8 456.7L537.1 458.3L535.5 461L534.7 462.6L534.1 464.6L533.6 467L533.4 470.5L532.6 473.6L531.6 476L530.8 477.6L529.8 478.7L528.9 479.4L527.9 479.6L527 479.3L526.2 478.6L525 476.6L524.3 475.9L523.6 475.8L522.5 476.9L521.4 479.6L520.9 480.5L520.4 482.5L520.3 485.4L521.4 491.3L522.9 493.8L526.2 497.6L527.4 500.5L527.9 502.4V503.8L527.4 505.1L524.4 508.6L523.8 509.9L523.6 512.4L523.8 515.3L525.5 523.4L525.8 525.7L524.9 537.9L524.7 539.5L524.2 540.8L522.6 543.7L522.3 545.4L522.5 547.1L524 548.9L526.1 550.9L525.7 551.6L523.3 553.1L522.9 554.3L523.2 556.1L525.9 561.4L527 562.9L529.9 565.8L530.8 566.4L531.9 566.8L534.3 567.2L536.1 568.3L536.5 569.4L536.4 570.7L534.5 574.3L533.9 575.8L534 577.8L535 581.5L534.7 584.2L532.4 588.4L529 586.7L527.3 586.2L525.5 586H523.1L518.3 586.9L516.1 588.2L513.8 590.5L512.3 591.1L509.7 591.8L506.4 591.3L505.4 591.5L504.3 592.3L503 593.9L501.1 595.2L499.5 595.6L497.6 595.7L491.9 594.2L487.4 595.4L485.1 593.8L480 593.4L479 592.7L478.3 591.5L477.7 589.2L477.3 582.7L476 577.8L476.1 575.2L476.7 573.3L476.8 572.3L475.8 565.6L474.7 561.8L474.5 560L474 556.7L473.2 554.4L470.6 550.1L470.3 548.7L471.2 547.1L472.1 546.4L474 545.6L474.6 544.7L474.1 543.9L473.3 543.3L471.4 543.1L469.8 543.5H468.1L466.4 543L464.3 540.9L463.1 539.3L458.4 529.4L457.6 527.4L457.5 525.7L457.8 523L457.5 521.8L457 521L456 520.8L455.1 521.4L453.9 523.1L452.5 526.7L451.8 527.6L447.5 531.2L446.6 531.6L445.6 531.3L444.9 530.7L443.7 527.1L446.4 525.1L450.5 520.1L451.2 518.8L451.5 517.6L451.4 516.3L450.7 514.5L449.1 511.9L449 510.7L449.8 507.6L451 498.5L454.2 484.4L454 480.9L453.4 478.7L452.6 476.9L451.9 475.9L450.3 474L449.8 472.5L449.6 470.6L450 467.5L450.3 463.8L449.3 460.2L449.2 458.6L449.4 457.2L450 456L451.7 453.8L452 452.4L451.8 450.6L449.6 441.2V439.5L449.9 437.9L453 431.9L454.4 425.3L453.1 420.5L472.3 414.9L479 414.3L480.6 414.7L482 415.5L483.7 417.3L485.2 419.8L486 420.3L487.3 419.9L489.2 418.7L490.4 418.2L491.7 418.1L494.8 418.3L501.3 417.7L513.1 419.3L515.6 420.8L519.6 424.3L521.4 425.5L523.1 426.1L524.8 427.3L526.3 429.3L532.2 442.4L535.7 446.6Z" fill="#28AA2D" stroke="white" stroke-width="2" stroke-linecap="round" stroke-linejoin="round"/>
<path d="M453.1 420.5L454.4 425.3L453 431.9L449.9 437.9L449.6 439.5V441.2L451.8 450.6L452 452.4L451.7 453.8L450 456L449.4 457.2L449.2 458.6L449.3 460.2L450.3 463.8L450 467.5L449.6 470.6L449.8 472.5L450.3 474L451.9 475.9L452.6 476.9L453.4 478.7L454 480.9L454.2 484.4L451 498.5L449.8 507.6L449 510.7L449.1 511.9L450.7 514.5L451.4 516.3L451.5 517.6L451.2 518.8L450.5 520.1L446.4 525.1L443.7 527.1L443.9 520.2L442.6 517.9L441.5 517.6L440.5 517.7L439.4 518.3L437.8 520.3L434.8 525.6L433.9 529.1L433.7 531.1L432.9 534.4L432.3 536L431.4 537.9L429.7 540.5L427.7 542.6V543.9L428.2 547.1L429.6 553.5L429.2 556L430.4 557.9L431.6 560.7L432.4 564.1L432.7 566.8L431.1 568.2L430.1 567.7L429.3 566.7L428.5 564.7L428.7 562.2L427.8 561.3H426.8L425.5 562.3L425 563.6L424.3 566.7L423.5 567.8L420.4 569.6L418.3 569.8L415.8 569.1H414.4L413.3 569.3L412 570L410.9 571.2L407.6 576L406.3 576.6L405.5 576.5L404.7 575.8L403.7 574.1L402.9 573L400.8 571.8L399.6 571.6L397.1 572.2L393.1 574.7L390.1 571.6L388.4 569L387.1 566.7L385 559.4L384 558.1L383 557.2L379.5 555L377.9 554.3L376 553.2L375.2 552.1L374.7 550.8L374.6 549.6L373.8 546.1L375.3 537.5L375.7 529.6L374.2 512.5L374.4 509.6L374.9 507.6L376.1 504.3L379 492.6L379.1 490.6L378.7 485.5L379.1 483.3L380.8 478.3L381 476.5L380.5 474.4L379.4 471.7L378.6 467.6L378.8 464.7L380.2 458.9L379.7 457.2L378.9 456L377.1 454.6L375.3 454.2L368.8 454.9L366.9 454.8L365.3 454.5L363.3 453.4L362.1 453H357L353.8 452L355.3 447.6L355 445.9L353.5 441.4L353.3 440L353.6 437.7L358 437L360.2 437.2L361.5 436.7L363.6 435.4L366.9 432.8L368.3 432.3L370.1 432.2L371.4 431.9L372.4 431.1L374.1 429.1L375.8 428.6L393.4 427.9L397.4 428.4L401.1 430.1L402.7 430.4L404.7 430.3L415.3 424.2L416.8 423.7L431.5 420.3L453.1 420.5Z" fill="#28AA2D" stroke="white" stroke-width="2" stroke-linecap="round" stroke-linejoin="round"/>
<path d="M271.2 269.1L274.4 271.9L289.2 272.3L291.6 273L293.1 274L294.6 277L295.6 278L297.8 279.8L298.3 280.6L298.7 283.4L299.4 284.5L300.1 284.6L300.9 284.2L302.1 282.5L302.9 281.7L307.2 279L308.2 278.7L310.2 278.6L315 280.2L316.8 280.4L318.1 280.2L319.1 279.6L320.2 278.6L324 275.7L334.6 273.6L336.4 274.1L337.9 274.9L343.8 279.2L349 281.4L351.3 281.8L353.2 281.9L356.6 281.6L357.8 282L358.5 282.9V284.1L356.8 286.9L356.3 288.1L356.4 289.4L357.2 290.9L359.4 292.4L361.1 293L362.6 293.1L363.3 292.6L363.5 291.7L363.1 289.7V288.7L363.7 288L364.9 287.7L369.9 287.6L371.1 287.4L373.1 286.4L374.2 286.1L378.9 286.3L380.5 286.1L384.4 285.1L386.5 285.4L393.1 287.5H394.5L396.2 286.7L397 285.5L400.3 285.7L401.9 286.8L403.1 288.2L403.7 290L403.3 291.4L402.5 292.6L401.2 293.8L400.3 294.9L399.8 296.7L400.3 297.9L403.6 301.5L404.6 302.2L410.4 304.7L412.6 306.5L413.7 308.8L414.5 313.6L416.1 315.8L417.8 316.9L418.3 327L418.2 328.6L417.8 329.8L416.6 331L414.5 332.3L412.9 334.1L410.6 336.2L401.8 345.7L400.6 347.6L399.9 349.8L399.4 352.6L399 353.4L398.1 353.8L397.2 353.6L396.3 352.9L394.4 351L392.5 349.8H391.3L384 351.4L382.7 352.3L382 353.7L381.9 356.2L382.4 357.7L383.1 359.1L383.5 360.5L383.2 362.3L381.6 364.3L380.2 365.5L378.6 366.5L377.3 366.7L374.8 366.6L373.1 367.1L372.1 366.9L369.2 365.2L367.2 365L366.4 365.4L365.9 366.2L366.4 371.2L367.1 372.2L368.1 372.7L370.8 373.4L372 374.1L372.7 374.9L372.5 376.2L368.9 381.8L367.5 384.5L366.1 385.9L365.1 386L362.7 385.7L361.2 386.6L359.7 388.6L359 390.2L356.6 397.9L356.3 400.6L357 404.5L357.8 406.7L358.5 409.2L358.7 412L357.8 416.5L357 419.1L356.7 421.5L357.8 424.8L360.4 429.3L360.8 431.3L360.9 432.7L358 437L353.6 437.7L353.8 432.7L353.2 430.1L352.5 429.2L347.3 424.1L345 421.5L343.2 420.2L339.1 418.2L336.6 416.2L335.3 414.3L334.2 411.7L333.8 410.2L333.7 408.9L334.7 405.6L334.3 404.2L332.1 401.5L331.5 400.4L331.3 399.1L331.6 396.3L331.2 394L330.3 390.8L328 384.5L325.3 372.8L324.4 371.1L321.6 367.7L319.9 364.9L315.8 354.2L314.6 353.2L312.5 352.9L310 351.7L299.8 338.2L298.8 335.9L299.4 334.8L300.1 334.6L301.6 335.1L302.1 334.5L302 333L300.3 328.5L299 326.1L297.6 324.2L296.5 323.4L295.2 322.8L290.4 322.1L289.2 321.6L288.5 320.7L286.7 314L285 309.6L283.9 307.4L282.9 306.1L281.9 305.8L272.2 306.8L271.3 306.5L266.1 303.2L261 297.9L259.1 289.8L258.9 280.4L259.5 276.8L260.6 272.9L262 270.1L263.3 268.5L264.5 267.8L267.2 267.5L269.6 268.1L271.2 269.1Z" fill="#FF0000" stroke="white" stroke-width="2" stroke-linecap="round" stroke-linejoin="round"/>
<path d="M501.1 344.5L498.9 347.5L492.6 352.7L486.7 355.9L486.1 356.6L485.8 357.6L486.5 359.6L486.6 360.7L486.3 362.2L485.4 362.7L484.7 362.6L483 361.9L481.8 362.1L480 363.1L478.4 364.8L473.7 367.3L473 368.2L472.9 369.4L473.3 370.3L474.8 372L475.2 373.2L475 376.1L475.3 377.1L475.9 377.9L477.4 378.8L477.7 379.8L477.1 381.4L475.7 382.5L473.9 383.3L471.9 383.8L468.1 385.4L466.5 386.7L466 388L466.1 389.5L469.4 396.5L470.5 400.2L471.4 405.2L471.8 409.5L472.1 411.8L472.3 414.9L453.1 420.5L431.5 420.3L416.8 423.7L415.3 424.2L404.7 430.3L402.7 430.4L401.1 430.1L397.4 428.4L393.4 427.9L375.8 428.6L374.1 429.1L372.4 431.1L371.4 431.9L370.1 432.2L368.3 432.3L366.9 432.8L363.6 435.4L361.5 436.7L360.2 437.2L358 437L360.9 432.7L360.8 431.3L360.4 429.3L357.8 424.8L356.7 421.5L357 419.1L357.8 416.5L358.7 412L358.5 409.2L357.8 406.7L357 404.5L356.3 400.6L356.6 397.9L359 390.2L359.7 388.6L361.2 386.6L362.7 385.7L365.1 386L366.1 385.9L367.5 384.5L368.9 381.8L372.5 376.2L372.7 374.9L372 374.1L370.8 373.4L368.1 372.7L367.1 372.2L366.4 371.2L365.9 366.2L366.4 365.4L367.2 365L369.2 365.2L372.1 366.9L373.1 367.1L374.8 366.6L377.3 366.7L378.6 366.5L380.2 365.5L381.6 364.3L383.2 362.3L383.5 360.5L383.1 359.1L382.4 357.7L381.9 356.2L382 353.7L382.7 352.3L384 351.4L391.3 349.8H392.5L394.4 351L396.3 352.9L397.2 353.6L398.1 353.8L399 353.4L399.4 352.6L399.9 349.8L400.6 347.6L401.8 345.7L410.6 336.2L412.9 334.1L414.5 332.3L416.6 331L417.8 329.8L418.2 328.6L418.3 327L417.8 316.9H425.6L429.4 316.1L435.2 318.5L437.2 318.8L439.3 318.3L441 317.6L444.3 316.9L451.7 317.4L453.8 317.3L455.1 316.6L456.6 314.8L457.9 313.9H459.3L462.1 314.8L464.1 315L465.6 314.6L467.7 313.5L468.6 313.6L469 314.1L468.7 315L468 316L467.5 317.3L467.4 318.7L468.1 322.8L468.6 331.6L469.2 335.5L470.3 338.9L472.2 341.2L473.6 341.9H475L476.2 341.5H478.6L479.4 341.1L480.6 340.1L481.4 339.8L484.7 339.6L488.1 338.7L489.6 338.5L491.9 338.8L493.3 339.4L495 340.6L496.1 341.6L501.1 344.5Z" fill="#FF0000" stroke="white" stroke-width="2" stroke-linecap="round" stroke-linejoin="round"/>
<path d="M551 338L550.3 340.1L550.7 341.5L551.6 343.1L555 345.7L556.4 347.6L557.3 346.7L559.4 346.6L561.6 347.2L562.9 348.2L563.3 350.9L562 356L562.3 358.6L561.6 360.7L561.4 364L561.5 373.9L561.9 376.2L562.9 378.3L570.3 383.3L573.6 386.7L573.9 391.8H575.8L577.4 390.7L578.9 391.7L580.4 391.6L581.9 391L583.5 390.7L584.2 389.7L585.8 392.2L587.7 393.2L597.5 396.9L600.1 398.8L603.2 402L604.9 404.6L606.5 407.9L607.6 408.8L609.6 409.7L611.6 410.8L613.7 412.6L616.9 417.7L619.2 420.1L613.4 432.5L608.5 431.5L602.9 428.2L600.6 427.9L599.2 428.5L598.3 429.7L597.6 433.1L597.1 435L596.1 436.8L594.1 438.6L592.3 439.1L590.8 438.8L589.9 438L588.5 435.6L587.8 434.6L586.5 433.8L585.1 433.9L582.2 434.9L580.7 434.6L576.2 432.9L571.7 432L569.3 432.1L551.5 435.3L550.1 435.8L548.4 437L546.3 438L545.5 438.9L544.6 440.8L544.1 442.4L542.1 444.9L535.7 446.6L532.2 442.4L526.3 429.3L524.8 427.3L523.1 426.1L521.4 425.5L519.6 424.3L515.6 420.8L513.1 419.3L501.3 417.7L494.8 418.3L491.7 418.1L490.4 418.2L489.2 418.7L487.3 419.9L486 420.3L485.2 419.8L483.7 417.3L482 415.5L480.6 414.7L479 414.3L472.3 414.9L472.1 411.8L471.8 409.5L471.4 405.2L470.5 400.2L469.4 396.5L466.1 389.5L466 388L466.5 386.7L468.1 385.4L471.9 383.8L473.9 383.3L475.7 382.5L477.1 381.4L477.7 379.8L477.4 378.8L475.9 377.9L475.3 377.1L475 376.1L475.2 373.2L474.8 372L473.3 370.3L472.9 369.4L473 368.2L473.7 367.3L478.4 364.8L480 363.1L481.8 362.1L483 361.9L484.7 362.6L485.4 362.7L486.3 362.2L486.6 360.7L486.5 359.6L485.8 357.6L486.1 356.6L486.7 355.9L492.6 352.7L498.9 347.5L501.1 344.5L500.5 341.3L501.5 338.4L502.6 337.2L504.9 335.2L506.4 334.4L507.9 333.9L517.6 333.5L522.9 332.3L528.5 331.4L534.3 328.7H536.1L537.9 329.1L540.1 330.2L541.8 331.9L543.4 333.1L548.1 334.8L551 338Z" fill="#FF0000" stroke="white" stroke-width="2" stroke-linecap="round" stroke-linejoin="round"/>
<path d="M759.6 111.6L753.8 114.4L749.5 114.3L747.8 113.9L746.5 114L745.3 114.8L743.5 116.8L741.7 118.8L741.1 119.9L740.7 122.6L739.8 123.7L738.6 124.4H735.7L734.3 124L732.5 123L730.6 122.2L727.6 121.6L725.9 120.2L725.1 119.9L723.9 120.1L722.7 121L722 122.1L721.6 123.2L721.8 124.6L723.7 128.8L723.8 130.1L723.3 131.2L722.2 132.1L720 132.9L718.4 133.2L716.4 132.6L715.1 131.6L714 130.4L712.4 128.4L710.6 127L709.6 126.6H691.9L690.2 126.2L687.1 124.1L686 124L685.1 124.5L684.4 125.4L683.8 127.1L682.3 130.3L678.1 134.4L673.7 133.8L671.1 131.7L668.5 128L667.9 126.4L667.7 124.6L668 120.5L667.9 118.6L666.2 110.4L665.3 107L664.2 105.1L660.8 101.6L659.5 99.4L652.5 90.7L650.5 87.2L638.5 71.8L636 69.3L630.6 66.3L626.3 62.6L623.5 60.8L621.9 59.3L621.2 57.5L619.4 47.9H621.8L626.8 45.6L627.9 44L630.2 38.6L631.5 36.9L634.2 34.5L635.5 33.1L637.1 29.7L638.9 24.8L640 19.8L639.8 16.2L640.6 11L641.5 11.3L643.4 11.5L645.2 10.9L648.7 9.2L650.5 8.7L655.5 8.5L670.6 5L678.8 1.1L681.2 1L683.7 3.1L684.8 3.4L685.9 1.6L687.1 4.1L689.2 4.5L693.5 3.6L695.3 4.5L697.7 7.6L698.9 6.9L703.3 11.4L704 12.6L704.4 15.3L705.4 14.8L706.6 13L707.6 12.1L708.9 13.3L709.4 15.1L710.2 16.8L713.9 18.2V19.5L712.7 20.7L710.6 20.8V21.8L713.5 23.6L715.4 24.2L716.8 23.1L717.7 23.6L719.2 25.2L719.1 26.1L718 27.5L717.7 28.4L718.5 32.3L720.4 35.3L722.9 37.6L725.6 39.2V40.4L723.5 41.4L724.2 43.6L726.9 42.4L728.3 44.4L729.3 46.6L730.7 45.7L731.9 47.2L732 48.6L731.3 50L730 51.1L732.3 52.9L732.9 53.3V54.3L731.1 56.8L732.2 58.3L734.6 59.6L736.5 61.9L736.4 62.6L736.6 67.5L736.5 68.4L737.6 69.3L740 70.2L740.8 71.6L737.2 73.8L738.5 74.9L739.9 77.1L742 81.5L744.4 83.5L744.8 85L744.7 86.7L745.2 87.8V88.8L742.8 89.3L743.8 92.8L746.2 96.9L753.1 106L756 109.1L759.3 110.3L759.6 111.6Z" fill="#F42222" stroke="white" stroke-width="2" stroke-linecap="round" stroke-linejoin="round"/>
<path d="M832.6 225.1L831.8 225.6L826.4 226.3L824.6 227.4L822.9 228.7H821.7L820.4 228.1L818.5 226.6L817.6 226.5L816.3 227.3L815.9 228.3L815 229H813.5L809.6 227.7L806.2 225.5L805.1 225.2L803.4 225.4L802 225.3L800.9 224.4L800.8 223.3L802.5 217.7L802.6 216L802.2 214.5L801.3 213.6L800 213.4L798.6 214.4L798.1 215.8V218.7L797.8 219.6H797.1L795.9 218.8L791.9 213.5L789 210.5L782.7 205.5L781.3 204.8H780.1L779.3 205.8L779.1 206.9L779.9 209.2L780 211.7L779.5 214L779.7 214.7L780.4 215.2L781.6 215.3L783.5 215L784.5 215.7L784.3 217.5L783.8 218.5L782.5 219.2L780.4 219.5L776.5 218.8L774.6 218H773.1L772.4 219L771.2 221.4L770.1 222.4L766.2 223.7L764.3 223.8L761.7 223.2L759.8 222.5L757.8 221.9H755.8L747.9 223.3L735.7 222.5L735.2 220.4L734.6 219.1L732.7 215.8L730.5 212.8L729.3 210.9L729.2 209.3L729.9 207.8L731.3 206.4L733.1 205.4L735 204.6L738.1 203.8L739 203.1L739.4 202L738.8 200.7L737.4 199L735 196.9L733.7 195.4L732.7 193.9L731.9 191L731 189.8L729.7 189.1L727.3 188.9L725.6 189.3L724.2 190.1L720.6 194.4L719.5 195.4L718.2 195.9L716.3 195.7L711.3 194.6L709.8 194.9L708.9 195.8L708 198.4L707.4 199.4L706.5 199.9L704.9 200L700.6 199L697.9 197.5L691.7 192.7L687.6 190.4L684.6 189.6L682.2 189.5L680.2 189.8L678.4 189.7L677 188.9L676.1 186.8L675.3 184.4L672.2 176.5L666.8 168.6L659.5 161.4L667.6 159.5L668.7 158.7L669.6 157.5L669 156.4L662.5 150.4L661.4 147.8L661.8 146.4L663.6 145.9L674.6 147.2L676.9 146.8L677.8 145.9L678.3 144.5L678.4 142.6L679.5 139.7L679.9 138L679.6 136.6L678.1 134.4L682.3 130.3L683.8 127.1L684.4 125.4L685.1 124.5L686 124L687.1 124.1L690.2 126.2L691.9 126.6H709.6L710.6 127L712.4 128.4L714 130.4L715.1 131.6L716.4 132.6L718.4 133.2L720 132.9L722.2 132.1L723.3 131.2L723.8 130.1L723.7 128.8L721.8 124.6L721.6 123.2L722 122.1L722.7 121L723.9 120.1L725.1 119.9L725.9 120.2L727.6 121.6L730.6 122.2L732.5 123L734.3 124L735.7 124.4H738.6L739.8 123.7L740.7 122.6L741.1 119.9L741.7 118.8L743.5 116.8L745.3 114.8L746.5 114L747.8 113.9L749.5 114.3L753.8 114.4L759.6 111.6L760.6 115.2L760.5 116.6L761.2 117.5L762.6 117.8L763.4 122L764 124.3L765.2 125.3L766.1 125.4L767.6 126.4L770.4 126.5L772 127L773.5 127.9L774.9 129.2L775.6 130.7L774.8 131.4L774.2 132.6L773.5 136L775.3 137.7L774.5 142.5L776 143.5L777.4 144.7L780 150.8L781.3 153.1L782.1 153.6L785 154.2L787.8 156.1L790.4 156.8L791.5 158L793.6 161.7L793.5 163.7L794.6 165.6L797.3 169.1L798.6 173.3L799.3 175.6L799.2 176.2L798 176.6L799.2 178.3L803.8 180.8V181.9L803.2 183L805.6 184.5L808.8 188.1L811.8 190.1L813.1 191.3L813.2 193.5L815.7 194L818.2 195.6L820.5 196.7L822.6 195.7L823.5 198.2L826.9 202.5L828.4 205.2L830.4 210.8L830.8 213.5L829.9 215.8L831.6 217L831.7 218.8L831.6 220.6L832.8 222.1L832.6 225.1Z" fill="#F42222" stroke="white" stroke-width="2" stroke-linecap="round" stroke-linejoin="round"/>
<path d="M678.1 134.4L679.6 136.6L679.9 138L679.5 139.7L678.4 142.6L678.3 144.5L677.8 145.9L676.9 146.8L674.6 147.2L663.6 145.9L661.8 146.4L661.4 147.8L662.5 150.4L669 156.4L669.6 157.5L668.7 158.7L667.6 159.5L659.5 161.4L655.8 157.1L654.2 155.9L652.4 155.1L650.3 154.7L648.2 154.6L645.8 155.2L635.9 160.4L632.1 161.4L620.2 161.3L614.8 162.8L612.8 162.7L611 162.1L609.7 161.2L608.2 160.7L606.7 160.8L599 164.5L597.1 164.8L595.7 164.6L594.4 163.6L589.6 159.1L588.2 158.1L586.9 157.6L585.7 157.7L584.9 158.2L584.5 159.1L584.8 160.2L586.6 162.8L588.7 164.8L589.5 165.9L589.7 167.2L589.5 168.7L588.7 170.2L586.9 171.8L582.8 174.5L581.2 176L576.5 181.7L575.2 184.4L574 188.4L573.9 191.8L568.3 192.6L566.8 193.1L564.6 193.4L563 193.2L561.3 192.1L560 190.7L559 189.2L557.8 188L546 179.9L544.2 179.1L542.4 179L539.8 179.6L537.7 180.5L535.9 181.7L534.9 183.5L534.6 184.9L534.4 187.6L533.8 188.9L532.9 189.9L531.5 190.5H528.6L524.6 188.9L519.8 186.6L510.3 184.8L509.7 174L510.3 169.3L510.7 167.7L511.1 165.3L510.9 164.4L510.4 164.1L508.4 164.3L507.2 164L506 162.4L506.1 160.8L506.9 158.7L508.3 156.3L509.1 153.6L509 151.8L508.6 150.3L507.3 147.5L506.5 146.2L504.4 143.5L503.5 141.8L503.3 140.7L503.8 139.8L504.5 139.2L505.5 139.1L507.1 139.3L508.2 138.6L508.5 137.2L508.4 136.2L507 133.9L507.2 133.1L508 132.4L510.7 130.9L511.9 129.6L512.6 127.4L512.5 125.6L511.9 124L510.7 121.6L507.9 118.3L499.6 111.5L498.4 110.1L504.7 107.9L505.6 106.9L506.4 105.4L506.2 103.7L505.3 102.3L500.8 97.5L498.3 93.5L497 89.2L504.9 87.8L511.5 84.9L515.9 80.6L526.1 63.6L530.7 60.5L582.5 54.8L589.4 52L595 51.3L598.2 49.8L599.9 49.5L605 50L611.7 48L619.4 47.9L621.2 57.5L621.9 59.3L623.5 60.8L626.3 62.6L630.6 66.3L636 69.3L638.5 71.8L650.5 87.2L652.5 90.7L659.5 99.4L660.8 101.6L664.2 105.1L665.3 107L666.2 110.4L667.9 118.6L668 120.5L667.7 124.6L667.9 126.4L668.5 128L671.1 131.7L673.7 133.8L678.1 134.4Z" fill="#F42222" stroke="white" stroke-width="2" stroke-linecap="round" stroke-linejoin="round"/>
<path d="M573.9 191.8L576.3 192.4L579.2 193.7L580.8 194.7L582.2 196.5L583.5 198.8L585.3 203.4L586.6 206L588.5 208.5L592 211.2L593.5 212.7L594.4 214.2L595 216.8L594.9 218L594.5 218.7L593.8 218.8L591.9 218.4L590.8 218.5L589.5 219.6L589.3 220.9L589.2 222.5L590.4 248.1L590.9 250L591.8 251.7L593.4 253.6L596.9 257.1L598.1 257.8L599.2 257.9L599.6 257L599.5 255.6L598.8 252.3V250.9L599.9 250.2L600.9 249.9L609.5 252L609.8 263.4L611.6 270.4L613 272.9L614.5 275.2L615.9 278L616 279.8L614.9 280.8L613.5 281.4L612 282.7L611.1 284.7L610.6 289L611.2 291.2L612.7 292.6L617 293.8L622.6 294.6L624.1 295.5L625.7 297.2L626.2 299L626.3 300.8L625.5 304.4L625.4 306.5L626.3 307.5H627.8L630.5 306.7L634.7 304.4L636.2 304.1L637.7 304.3L639.5 305.4L640.1 306.7L640.3 308.1L638.8 312.1L638.6 313.4L638.1 319.6L637.7 321.2L636.4 323.9L635.9 325.5L635.1 331.3L607.7 337.3L597.9 336.5L594.9 335L593.1 333.5L592.2 332L591.2 330.8L587 327.4L583.1 319.8L582.3 315.4L581.6 314.1L580.4 312.9L577.6 310.4L576 309.5L574.6 309.8L573.4 310.7L572.1 312L568.6 314.3L566.9 315.9L563.1 321.4L561.5 323.2L559.3 324.8L555.5 329L555.1 329.9L555.2 331.3L553.6 332.8L551 338L548.1 334.8L543.4 333.1L541.8 331.9L540.1 330.2L537.9 329.1L536.1 328.7H534.3L528.5 331.4L522.9 332.3L514.6 323.4L509 319.1L507.3 318.4L502.3 318.6L500.3 317.9L498.4 316.1L490 305.9L489.4 304.6L489.5 303.6L490.3 302.8L492.6 301.8L495.2 299.8L497.8 299.2L499 298.6L499.6 297.5V295.9L498.8 294.9L495.9 292.8V291.8L496.7 290.8L503.3 288.1L504.4 287L504.9 285.8L505.4 280L505.9 278.3L506.7 276.9L512.9 270.4L514.3 269.5L518.8 267.6L520.6 266.4L521.9 265L525.7 259.1L527.2 257.4L531.8 253.6L532.7 252.1L532.9 250.6L532.6 246.5L532.9 243.6L533.5 240.2L533.6 238.1L532.8 235.6L530.5 229.2L529.9 225.7L531.6 215.3L531.3 205.9L530.9 203.5L530.2 201.6L529.2 200.2L526.8 197.8L525.3 194.8L524.6 188.9L528.6 190.5H531.5L532.9 189.9L533.8 188.9L534.4 187.6L534.6 184.9L534.9 183.5L535.9 181.7L537.7 180.5L539.8 179.6L542.4 179L544.2 179.1L546 179.9L557.8 188L559 189.2L560 190.7L561.3 192.1L563 193.2L564.6 193.4L566.8 193.1L568.3 192.6L573.9 191.8Z" fill="#4CF049" stroke="white" stroke-width="2" stroke-linecap="round" stroke-linejoin="round"/>
<path d="M659.5 161.4L666.8 168.6L672.2 176.5L675.3 184.4L676.1 186.8L677 188.9L678.4 189.7L680.2 189.8L682.2 189.5L684.6 189.6L687.6 190.4L691.7 192.7L697.9 197.5L700.6 199L704.9 200L706.5 199.9L707.4 199.4L708 198.4L708.9 195.8L709.8 194.9L711.3 194.6L716.3 195.7L718.2 195.9L719.5 195.4L720.6 194.4L724.2 190.1L725.6 189.3L727.3 188.9L729.7 189.1L731 189.8L731.9 191L732.7 193.9L733.7 195.4L735 196.9L737.4 199L738.8 200.7L739.4 202L739 203.1L738.1 203.8L735 204.6L733.1 205.4L731.3 206.4L729.9 207.8L729.2 209.3L729.3 210.9L730.5 212.8L732.7 215.8L734.6 219.1L735.2 220.4L735.7 222.5L736.3 227.3L738.7 233.8L739.1 236.3V238L737.9 240.5L733.7 242.6L730.7 241.7L729.6 241.1L721.1 239.1L718.5 239.2L711.1 240.3L709 238.8L707.5 237.2L706.9 235.7L707 233.6L706.9 232.5L706.3 231.2L704.1 229.6L703 229.5L702.4 230.1L702.6 232.4L702.4 233.7L701.7 234.7L698.9 237.1L698.4 238.1L698.3 239.3L698.5 240.6V241.8L697.9 243L696.7 244L695 244.8H693.3L692 244.1L688.8 241.7L686 240.7L684 240.9L682.7 241.7L681.8 243.8L680.9 244.9L674.4 247.7L672.9 248.7L670.9 251.3L670 252.1L668.6 252.3L664.3 251.4L660.5 252.3H656.5L655.4 252.7L654.4 253.6L652.6 256.2L651.6 257.1L649.8 257.3L641.4 257.4L640.2 257.1L639.9 256.5L640.4 253.5L640.1 252.4L638.8 250.2L637.6 247.8L636.9 247L635.4 246.4L634.1 246.6L632.9 247.3L626.4 252L623.7 253.2L621.7 253.5L620.3 253.2L617.2 251.5L614.8 250.8L613.4 250.9L609.5 252L600.9 249.9L599.9 250.2L598.8 250.9V252.3L599.5 255.6L599.6 257L599.2 257.9L598.1 257.8L596.9 257.1L593.4 253.6L591.8 251.7L590.9 250L590.4 248.1L589.2 222.5L589.3 220.9L589.5 219.6L590.8 218.5L591.9 218.4L593.8 218.8L594.5 218.7L594.9 218L595 216.8L594.4 214.2L593.5 212.7L592 211.2L588.5 208.5L586.6 206L585.3 203.4L583.5 198.8L582.2 196.5L580.8 194.7L579.2 193.7L576.3 192.4L573.9 191.8L574 188.4L575.2 184.4L576.5 181.7L581.2 176L582.8 174.5L586.9 171.8L588.7 170.2L589.5 168.7L589.7 167.2L589.5 165.9L588.7 164.8L586.6 162.8L584.8 160.2L584.5 159.1L584.9 158.2L585.7 157.7L586.9 157.6L588.2 158.1L589.6 159.1L594.4 163.6L595.7 164.6L597.1 164.8L599 164.5L606.7 160.8L608.2 160.7L609.7 161.2L611 162.1L612.8 162.7L614.8 162.8L620.2 161.3L632.1 161.4L635.9 160.4L645.8 155.2L648.2 154.6L650.3 154.7L652.4 155.1L654.2 155.9L655.8 157.1L659.5 161.4Z" fill="#4CF049" stroke="white" stroke-width="2" stroke-linecap="round" stroke-linejoin="round"/>
<path d="M737.9 240.5L740 243.4L741.5 245L746.3 249.1L748.3 251.3L749.5 254L749.6 257.8L749.3 261.3L749.7 264.8L760.7 284.1L764.7 293.5L767.1 303L768.2 310.1L769 329.4L765.8 329L762.1 327.9L761.1 328L759.7 329.9L758.9 330.7L757.7 331L755.8 330.8L751.3 328L749.2 327.6L746.5 327.7L738.7 329.3L736.1 330.8L734.9 332.1L733.1 334.6L732 335.7L729.1 337.6L728.1 338.8L726.9 341.1L726 341.8L724.6 342.1L719.1 340.1L717.7 339.8L716.1 340L714.3 340.9L713.4 341.9L712.6 344.1L712.2 344.7L711.2 344.9L707.1 343.2L705.5 343H703.7L701.6 343.5L699.9 343.3L697.3 342.6L692.7 342.4L689.5 341.8L679.3 342.5L677.6 343L676.4 344.1L675.7 345.4L675.4 346.8L675.1 351.2L671.9 352.7L659.7 350.9L658 350L656.6 347.4L655.6 344.1L655.1 342.8L654.2 341.7L653 340.8L651 339.8L650.4 338.4L650.7 337.3L652.1 335.7L652.4 334.7L651.8 333.4L650.8 332.1L646.9 329.7L646.1 328.9L644.6 327.1L643.8 326.7L642.9 326.8L639.5 329.8L635.1 331.3L635.9 325.5L636.4 323.9L637.7 321.2L638.1 319.6L638.6 313.4L638.8 312.1L640.3 308.1L640.1 306.7L639.5 305.4L637.7 304.3L636.2 304.1L634.7 304.4L630.5 306.7L627.8 307.5H626.3L625.4 306.5L625.5 304.4L626.3 300.8L626.2 299L625.7 297.2L624.1 295.5L622.6 294.6L617 293.8L612.7 292.6L611.2 291.2L610.6 289L611.1 284.7L612 282.7L613.5 281.4L614.9 280.8L616 279.8L615.9 278L614.5 275.2L613 272.9L611.6 270.4L609.8 263.4L609.5 252L613.4 250.9L614.8 250.8L617.2 251.5L620.3 253.2L621.7 253.5L623.7 253.2L626.4 252L632.9 247.3L634.1 246.6L635.4 246.4L636.9 247L637.6 247.8L638.8 250.2L640.1 252.4L640.4 253.5L639.9 256.5L640.2 257.1L641.4 257.4L649.8 257.3L651.6 257.1L652.6 256.2L654.4 253.6L655.4 252.7L656.5 252.3H660.5L664.3 251.4L668.6 252.3L670 252.1L670.9 251.3L672.9 248.7L674.4 247.7L680.9 244.9L681.8 243.8L682.7 241.7L684 240.9L686 240.7L688.8 241.7L692 244.1L693.3 244.8H695L696.7 244L697.9 243L698.5 241.8V240.6L698.3 239.3L698.4 238.1L698.9 237.1L701.7 234.7L702.4 233.7L702.6 232.4L702.4 230.1L703 229.5L704.1 229.6L706.3 231.2L706.9 232.5L707 233.6L706.9 235.7L707.5 237.2L709 238.8L711.1 240.3L718.5 239.2L721.1 239.1L729.6 241.1L730.7 241.7L733.7 242.6L737.9 240.5Z" fill="#4CF049" stroke="white" stroke-width="2" stroke-linecap="round" stroke-linejoin="round"/>
<path d="M832.6 225.1L832.5 226.4L834.2 230.7L838.4 238V240.9L844.3 252.8L845.4 257L845.7 259.2V261.3L845 263L844 264.9L843.4 267.1L844.3 269.6L843.4 270.3L843 271.5L842.8 277.2L843 278.4L844.3 281.2L845.6 281.6L845.7 282.8V287.6L845.6 288.9L845 290L843.5 290.8L844.3 292.9L843.8 293.7L842.8 294.1L842.1 294.9L841.5 299.5L841 300.2L839.7 300.6L839.5 301.7L839.9 304.8L840 306.7L838.4 310.4L837.1 311.7L833.9 313.1L833.5 314.2L833.8 316.8L833.6 317.6L831.1 318.5L831.4 319.8L833.3 323L834.6 324.9L834.9 326.2L833.7 329.8L833.1 333.5L831 339.5L830.6 339.7L827.1 340.6L825.5 340.5L822.8 339.8L818.9 337.7L811 335.1H809.5L807.8 335.9L806.8 336.7L806 338L804.3 341.1L803.4 341.7H802.3L801.6 340.8L801.3 338.5L800.5 337.6L798.8 337L780.7 334.7L779.3 335.6L778.9 336.6L779.1 337.8L781.2 341.9L782.1 344.7V346.1L781.5 350.2V352.5L780.9 354.1L779.6 354.7L778.5 353.9L777.6 352.2L776.3 348.4L775.3 344L774 341.4L770.4 336.4L769 329.4L768.2 310.1L767.1 303L764.7 293.5L760.7 284.1L749.7 264.8L749.3 261.3L749.6 257.8L749.5 254L748.3 251.3L746.3 249.1L741.5 245L740 243.4L737.9 240.5L739.1 238V236.3L738.7 233.8L736.3 227.3L735.7 222.5L747.9 223.3L755.8 221.9H757.8L759.8 222.5L761.7 223.2L764.3 223.8L766.2 223.7L770.1 222.4L771.2 221.4L772.4 219L773.1 218H774.6L776.5 218.8L780.4 219.5L782.5 219.2L783.8 218.5L784.3 217.5L784.5 215.7L783.5 215L781.6 215.3L780.4 215.2L779.7 214.7L779.5 214L780 211.7L779.9 209.2L779.1 206.9L779.3 205.8L780.1 204.8H781.3L782.7 205.5L789 210.5L791.9 213.5L795.9 218.8L797.1 219.6H797.8L798.1 218.7V215.8L798.6 214.4L800 213.4L801.3 213.6L802.2 214.5L802.6 216L802.5 217.7L800.8 223.3L800.9 224.4L802 225.3L803.4 225.4L805.1 225.2L806.2 225.5L809.6 227.7L813.5 229H815L815.9 228.3L816.3 227.3L817.6 226.5L818.5 226.6L820.4 228.1L821.7 228.7H822.9L824.6 227.4L826.4 226.3L831.8 225.6L832.6 225.1Z" fill="#4CF049" stroke="white" stroke-width="2" stroke-linecap="round" stroke-linejoin="round"/>
<path d="M635.1 331.3L639.5 329.8L642.9 326.8L643.8 326.7L644.6 327.1L646.1 328.9L646.9 329.7L650.8 332.1L651.8 333.4L652.4 334.7L652.1 335.7L650.7 337.3L650.4 338.4L651 339.8L653 340.8L654.2 341.7L655.1 342.8L655.6 344.1L656.6 347.4L658 350L659.7 350.9L653 361.7L651.3 366.7L651.1 368.9L649.6 376.6L648.7 384L649.7 387.2L650.2 388.6L650.5 390.3L650.3 392.1L648.3 396.3L647.9 398.1L647.7 399.8L647.3 401.8L646.4 403.8L644.7 406.4L644.1 408.5L643.3 412L642.3 413.4L640.4 414.4L638.6 414.3L637.4 413.7L635.5 411.8L634.4 411.1L633.3 410.9L632.3 411.3L631.3 412.9L630.9 414.4L630.5 417.2L629.8 418.1L628.5 418.6L623.3 418.8L619.2 420.1L616.9 417.7L613.7 412.6L611.6 410.8L609.6 409.7L607.6 408.8L606.5 407.9L604.9 404.6L603.2 402L600.1 398.8L597.5 396.9L587.7 393.2L585.8 392.2L584.2 389.7L583.5 390.7L581.9 391L580.4 391.6L578.9 391.7L577.4 390.7L575.8 391.8H573.9L573.6 386.7L570.3 383.3L562.9 378.3L561.9 376.2L561.5 373.9L561.4 364L561.6 360.7L562.3 358.6L562 356L563.3 350.9L562.9 348.2L561.6 347.2L559.4 346.6L557.3 346.7L556.4 347.6L555 345.7L551.6 343.1L550.7 341.5L550.3 340.1L551 338L553.6 332.8L555.2 331.3L555.1 329.9L555.5 329L559.3 324.8L561.5 323.2L563.1 321.4L566.9 315.9L568.6 314.3L572.1 312L573.4 310.7L574.6 309.8L576 309.5L577.6 310.4L580.4 312.9L581.6 314.1L582.3 315.4L583.1 319.8L587 327.4L591.2 330.8L592.2 332L593.1 333.5L594.9 335L597.9 336.5L607.7 337.3L635.1 331.3Z" fill="#E89534" stroke="white" stroke-width="2" stroke-linecap="round" stroke-linejoin="round"/>
<path d="M831 339.5L830.3 341.7L829.4 342.2L829.2 343.8L829.8 344.2L829.9 345.1L828.6 350.4L828.4 351.9L828.7 354.1L831.3 361.7L831.8 364.3L832.8 366.5L832.2 368.8L832 370L832.3 371.2L833.5 373.7L833.2 374.4L831.8 375.4L831.3 376.2L831.6 380.6L833.2 385.2L835.1 388.8L836 390.3L836.9 405.4L836.7 407.9L837.4 409.8L835.9 410.6L832.4 410.5L831 411L829.3 412.3L827.5 414L826.2 415.7L832.1 418.8L834.5 420.7L837.1 425.5V430.6L837.9 432.1L842.1 437.3H842.3L840.7 439.3L839.8 442.3L838.8 442.9L837.7 442.7L834.7 441.2L832.8 440.6L830.7 440.8L826.1 442.4L825 442.6L824.3 443.1L822.8 445.5L816.4 444.7L813.8 443.8L811.3 443.4L804.4 443.7L800.7 443L794.9 439.8L791.3 436.7L789.2 434.1L788.3 433.2L787 432.9L785.1 433.3L781.4 433.5L775.3 430.8L772.5 427.7L771.5 426L769.6 420.7L769.2 419.6V416.4L768.4 413.1L767.5 411L766.4 409.2L764.2 407L762.4 403.9L761.3 403.2L758.4 401.7L757.4 400.7L754.7 396.8L753.3 393.5L752.7 391.3L741.5 362.9L740.5 358.8L740.6 355.5L740.9 353.8L741.7 352.3L742.6 351.1L744.1 349.5L746.7 346.2L749 344.2L750.9 343L753.9 342.4L757.6 342.2L759.3 341.7L761.1 340.1L762.1 338.7L764.3 336.8L770.4 336.4L774 341.4L775.3 344L776.3 348.4L777.6 352.2L778.5 353.9L779.6 354.7L780.9 354.1L781.5 352.5V350.2L782.1 346.1V344.7L781.2 341.9L779.1 337.8L778.9 336.6L779.3 335.6L780.7 334.7L798.8 337L800.5 337.6L801.3 338.5L801.6 340.8L802.3 341.7H803.4L804.3 341.1L806 338L806.8 336.7L807.8 335.9L809.5 335.1H811L818.9 337.7L822.8 339.8L825.5 340.5L827.1 340.6L830.6 339.7L831 339.5Z" fill="#E89534" stroke="white" stroke-width="2" stroke-linecap="round" stroke-linejoin="round"/>
<path d="M769 329.4L770.4 336.4L764.3 336.8L762.1 338.7L761.1 340.1L759.3 341.7L757.6 342.2L753.9 342.4L750.9 343L749 344.2L746.7 346.2L744.1 349.5L742.6 351.1L741.7 352.3L740.9 353.8L740.6 355.5L740.5 358.8L741.5 362.9L752.7 391.3L753.3 393.5L754.7 396.8L757.4 400.7L758.4 401.7L761.3 403.2L762.4 403.9L764.2 407L766.4 409.2L767.5 411L768.4 413.1L769.2 416.4V419.6L769.6 420.7L771.5 426L772.5 427.7L775.3 430.8L769.1 433.1L767 434.5L765.1 436.2L762.4 439.7L759.8 443.8L758.8 446.9L754 447.1L751.6 446.8L746.6 445.4L745.5 444.8L744.8 443.7L744.4 441.3L744 440.3L743.2 439.6L741.9 439.3L740.1 439.4L739.2 439.1L738.2 438.1L737 437.4L735.3 437.1L734.3 437.4L733.3 438.2L731.5 440.1L730.5 440.5L729.6 440.3L729.2 438.9L729.5 436.2L729.3 435.2L728.7 434.6L727.2 434.7L726 435.1L723.4 436.6L722.2 437.1L720.8 437.2L719.4 436.7L717.5 435.4L714.8 432.5L714 430.6V427.5L713.4 426.2L711.6 424.8L708.4 423.4L705.9 422.9L704.3 423L703.3 424.1L703.7 425.4L703 427L701.2 426.9L699.7 426.3L697.6 426L696.3 425.5L691.8 422.9L688.2 420.2L685.9 417.3L679.2 411.5L676.8 410.5H675.5L673.1 411.3L671.6 411.4L668.6 411L666.8 409.5L664.7 407.1L657.8 394.9L653.4 388.5L648.7 384L649.6 376.6L651.1 368.9L651.3 366.7L653 361.7L659.7 350.9L671.9 352.7L675.1 351.2L675.4 346.8L675.7 345.4L676.4 344.1L677.6 343L679.3 342.5L689.5 341.8L692.7 342.4L697.3 342.6L699.9 343.3L701.6 343.5L703.7 343H705.5L707.1 343.2L711.2 344.9L712.2 344.7L712.6 344.1L713.4 341.9L714.3 340.9L716.1 340L717.7 339.8L719.1 340.1L724.6 342.1L726 341.8L726.9 341.1L728.1 338.8L729.1 337.6L732 335.7L733.1 334.6L734.9 332.1L736.1 330.8L738.7 329.3L746.5 327.7L749.2 327.6L751.3 328L755.8 330.8L757.7 331L758.9 330.7L759.7 329.9L761.1 328L762.1 327.9L765.8 329L769 329.4Z" fill="#E89534" stroke="white" stroke-width="2" stroke-linecap="round" stroke-linejoin="round"/>
<path d="M557.2 578.2L559.5 580L559.7 581V582.2L557.8 585.4L555.6 591L555.1 592.9L555.5 594.1L557.3 597.5L558.7 601.5L559.8 603.2L561.1 604.3L570.4 605.5L571.9 606L574.9 608.8L577 610.3L577.9 611.3L578.5 612.9L578.9 615.2L579 619L578.7 621.2L579.2 625.4V627.6L579 629.3L578.1 630L575 630.9L574 631.6L573.6 632.8L573.1 635.9L572.6 637.4L571.4 640.1L570.8 641.9L570.6 643.9V646.2L571.5 654.6L574.2 669.9L575.5 673.5L578 677.1L578.6 679L580.4 694L573.9 694.2L572 695.5L570.4 697.1L568.1 698.5L565.7 699.5L563.7 700L561.8 701L559.4 701.3L554.6 701L552.4 701.4L548 703.4L545.6 704L541 703.4L537.1 701.1L533.5 698.3L529.7 696L525.3 695L511.7 693.9L499.2 689.5L476.9 691L472 690.3L467.3 688.6L469.6 685.5L470.8 684.3L472.2 683.3L475.2 681.8L476.1 681L476.3 679.9L475.7 677.7L471.2 670.1L467.4 662.5L464.2 654.1L464.1 651.3L464.7 649.2L466.9 646.2L468.8 645.2L470.6 644.6L472.4 644.5L473.9 644.1L475 643.5L478.1 640.1L479.3 639.2L480.7 638.7L484.3 638L485.6 637.1L486.3 635.8L486.1 633L485.6 630.8L485.4 628.3L485.5 624.4L486.7 619.4L487 616.1L486.7 609.1L485.8 602.6L486 598.8L487.4 595.4L491.9 594.2L497.6 595.7L499.5 595.6L501.1 595.2L503 593.9L504.3 592.3L505.4 591.5L506.4 591.3L509.7 591.8L512.3 591.1L513.8 590.5L516.1 588.2L518.3 586.9L523.1 586H525.5L527.3 586.2L529 586.7L532.4 588.4L534.7 589.3L535.9 589.2L537.7 588.6L539.8 586.6L540.9 585L542.5 582.2L544.6 579.6L545.1 578.8V577.9L544.3 576.4L544.2 575.5L544.8 575L546.3 574.7L548.7 575.2L554.6 578L557.2 578.2Z" fill="#DCDF4B" stroke="white" stroke-width="2" stroke-linecap="round" stroke-linejoin="round"/>
<path d="M630.8 588.8L629.2 593.5L624.2 591.9L623.4 594.2L626.7 602.3L623.9 604.8L618.8 598.1L613 596.8L606 589.3V584.6L613 584V579.3L607.4 576.9L612.5 568L619.6 565.4L620.5 575.3L628.8 577.3L626.2 584.9L630.8 588.8Z" fill="#DCDF4B" stroke="white" stroke-width="2" stroke-linecap="round" stroke-linejoin="round"/>
<path d="M638.1 605.5L643 611.3L652.4 616.9L654.8 619.5L656.2 622.4L657.1 625.6L657.4 629.2L657.1 631.6L656.4 633.6L653.4 638L652.6 639.8L652.3 641.3L652.5 643.4L641.3 645.1L633 648.8L624.5 651L620.8 653L616.9 657.3L615.1 660.2L614.3 662.4L601.6 671.8L600.6 673.5L599.8 675.6L594.8 682L591.6 683.8L588.1 687.4L587.9 688L585.5 692L581.1 693.9L580.4 694L578.6 679L578 677.1L575.5 673.5L574.2 669.9L571.5 654.6L570.6 646.2V643.9L570.8 641.9L571.4 640.1L572.6 637.4L573.1 635.9L573.6 632.8L574 631.6L575 630.9L578.1 630L579 629.3L579.2 627.6V625.4L578.7 621.2L579 619L578.9 615.2L578.5 612.9L577.9 611.3L577 610.3L574.9 608.8L571.9 606L570.4 605.5L561.1 604.3L559.8 603.2L558.7 601.5L557.3 597.5L555.5 594.1L555.1 592.9L555.6 591L557.8 585.4L559.7 582.2V581L559.5 580L557.2 578.2L560.1 574.5L561.2 573.2L563.3 572.1L566.3 571.3L598.8 569.3L601.4 575L601 579.3L600.5 580.9L598.8 584.2L597.8 587.1L596.8 593.8L597.5 596.6L598.6 598.4L601.4 599.8L603.4 600.5L604.9 601.5L605.7 603.3L606.5 604.1L607.4 604.4H609.8L611 605L619 612.2L620.8 613.3L622.4 614.1L624.1 614.5L625.7 614.8L627.1 614.7L628.5 614.4L629.8 613.6L632.4 611.5L638.1 605.5V605.5Z" fill="#DCDF4B" stroke="white" stroke-width="2" stroke-linecap="round" stroke-linejoin="round"/>
<path d="M637 540.6L639 541.2L643.2 541.8L644.3 542.2L644.9 542.9V545.4L645.2 546.6L646 548.1L646.3 549.3L646.5 551.7L647.6 553.1L654.1 556.7L655 557.8L655.3 558.8L654.8 560L654.1 560.8L650 563.7L649.1 564.7L647.9 567L647.4 569.5L647.7 570.7L648.6 572L651.9 573.7L654.4 575.6L652.5 576.9L652.1 577.8L652 579.7L653 580.8L654.5 581.7L656.5 582.4L657.1 583L657.2 583.8L656 586.2L654.8 587.5L648.5 590.5L646.5 591.9L644.7 593.7L642 597.3L639.3 601.6L638.1 605.5L632.4 611.5L629.8 613.6L628.5 614.4L627.1 614.7L625.7 614.8L624.1 614.5L622.4 614.1L620.8 613.3L619 612.2L611 605L609.8 604.4H607.4L606.5 604.1L605.7 603.3L604.9 601.5L603.4 600.5L601.4 599.8L598.6 598.4L597.5 596.6L596.8 593.8L597.8 587.1L598.8 584.2L600.5 580.9L601 579.3L601.4 575L598.8 569.3L601.2 567.4L606.2 561.4L607.2 560L607.7 558.7L607.3 557.5L603.7 556.3L603.3 555.4V554.5L603.7 553.6L606 551.9L606.6 550.9L607 549.4L607.7 547.9L609 546.9L611.6 543.8L612.2 543.2L613 541.5L619.5 541.4L625.9 539.3L628.3 539.4L631.1 540.5L632.6 540.3L637 540.6ZM630.8 588.8L626.2 584.9L628.8 577.3L620.5 575.3L619.6 565.4L612.5 568L607.4 576.9L613 579.3V584L606 584.6V589.3L613 596.8L618.8 598.1L623.9 604.8L626.7 602.3L623.4 594.2L624.2 591.9L629.2 593.5L630.8 588.8Z" fill="#DCDF4B" stroke="white" stroke-width="2" stroke-linecap="round" stroke-linejoin="round"/>
<path d="M611.6 543.8L609 546.9L607.7 547.9L607 549.4L606.6 550.9L606 551.9L603.7 553.6L603.3 554.5V555.4L603.7 556.3L607.3 557.5L607.7 558.7L607.2 560L606.2 561.4L601.2 567.4L598.8 569.3L566.3 571.3L563.3 572.1L561.2 573.2L560.1 574.5L557.2 578.2L554.6 578L548.7 575.2L546.3 574.7L544.8 575L544.2 575.5L544.3 576.4L545.1 577.9V578.8L544.6 579.6L542.5 582.2L540.9 585L539.8 586.6L537.7 588.6L535.9 589.2L534.7 589.3L532.4 588.4L534.7 584.2L535 581.5L534 577.8L533.9 575.8L534.5 574.3L536.4 570.7L536.5 569.4L536.1 568.3L534.3 567.2L531.9 566.8L530.8 566.4L529.9 565.8L527 562.9L525.9 561.4L523.2 556.1L522.9 554.3L523.3 553.1L525.7 551.6L526.1 550.9L524 548.9L522.5 547.1L522.3 545.4L522.6 543.7L524.2 540.8L524.7 539.5L524.9 537.9L525.8 525.7L525.5 523.4L523.8 515.3L523.6 512.4L523.8 509.9L524.4 508.6L527.4 505.1L527.9 503.8V502.4L527.4 500.5L526.2 497.6L522.9 493.8L521.4 491.3L520.3 485.4L520.4 482.5L520.9 480.5L521.4 479.6L522.5 476.9L523.6 475.8L524.3 475.9L525 476.6L526.2 478.6L527 479.3L527.9 479.6L528.9 479.4L529.8 478.7L530.8 477.6L531.6 476L532.6 473.6L533.4 470.5L533.6 467L534.1 464.6L534.7 462.6L535.5 461L537.1 458.3L537.8 456.7L538.3 454.2V452.4L537.9 450.9L537.3 449.5L535.7 446.6L542.1 444.9L544.1 442.4L544.6 440.8L545.5 438.9L546.3 438L548.4 437L550.3 446.4L551 453.1L551.5 454.9L552.2 456.2L555.4 458.6L556.5 459.8L557.7 461.8L558.4 463.6L558.7 465.1L558.4 469.2L558.5 471.3L560.1 474.1L562.2 476.4L563.4 478.2L569.2 489.5L573.6 494.4L574.5 496L574.9 497.6L575.6 504L576.4 507.7L577.2 509.6L578.1 511.2L579.2 512.2L581.5 513.2H582.7L585.6 512.4L586.4 512.8L587.5 514L588.9 516.4L589.4 518.5L589.5 520.6L588.9 524.9L589.3 527.6L590.1 529L591.3 529.9L596.3 530.6L597.9 531.2L599.7 532.2L607 541.2L608.3 542.3L610.4 543.4L611.6 543.8V543.8Z" fill="#6E34E8" stroke="white" stroke-width="2" stroke-linecap="round" stroke-linejoin="round"/>
<path d="M758.8 446.9L758.4 449.8L756.5 453.1L755.8 455.2L755 458.6L754 459.8L752.7 460.1L751.1 459.8H749.5L747.5 460.7L746.8 461.9V463.5L747.3 466.9L746.9 469.1L746.3 469.7L743.6 468.6H742.2L738 469.9H736.7L731.7 469.2L723.3 472.1L721.8 473.4L720.9 474.6L720.8 476.8L722.4 480.9L723.1 481.5L724.1 481.8L725.3 481.5L726.3 480.6L726.6 479.6L726.7 477.6L727.4 477L728.3 476.6L729.3 476.7L730.2 477.2L730.9 478L731.3 479.1L731.4 480.4L731.3 483.4L731.4 485L732 486L734.3 486.9L735.1 487.6L735.8 488.8L735.9 490.3L735.8 494.5L736.2 495.6L737 496.1L738.4 496.3L740.9 496.2L741.9 496.6L742.4 497.5L742.6 498.9L742.5 501.3L742 504.5L740.9 510L740.1 512.6L739.2 514L735.4 515L734.3 515.6L732.9 516.9L732.5 518.3L732.8 519.7L734.9 521.9L735.6 523.7L734.9 530.6L735.3 531.7L733 532.9L732.5 534.4L733.2 535.1L735.1 536.6L735.6 537.4L735.1 538.1L734.1 538.6L731.7 539.2L728.7 540.4L727.2 540.5L726.8 540.1L726.7 538.6L726.9 536.7L726.8 535.6L726.2 534.6L725.2 533.6L723.8 532.7L722.1 531.8L719.6 531.1L718 531.3L716.7 532.1L715.6 533.3L714.1 534.2H712.6L711.2 533.6L708.1 531.6L705.6 530.7L703.5 530.6L699.8 531.3H698.3L695.9 530.5L689.6 529.4L682.6 529.9L680.1 529.7L678.2 529.2L674.7 526.1L672.3 524.9L670.3 521.3L666.3 517.3L665.9 515.8V514.4L666.6 513.3L668.5 511.4L669.4 510.2L669.6 508.1L669 506.8L668.2 505.7L665.8 503.4L664.9 503L662 502.1L660.2 501.1L659.5 499.5L659 497.3L658.8 491.6L658.1 487.2L657.4 485.7L656.5 484.3L654 482.3L652.5 480.6L652.2 478.9L652.6 476.2L652.5 475.1L652 474.8L651.1 475.1L648.6 477.3L647.7 477.1L646.6 476.1L646.1 474.2L645 473.3L643.8 472.9L639.2 473.3L637.7 473L636.2 472.1L635.5 471.1L635.1 470L634.7 467L633.6 465.5L630.6 462.4L630.1 460.8L630.3 459.5L631 458.5L631.1 457.1L630.6 454.8L626.9 446.9L625.5 444.7L624.1 443.3L619.8 440.1L613.4 432.5L619.2 420.1L623.3 418.8L628.5 418.6L629.8 418.1L630.5 417.2L630.9 414.4L631.3 412.9L632.3 411.3L633.3 410.9L634.4 411.1L635.5 411.8L637.4 413.7L638.6 414.3L640.4 414.4L642.3 413.4L643.3 412L644.1 408.5L644.7 406.4L646.4 403.8L647.3 401.8L647.7 399.8L647.9 398.1L648.3 396.3L650.3 392.1L650.5 390.3L650.2 388.6L649.7 387.2L648.7 384L653.4 388.5L657.8 394.9L664.7 407.1L666.8 409.5L668.6 411L671.6 411.4L673.1 411.3L675.5 410.5H676.8L679.2 411.5L685.9 417.3L688.2 420.2L691.8 422.9L696.3 425.5L697.6 426L699.7 426.3L701.2 426.9L703 427L703.7 425.4L703.3 424.1L704.3 423L705.9 422.9L708.4 423.4L711.6 424.8L713.4 426.2L714 427.5V430.6L714.8 432.5L717.5 435.4L719.4 436.7L720.8 437.2L722.2 437.1L723.4 436.6L726 435.1L727.2 434.7L728.7 434.6L729.3 435.2L729.5 436.2L729.2 438.9L729.6 440.3L730.5 440.5L731.5 440.1L733.3 438.2L734.3 437.4L735.3 437.1L737 437.4L738.2 438.1L739.2 439.1L740.1 439.4L741.9 439.3L743.2 439.6L744 440.3L744.4 441.3L744.8 443.7L745.5 444.8L746.6 445.4L751.6 446.8L754 447.1L758.8 446.9V446.9Z" fill="#6E34E8" stroke="white" stroke-width="2" stroke-linecap="round" stroke-linejoin="round"/>
<path d="M613.4 432.5L619.8 440.1L624.1 443.3L625.5 444.7L626.9 446.9L630.6 454.8L631.1 457.1L631 458.5L630.3 459.5L630.1 460.8L630.6 462.4L633.6 465.5L634.7 467L635.1 470L635.5 471.1L636.2 472.1L637.7 473L639.2 473.3L643.8 472.9L645 473.3L646.1 474.2L646.6 476.1L647.7 477.1L648.6 477.3L651.1 475.1L652 474.8L652.5 475.1L652.6 476.2L652.2 478.9L652.5 480.6L654 482.3L656.5 484.3L657.4 485.7L658.1 487.2L658.8 491.6L659 497.3L659.5 499.5L660.2 501.1L662 502.1L664.9 503L665.8 503.4L668.2 505.7L669 506.8L669.6 508.1L669.4 510.2L668.5 511.4L666.6 513.3L665.9 514.4V515.8L666.3 517.3L670.3 521.3L672.3 524.9L669.6 528.3L668.3 530.7L666.4 532.3L665 533.1L663.5 533.5L657.8 533L656.4 533.3L654.9 534.5L653.1 536.6L651.9 537.1L649.6 536.9L647.1 535.5L645.9 535.2L644.4 535.3L640.8 537L637 540.6L632.6 540.3L631.1 540.5L628.3 539.4L625.9 539.3L619.5 541.4L613 541.5L612.2 543.2L611.6 543.8L610.4 543.4L608.3 542.3L607 541.2L599.7 532.2L597.9 531.2L596.3 530.6L591.3 529.9L590.1 529L589.3 527.6L588.9 524.9L589.5 520.6L589.4 518.5L588.9 516.4L587.5 514L586.4 512.8L585.6 512.4L582.7 513.2H581.5L579.2 512.2L578.1 511.2L577.2 509.6L576.4 507.7L575.6 504L574.9 497.6L574.5 496L573.6 494.4L569.2 489.5L563.4 478.2L562.2 476.4L560.1 474.1L558.5 471.3L558.4 469.2L558.7 465.1L558.4 463.6L557.7 461.8L556.5 459.8L555.4 458.6L552.2 456.2L551.5 454.9L551 453.1L550.3 446.4L548.4 437L550.1 435.8L551.5 435.3L569.3 432.1L571.7 432L576.2 432.9L580.7 434.6L582.2 434.9L585.1 433.9L586.5 433.8L587.8 434.6L588.5 435.6L589.9 438L590.8 438.8L592.3 439.1L594.1 438.6L596.1 436.8L597.1 435L597.6 433.1L598.3 429.7L599.2 428.5L600.6 427.9L602.9 428.2L608.5 431.5L613.4 432.5V432.5Z" fill="#6E34E8" stroke="white" stroke-width="2" stroke-linecap="round" stroke-linejoin="round"/>
<path d="M822 600.6L819 608L816.2 611.5L812.7 613.7L797.4 617.5L793.6 620.6L791.5 621.9L787.1 622.7L778.3 622.6L774.2 624L768.6 627.4L767.6 628.5L766.8 629.9L765 631.4L762.8 632.5L761.1 633.1L745 630.5L742.1 633L740.8 634.9L738 635.1L735.8 633.8L724.7 631.6L717 626.8L714.3 628.5L701.9 629.8L691.9 635.8L688.1 636.9H683.4L682.2 637.2L680.1 638.5L679 638.8L676.9 639.1L673.4 640.3L652.5 643.4L652.3 641.3L652.6 639.8L653.4 638L656.4 633.6L657.1 631.6L657.4 629.2L657.1 625.6L656.2 622.4L654.8 619.5L652.4 616.9L643 611.3L638.1 605.5L639.3 601.6L642 597.3L644.7 593.7L646.5 591.9L648.5 590.5L654.8 587.5L656 586.2L657.2 583.8L657.1 583L656.5 582.4L654.5 581.7L653 580.8L652 579.7L652.1 577.8L652.5 576.9L654.4 575.6L662.8 571.2L664.5 570.9L666 571.3L667.5 572.1L670.8 574.6L672.1 575.1L673.6 575.3L675.4 575L678 574.1L679.9 572.7L681.5 570.6L682.2 570L683.2 569.7L684.1 570.1L687.5 573.5L689.3 574.6L691.3 575.2H693.9L695.6 574.9L697.2 574.8L698.4 575.2L701.5 577L703.5 577.4L709.6 576.3L711.7 576.5L714.1 577L721.9 580.3L724.4 580.9L727.6 580.8L733.7 579.7L752.5 580.1L754.4 579.6L757.4 578.4L760.1 578L763.3 578.1L778 580.9L781 582.4L786.9 583.7L788.2 584.3L789.9 585.8L792.1 588.3L796.4 591.3L806.1 595.4L822 600.6Z" fill="#963C3C" stroke="white" stroke-width="2" stroke-linecap="round" stroke-linejoin="round"/>
<path d="M735.3 531.7L744 535.3L745.7 535.5L747.8 535.4L750.2 534.2L752 533.6L753.4 533.8L754.7 534.5L757.7 535.7L786.5 536.5L790.6 535.6L793 534.8L794.8 533.8L797.2 533L802.1 532.5L804.3 532.9L806.2 534.1L807 535.2L810.2 538.2L808.5 539.2L807.4 540.8L806.6 542.9L807.4 545.6L808.9 548.2L810.8 550.3L812.8 551.1L815.4 551.5L817.3 552.5L822.9 558.8L823.3 559.7L823.2 561L822.6 564.5L821.9 566.1V571.3L821.2 572.7L820.1 573.2L820.4 574.4L821.8 575.8L824.1 577.1L826.7 578L828.7 578.4L829.5 579.6L830.4 582.3L831.1 585.3L831.3 587.6L830.1 589.4L825.7 593L824.7 594.1L822 600.6L806.1 595.4L796.4 591.3L792.1 588.3L789.9 585.8L788.2 584.3L786.9 583.7L781 582.4L778 580.9L763.3 578.1L760.1 578L757.4 578.4L754.4 579.6L752.5 580.1L733.7 579.7L727.6 580.8L724.4 580.9L721.9 580.3L714.1 577L711.7 576.5L709.6 576.3L703.5 577.4L701.5 577L698.4 575.2L697.2 574.8L695.6 574.9L693.9 575.2H691.3L689.3 574.6L687.5 573.5L684.1 570.1L683.2 569.7L682.2 570L681.5 570.6L679.9 572.7L678 574.1L675.4 575L673.6 575.3L672.1 575.1L670.8 574.6L667.5 572.1L666 571.3L664.5 570.9L662.8 571.2L654.4 575.6L651.9 573.7L648.6 572L647.7 570.7L647.4 569.5L647.9 567L649.1 564.7L650 563.7L654.1 560.8L654.8 560L655.3 558.8L655 557.8L654.1 556.7L647.6 553.1L646.5 551.7L646.3 549.3L646 548.1L645.2 546.6L644.9 545.4V542.9L644.3 542.2L643.2 541.8L639 541.2L637 540.6L640.8 537L644.4 535.3L645.9 535.2L647.1 535.5L649.6 536.9L651.9 537.1L653.1 536.6L654.9 534.5L656.4 533.3L657.8 533L663.5 533.5L665 533.1L666.4 532.3L668.3 530.7L669.6 528.3L672.3 524.9L674.7 526.1L678.2 529.2L680.1 529.7L682.6 529.9L689.6 529.4L695.9 530.5L698.3 531.3H699.8L703.5 530.6L705.6 530.7L708.1 531.6L711.2 533.6L712.6 534.2H714.1L715.6 533.3L716.7 532.1L718 531.3L719.6 531.1L722.1 531.8L723.8 532.7L725.2 533.6L726.2 534.6L726.8 535.6L726.9 536.7L726.7 538.6L726.8 540.1L727.2 540.5L728.7 540.4L731.7 539.2L734.1 538.6L735.1 538.1L735.6 537.4L735.1 536.6L733.2 535.1L732.5 534.4L733 532.9L735.3 531.7Z" fill="#963C3C" stroke="white" stroke-width="2" stroke-linecap="round" stroke-linejoin="round"/>
<path d="M902.5 552.5L902.1 554.6L902.4 557L903.3 557.6L908.9 556.6L911.4 555.1L913.7 552.8L915.9 550L914.4 546.9L921.7 549.3L923.4 550.5L923.9 553.1L923 556.1L921.2 558.4L918.7 559.2L920.6 556.7L922.3 553.9L922.6 551.4L920.2 550V551.1L920.9 552.1L920.7 552.6L918.7 553.1L917.2 552.1L916.1 552.4L915.1 554.1L913.1 555.7L909.8 559.2L902.8 562.9L901.3 564.2L903.2 560.7L903.5 559.2L901.9 559L900.6 559.3L899.6 560.3L899.2 562.2H900.6L899.9 563.7L900.3 564.9L901.4 565.7L902.8 566.3L898.6 567.6L897 569V571.3L898.5 569.3L900 570.2L901.3 571.3L900.4 573.3L899.2 577.1L898.3 581.1L898.8 584L899.7 584.2L900.5 583.1L901.1 581.5L901.8 578L902.8 576.8L904.9 575.4L908.1 571.1L909.9 569.1L911.8 568.2L913.8 567.7L915.3 566.1L916.2 564.1H916.6L915.6 566.6L908.7 580L903.7 583.8L894.2 596.7L893.1 600L892.8 601.8L891.4 600.8L889.8 601.5L888.4 602.7L887.3 604.4L886.7 606.2L886.4 608.3L886.2 613.9L886.7 615.7L888.4 618.9L889.8 623.5L890.2 625.7L889.8 627L887.8 627.5L886.8 628.6L886.2 630.1L886.9 632.8L888.7 644.7L890.5 652.3L890.3 654.4L889.3 655.8L888.8 658.5L887.3 662.7L886.9 664.7L884.4 669.8L884 671.2L882.3 679.2L881.7 680.6L881.3 682L881.8 683.4L881.4 684.7L881 687.7L881.2 689.3L880.7 690.7L865.5 691.6L843 687.7L821.2 677.7L817.6 674.9L812.9 658L810.4 653.8L804.5 654.5L797.2 658.6L790.3 660.3L785.5 653.7L783.4 649.3L781 648.4L774.7 650.4L754.6 650.6L753.5 649.7L751.4 646.1L750.2 645L744.2 642.1L742 639.6L742.5 636.3L740.8 634.9L742.1 633L745 630.5L761.1 633.1L762.8 632.5L765 631.4L766.8 629.9L767.6 628.5L768.6 627.4L774.2 624L778.3 622.6L787.1 622.7L791.5 621.9L793.6 620.6L797.4 617.5L812.7 613.7L816.2 611.5L819 608L822 600.6L824.7 594.1L825.7 593L830.1 589.4L831.3 587.6L831.1 585.3L830.4 582.3L829.5 579.6L828.7 578.4L826.7 578L824.1 577.1L821.8 575.8L820.4 574.4L820.1 573.2L821.2 572.7L821.9 571.3V566.1L822.6 564.5L823.2 561L823.3 559.7L822.9 558.8L817.3 552.5L815.4 551.5L812.8 551.1L810.8 550.3L808.9 548.2L807.4 545.6L806.6 542.9L807.4 540.8L808.5 539.2L810.2 538.2L811.9 537.9L813.9 537.8L816 538.3L819.1 540.4L821.1 540.8L823.3 540L825.4 538L835 537.2L840.3 539.3L849.4 547.9L854 546.8L856.2 540.4H862.3L867.6 546.8L875.2 550H883.6L890.4 547.9L896.5 551.1L902.5 552.5Z" fill="#963C3C" stroke="white" stroke-width="2" stroke-linecap="round" stroke-linejoin="round"/>
<path d="M822.8 445.5L822.2 448.2L821.9 452.6L821.7 453.7L820.6 455.6L820.1 457.9L818.2 461L824 466.1L827.6 467.6L831.3 466.1L832.6 467.4L833.4 469.2L832.1 471.2L830.5 474.3L830 477.2L831.6 478.5L833.6 479.1L835.7 480.7L837.5 482.7L838.4 484.6L838 486.6L836.8 488.6L835.2 490.1L833.8 490.8L833.5 491.5L834.2 496.3L834.8 497.5L834.7 499.3L833.7 500.9L833.4 502L834.5 507.4L834.6 510.8L833.1 512.3L832.7 513L832.8 520.9L832 522.4L829.2 526.2L828.1 528.5L827.7 532.1L827 535.2L825.4 538L823.3 540L821.1 540.8L819.1 540.4L816 538.3L813.9 537.8L811.9 537.9L810.2 538.2L807 535.2L806.2 534.1L804.3 532.9L802.1 532.5L797.2 533L794.8 533.8L793 534.8L790.6 535.6L786.5 536.5L757.7 535.7L754.7 534.5L753.4 533.8L752 533.6L750.2 534.2L747.8 535.4L745.7 535.5L744 535.3L735.3 531.7L734.9 530.6L735.6 523.7L734.9 521.9L732.8 519.7L732.5 518.3L732.9 516.9L734.3 515.6L735.4 515L739.2 514L740.1 512.6L740.9 510L742 504.5L742.5 501.3L742.6 498.9L742.4 497.5L741.9 496.6L740.9 496.2L738.4 496.3L737 496.1L736.2 495.6L735.8 494.5L735.9 490.3L735.8 488.8L735.1 487.6L734.3 486.9L732 486L731.4 485L731.3 483.4L731.4 480.4L731.3 479.1L730.9 478L730.2 477.2L729.3 476.7L728.3 476.6L727.4 477L726.7 477.6L726.6 479.6L726.3 480.6L725.3 481.5L724.1 481.8L723.1 481.5L722.4 480.9L720.8 476.8L720.9 474.6L721.8 473.4L723.3 472.1L731.7 469.2L736.7 469.9H738L742.2 468.6H743.6L746.3 469.7L746.9 469.1L747.3 466.9L746.8 463.5V461.9L747.5 460.7L749.5 459.8H751.1L752.7 460.1L754 459.8L755 458.6L755.8 455.2L756.5 453.1L758.4 449.8L758.8 446.9L759.8 443.8L762.4 439.7L765.1 436.2L767 434.5L769.1 433.1L775.3 430.8L781.4 433.5L785.1 433.3L787 432.9L788.3 433.2L789.2 434.1L791.3 436.7L794.9 439.8L800.7 443L804.4 443.7L811.3 443.4L813.8 443.8L816.4 444.7L822.8 445.5Z" fill="#963C3C" stroke="white" stroke-width="2" stroke-linecap="round" stroke-linejoin="round"/>
<path d="M902.5 552.5L896.5 551.1L890.4 547.9L883.6 550H875.2L867.6 546.8L862.3 540.4H856.2L854 546.8L849.4 547.9L840.3 539.3L835 537.2L825.4 538L827 535.2L827.7 532.1L828.1 528.5L829.2 526.2L832 522.4L832.8 520.9L832.7 513L833.1 512.3L834.6 510.8L834.5 507.4L833.4 502L833.7 500.9L834.7 499.3L834.8 497.5L834.2 496.3L833.5 491.5L833.8 490.8L835.2 490.1L836.8 488.6L838 486.6L838.4 484.6L837.5 482.7L835.7 480.7L833.6 479.1L831.6 478.5L830 477.2L830.5 474.3L832.1 471.2L833.4 469.2L832.6 467.4L831.3 466.1L827.6 467.6L824 466.1L818.2 461L820.1 457.9L820.6 455.6L821.7 453.7L821.9 452.6L822.2 448.2L822.8 445.5L824.3 443.1L825 442.6L826.1 442.4L830.7 440.8L832.8 440.6L834.7 441.2L837.7 442.7L838.8 442.9L839.8 442.3L840.7 439.3L842.3 437.3L844.7 437L847.8 438.7L849.9 441.6L849.3 444.6L852.4 452.7L854.5 456.4L856.9 458L858.7 458.5L862.4 460.6L871.8 463L880.5 467.6L894.6 470.8L898.5 470.3L901.8 470.2L903.2 469.6L904.3 468.2L901.4 466.9L900.6 466.2L899.8 463.7L900 462.6L903 461L902.9 458.8L903 456.6L905.8 455.9L907.4 456.5L910.2 458.5L912.6 458.9L913.9 459.9L915.7 461.8L917.8 463L920.2 462.1L920.7 461.1L921 458.2L921.6 456.9L923.3 456L925.7 455.9L927.1 455.2L932.5 450.7L936.8 449.5L938.6 448.7L940.1 447.1L941 446.7L943.6 446.5L944.1 446.1L944.5 445L945.4 443.9L947 442.5L949.3 441.3L951 441.2L952.7 441.5H954.9L956.8 440.5L958.2 438.9L959.2 438.2L960.3 438.5L962.5 439.4L970.6 440.3L985.3 445.6L990.2 450L991.5 450.7L993.8 452.9L995.6 458.1L996.1 463.9L994.7 468.2L995.4 469.2L995.5 470.3L994.7 472.5L993.8 472.3L991 472.4V473.3L992.6 475.5L993.7 478.2L995.6 480.2L999 480.6L996.6 483.1L995.3 487.3L994.4 500.4L993.8 503L992.5 507.2L992.2 509.3L992 511.7L991.8 513.9L991 515.3L991.7 518.5L989 522.7L990.4 525.4L989.7 527.2L988.8 527.8L987.8 528L986.8 528.6L985.3 530.9L984.5 531.6L982.4 530.4L981.2 530.7L979.1 531.5L958.5 534.8L945.4 535.6L941.6 536.9L931.1 544.2L928 547.3L925.3 551.1L924.5 550L924.6 547.8L923.2 545.1L922.5 542.8L924.9 541.8L927.4 541.3L931.3 539.3L935.5 538.2L937.9 536.6L939.8 534L940.4 530.6L939.8 528.7L938.5 526.8L935.3 523.4L935.9 525.8L936.1 528.6L934.5 528.2L932.9 529.3L931.5 529.8L930.3 527.6L929.8 524.8L929.6 515.9L930.7 513L935.6 511.2L936.8 509.2L935.9 507.7L931.3 504.6L929.9 504H926.7L923.4 502.9L922.3 503.1L921.6 505.3L921 506.6L919.8 507.2L917.5 507.4L916.4 507.8L912.5 511.5L911.4 513.2L910.8 516.4L910.9 517.2L911.9 518L912.2 519L911.9 519.8L910.8 520.9L911.1 522.3L911.8 523.4L912.7 524.2L915 525.2L920.2 530.6L918.8 532.1L917.3 532.6L918.7 533.6V534.8L917.4 535.6L917.3 537L918.1 538.5L919.5 539.7L918.5 540.5L917.1 540.9L912.4 541L911.3 541.5L905 545.4L903.9 546.4L902.9 548.5L902.7 550.4L903.4 551.2L904.9 550L904.5 551.8L902.5 552.5Z" fill="#963C3C" stroke="white" stroke-width="2" stroke-linecap="round" stroke-linejoin="round"/>
</svg>
