<svg fill="none" viewBox="0 0 1000 705" id="masterWrapper" xmlns="http://www.w3.org/2000/svg" xmlns:svg="http://www.w3.org/2000/svg" class="s-iTainFd-NpUU"><path id="path2" d="M 203.09961 107.19922 L 202.5 108.5 L 201.09961 109.59961 L 195.90039 110.90039 L 189.40039 115.80078 L 186.30078 119.30078 L 184.30078 123.09961 L 184.5 128 L 185.5 133.40039 L 185.59961 138.59961 L 183.5 142.90039 L 178.80078 144.30078 L 176.90039 145.40039 L 175 147.59961 L 170.90039 153.59961 L 170.30078 155.40039 L 169 161 L 168.5 162.40039 L 167.30078 164.69922 L 166.80078 166.40039 L 166.80078 168.19922 L 167.09961 171.09961 L 166.40039 173 L 165.5 174.19922 L 163.19922 176.5 L 162.19922 177.90039 L 161.69922 179.30078 L 161.19922 182.09961 L 160.5 183.5 L 158.40039 185.59961 L 153.19922 189 L 150.80078 191.30078 L 146.69922 196.19922 L 147.09961 197.59961 L 149 198.19922 L 149.69922 198.80078 L 150.80078 200.80078 L 150.40039 200.90039 L 148.30078 208.59961 L 147.5 209.69922 L 142.59961 213.69922 L 142 214.30078 L 141.90039 216.09961 L 142 218 L 142.30078 219.59961 L 142.40039 221.30078 L 141.5 223.30078 L 140.40039 224.19922 L 136.5 225.30078 L 134.30078 227.30078 L 133 229.80078 L 130.69922 236.09961 L 129.90039 237.59961 L 129.59961 239.40039 L 130.40039 240.5 L 133.19922 242.5 L 132.90039 245.5 L 130.90039 248.40039 L 128.80078 249.59961 L 125.90039 250.09961 L 124.59961 252.5 L 123.90039 254.5 L 121.69922 257.40039 L 119.40039 258.59961 L 115.5 258.30078 L 113.30078 258.90039 L 111.69922 260.80078 L 111.09961 263.69922 L 110.69922 269.59961 L 109.30078 272.40039 L 107.5 274.80078 L 106 277.19922 L 105.80078 280.30078 L 108.90039 286.19922 L 109.5 289.59961 L 107.09961 291.5 L 102.59961 291.69922 L 100.59961 292.40039 L 98.800781 294.5 L 97.699219 297.80078 L 97.300781 304.59961 L 96.400391 307.59961 L 95.199219 309.90039 L 94.099609 310.69922 L 91.099609 310.69922 L 90.400391 311 L 85.300781 317.19922 L 83.400391 317.90039 L 81.400391 316.09961 L 80.599609 315.19922 L 79.800781 314.80078 L 78.900391 314.80078 L 78 315.19922 L 75.900391 315.30078 L 71.900391 313.59961 L 70 313.19922 L 67.800781 314.30078 L 66.699219 314.40039 L 65.900391 314 L 64 312.30078 L 63 311.80078 L 60.900391 311.69922 L 58.699219 312.40039 L 56.5 313.5 L 52.400391 317 L 51.900391 317.80078 L 52 319.19922 L 53 322.59961 L 53 323.90039 L 52.099609 324.69922 L 50.099609 324.19922 L 49.300781 324.5 L 48.800781 325.59961 L 48.699219 327.5 L 48.099609 329.30078 L 46.5 331.09961 L 44.400391 332.19922 L 38.5 333.40039 L 37.699219 333.40039 L 36.400391 332.90039 L 35.400391 332.19922 L 32.300781 329.40039 L 28.099609 327.59961 L 23.800781 326.59961 L 21.199219 330.80078 L 4.3007812 331.30078 L 0 336.69922 L 6.5996094 345 L 7.9003906 347.30078 L 10.099609 354.19922 L 11.699219 356.69922 L 13.5 358 L 17.699219 359.90039 L 19.699219 361.19922 L 25.199219 366.40039 L 27.099609 367.30078 L 31.199219 367.80078 L 33.099609 368.59961 L 34.800781 370.19922 L 38.300781 376.5 L 39 377.19922 L 40.800781 378.40039 L 41.599609 379.40039 L 41.900391 380.59961 L 42.199219 383.69922 L 42.5 385.19922 L 43.599609 386.90039 L 46 390 L 47 392.09961 L 48.300781 393.30078 L 49.699219 393.59961 L 51.099609 393.09961 L 52.400391 392 L 53 390.30078 L 54 389 L 55.099609 388.5 L 56.400391 389.19922 L 57.300781 390.69922 L 57.300781 392 L 56.599609 395 L 56.699219 402.90039 L 56.400391 405 L 56 406.30078 L 54.800781 409.09961 L 54 412.90039 L 54.400391 415.30078 L 57.5 420.69922 L 58.800781 424.19922 L 58.5 426.30078 L 57 427.90039 L 54.699219 429.80078 L 55.300781 431.90039 L 56.900391 432.90039 L 58.699219 433.5 L 60.5 434.40039 L 62 435.90039 L 65.5 441 L 72.300781 447.19922 L 76.300781 452.59961 L 78 453.90039 L 86.699219 457.90039 L 87.699219 458.80078 L 89.599609 460.59961 L 90.800781 460.90039 L 91.800781 460.5 L 93.5 458.59961 L 94.599609 458.30078 L 96.300781 459.59961 L 99.900391 464.90039 L 101.69922 467 L 105.19922 469.40039 L 107 470.19922 L 111.5 470.40039 L 122.69922 473.90039 L 125.69922 475.5 L 128.40039 477.69922 L 131 480.90039 L 133.09961 479.80078 L 135 477.19922 L 136.09961 474.59961 L 136.09961 473.09961 L 135.5 469 L 135.5 467.40039 L 135.80078 466.19922 L 137.90039 463.59961 L 138.40039 461.80078 L 138 459.5 L 138 457.5 L 137.09961 455.40039 L 136.30078 454.40039 L 134.19922 452.69922 L 130.59961 448.90039 L 129.90039 447.80078 L 129.5 445.19922 L 129.80078 444 L 130.90039 441.90039 L 131.30078 440.5 L 131.30078 439.19922 L 131.09961 436.40039 L 132.09961 435 L 134 433.40039 L 138.5 430.90039 L 139.90039 429.30078 L 140.69922 427.80078 L 140.90039 424.59961 L 141.40039 423 L 142.40039 421.40039 L 144.19922 420.19922 L 147.19922 419.09961 L 150.5 419.09961 L 152.19922 419.59961 L 154.19922 420.80078 L 156.59961 421.5 L 158.90039 422.80078 L 160.19922 424.5 L 161 425.19922 L 162.90039 425.19922 L 165.5 424.5 L 170.30078 422.30078 L 174.09961 419.90039 L 175.09961 419.69922 L 176.69922 420.19922 L 177.69922 421 L 178.5 422.19922 L 179.5 424.69922 L 180.80078 426.90039 L 181.69922 427.59961 L 182.80078 428.19922 L 184.19922 428.40039 L 186.30078 428.09961 L 188.40039 427.30078 L 191 425.40039 L 191.69922 424.5 L 191.59961 423.90039 L 190.19922 423.80078 L 189.19922 423.30078 L 189 422.59961 L 188.5 419.80078 L 188.69922 419 L 189.30078 418.5 L 193 418.5 L 195.5 418.09961 L 197.69922 417.30078 L 200.30078 415.59961 L 203 413.19922 L 204.09961 412.69922 L 205.5 413 L 206.30078 413.59961 L 207.59961 415.09961 L 209.19922 415.69922 L 210.69922 415.5 L 213.30078 415.80078 L 214 415.30078 L 216.90039 409.19922 L 220.80078 406.40039 L 232.40039 404.19922 L 233.30078 403.80078 L 234.09961 402.59961 L 234.90039 398.69922 L 235.40039 397.30078 L 236.19922 395.69922 L 237.40039 394.40039 L 241.69922 390.5 L 242.5 389.30078 L 242.80078 388.19922 L 242.5 387.19922 L 241.40039 386.5 L 239.80078 386.69922 L 238.5 387.40039 L 237.59961 386.90039 L 236.69922 385.59961 L 234.80078 380.69922 L 233.69922 378.80078 L 232.90039 377.80078 L 230 375.5 L 229 374 L 227.80078 369.90039 L 227.5 367.09961 L 226.5 364.59961 L 222.90039 360.80078 L 227.80078 354.40039 L 229 351.80078 L 229.69922 349.30078 L 229.80078 347.40039 L 229.5 345.90039 L 228.40039 342.30078 L 228.69922 340.80078 L 229.30078 338.90039 L 230.80078 335.80078 L 231.30078 333.5 L 231.5 331.30078 L 231.19922 326.30078 L 231.69922 324.59961 L 232.59961 323.09961 L 235.09961 320.90039 L 236.5 320 L 238.40039 319.80078 L 244.30078 321.19922 L 246.30078 321.40039 L 248.80078 321 L 250.80078 319.90039 L 253 317.90039 L 255.40039 313.90039 L 256.40039 311.40039 L 258.19922 307.40039 L 265.09961 302.19922 L 260 296.90039 L 258.09961 288.80078 L 257.90039 279.40039 L 258.5 275.80078 L 259.59961 271.90039 L 261 269.09961 L 262.30078 267.5 L 263.5 266.80078 L 266.19922 266.5 L 268.59961 267.09961 L 270.19922 268.09961 L 270.19922 262.30078 L 270.69922 258.5 L 270.19922 257.19922 L 269.19922 256.30078 L 267.09961 254.59961 L 266.09961 252.69922 L 264.30078 245.5 L 262.90039 242.30078 L 261.5 240.09961 L 257.30078 236.30078 L 256 234.5 L 255.69922 233.09961 L 255.90039 231.80078 L 256.5 230.69922 L 257.40039 229.59961 L 258.59961 228.80078 L 262.5 227 L 263.40039 226.30078 L 264.69922 224 L 265.80078 220.5 L 266.19922 217.59961 L 265.69922 216 L 264.30078 214.90039 L 259 212.80078 L 258.09961 212.09961 L 257.90039 211.09961 L 258.30078 209.59961 L 260.59961 205.09961 L 261.40039 203 L 259.59961 199.90039 L 255.5 195.80078 L 248.90039 192 L 247.80078 190.69922 L 247 189.5 L 246.59961 188.19922 L 243.5 182.09961 L 239 175 L 237.69922 171.69922 L 237.59961 169.59961 L 239.40039 167.69922 L 242.09961 163.69922 L 242.69922 162.5 L 243 161.30078 L 243.30078 158.69922 L 243.80078 157.40039 L 245 155.5 L 245.59961 154.19922 L 246.69922 149.90039 L 245.69922 147.09961 L 245 143.19922 L 244 141.40039 L 242.69922 140.30078 L 239.59961 138.5 L 237.90039 137 L 236.40039 136 L 235.30078 135.69922 L 234.19922 136 L 231.69922 137.40039 L 230.69922 137.59961 L 229.09961 137.30078 L 227.19922 137.30078 L 225.30078 137.80078 L 223.5 137.40039 L 222.5 136.69922 L 221.90039 135.5 L 220.69922 132.19922 L 219.80078 130.40039 L 216.80078 125.69922 L 215.09961 122.59961 L 213.5 120.40039 L 209.19922 117.09961 L 208 115.90039 L 207.09961 114.40039 L 205.80078 111.30078 L 203.09961 107.19922 z " class="s-iTainFd-NpUU"></path><path id="path8" d="M 265.09961 302.19922 L 258.19922 307.40039 L 256.40039 311.40039 L 255.40039 313.90039 L 253 317.90039 L 250.80078 319.90039 L 248.80078 321 L 246.30078 321.40039 L 244.30078 321.19922 L 238.40039 319.80078 L 236.5 320 L 235.09961 320.90039 L 232.59961 323.09961 L 231.69922 324.59961 L 231.19922 326.30078 L 231.5 331.30078 L 231.30078 333.5 L 230.80078 335.80078 L 229.30078 338.90039 L 228.69922 340.80078 L 228.40039 342.30078 L 229.5 345.90039 L 229.80078 347.40039 L 229.69922 349.30078 L 229 351.80078 L 227.80078 354.40039 L 222.90039 360.80078 L 226.5 364.59961 L 227.5 367.09961 L 227.80078 369.90039 L 229 374 L 230 375.5 L 232.90039 377.80078 L 233.69922 378.80078 L 234.80078 380.69922 L 236.69922 385.59961 L 237.59961 386.90039 L 238.5 387.40039 L 239.80078 386.69922 L 241.40039 386.5 L 242.5 387.19922 L 242.80078 388.19922 L 242.5 389.30078 L 241.69922 390.5 L 237.40039 394.40039 L 236.19922 395.69922 L 235.40039 397.30078 L 234.90039 398.69922 L 234.09961 402.59961 L 233.30078 403.80078 L 232.40039 404.19922 L 220.80078 406.40039 L 216.90039 409.19922 L 214 415.30078 L 213.30078 415.80078 L 210.69922 415.5 L 209.19922 415.69922 L 207.59961 415.09961 L 206.30078 413.59961 L 205.5 413 L 204.09961 412.69922 L 203 413.19922 L 200.30078 415.59961 L 197.69922 417.30078 L 195.5 418.09961 L 193 418.5 L 189.30078 418.5 L 188.69922 419 L 188.5 419.80078 L 189 422.59961 L 189.19922 423.30078 L 190.19922 423.80078 L 191.59961 423.90039 L 191.69922 424.5 L 191 425.40039 L 188.40039 427.30078 L 186.30078 428.09961 L 184.19922 428.40039 L 182.80078 428.19922 L 181.69922 427.59961 L 180.80078 426.90039 L 179.5 424.69922 L 178.5 422.19922 L 177.69922 421 L 176.69922 420.19922 L 175.09961 419.69922 L 174.09961 419.90039 L 170.30078 422.30078 L 165.5 424.5 L 162.90039 425.19922 L 161 425.19922 L 160.19922 424.5 L 158.90039 422.80078 L 156.59961 421.5 L 154.19922 420.80078 L 152.19922 419.59961 L 150.5 419.09961 L 147.19922 419.09961 L 144.19922 420.19922 L 142.40039 421.40039 L 141.40039 423 L 140.90039 424.59961 L 140.69922 427.80078 L 139.90039 429.30078 L 138.5 430.90039 L 134 433.40039 L 132.09961 435 L 131.09961 436.40039 L 131.30078 439.19922 L 131.30078 440.5 L 130.90039 441.90039 L 129.80078 444 L 129.5 445.19922 L 129.90039 447.80078 L 130.59961 448.90039 L 134.19922 452.69922 L 136.30078 454.40039 L 137.09961 455.40039 L 138 457.5 L 138 459.5 L 138.40039 461.80078 L 137.90039 463.59961 L 135.80078 466.19922 L 135.5 467.40039 L 135.5 469 L 136.09961 473.09961 L 136.09961 474.59961 L 135 477.19922 L 133.09961 479.80078 L 131 480.90039 L 132 482.09961 L 132.40039 484.09961 L 132.09961 485.90039 L 130.69922 487.09961 L 129.40039 487.19922 L 128.30078 487.69922 L 127.40039 488.69922 L 126.59961 489.90039 L 126.80078 491 L 126.69922 492.90039 L 125.19922 495.19922 L 124.40039 499.09961 L 123.09961 500.19922 L 122 500.59961 L 119.30078 500.80078 L 118.30078 501.30078 L 117.5 502.5 L 117 504 L 117.19922 505.30078 L 118.59961 505.69922 L 120.40039 505.80078 L 120.80078 506.5 L 120.59961 508.30078 L 123 510 L 128.09961 510.90039 L 130.69922 512.19922 L 134.40039 513.59961 L 135.90039 515 L 136.80078 517.40039 L 136.5 520.30078 L 135 521.5 L 130.69922 522.80078 L 127.80078 523.19922 L 121.59961 522.90039 L 118.80078 523.90039 L 117.40039 525.19922 L 116.5 526.80078 L 116.09961 528.80078 L 118 529.59961 L 119.90039 531.09961 L 121.69922 535 L 123.40039 535.80078 L 132.40039 536.80078 L 138.80078 536.30078 L 140.90039 536.90039 L 142.80078 538.59961 L 143.69922 541 L 144.30078 543.69922 L 145.30078 546.40039 L 149.19922 550.30078 L 154.30078 551.80078 L 159.80078 551.80078 L 164.5 550.80078 L 168.40039 549.19922 L 170.19922 548.69922 L 171.90039 549 L 181.5 554 L 184.80078 554.59961 L 185.90039 555.59961 L 188.80078 562.80078 L 189.09961 563.80078 L 189.59961 566.69922 L 190.19922 567.80078 L 191.30078 568.90039 L 192.5 569.59961 L 193.5 570.59961 L 194.59961 574.90039 L 196.40039 576.69922 L 198.80078 577.69922 L 201.09961 578 L 203.59961 577.30078 L 205 575.90039 L 217 554.09961 L 217.59961 551.80078 L 219.19922 550.59961 L 223.59961 549.59961 L 225.59961 548.40039 L 229.30078 544.30078 L 230.40039 543.40039 L 233 543.5 L 234.90039 544 L 236.5 544.90039 L 243.80078 553 L 247.40039 556 L 251 557.69922 L 259.30078 558.69922 L 260.90039 559.90039 L 266.19922 565.80078 L 265.59961 568.5 L 263.69922 570.40039 L 261.40039 571.5 L 259.30078 571.90039 L 257 571.30078 L 253.19922 568.69922 L 251 567.80078 L 248.80078 567.80078 L 246.69922 568.40039 L 245.09961 569.90039 L 244.5 572.40039 L 244.19922 574.90039 L 243.30078 576.40039 L 242 577 L 238.19922 577.19922 L 237.30078 577.5 L 236.5 578.09961 L 236.09961 579.5 L 235.80078 581.5 L 235.80078 583.40039 L 236.09961 584.59961 L 238.30078 586.69922 L 238.80078 587.69922 L 238.90039 588.80078 L 238.59961 591.19922 L 238.69922 592.30078 L 240.59961 596.59961 L 243.40039 600.40039 L 246.90039 603.5 L 251 605.30078 L 255.40039 605.90039 L 257.40039 606.90039 L 258.19922 608.90039 L 257.80078 616 L 258.30078 618.09961 L 281.09961 633.69922 L 284.90039 635.40039 L 289.69922 636.09961 L 291.90039 637 L 300.5 627.90039 L 303.80078 627 L 304.90039 627.19922 L 305.69922 626.69922 L 306.09961 624.90039 L 306.09961 623.19922 L 305.80078 621.40039 L 305.09961 619 L 304.90039 617.09961 L 305.19922 615.40039 L 307.40039 610.59961 L 307.69922 609.40039 L 308.19922 605.69922 L 308.69922 603.09961 L 309.30078 601.19922 L 310.19922 599.90039 L 315.80078 596.69922 L 317.19922 596.5 L 319.30078 596.90039 L 319.90039 596.69922 L 320.09961 595.69922 L 319.80078 594.90039 L 318.40039 593.80078 L 315.09961 593.40039 L 313.90039 593.09961 L 313.09961 592.5 L 312.69922 591.5 L 312.69922 590.5 L 313.5 587.30078 L 313.69922 586.09961 L 314.09961 585.30078 L 314.90039 584.5 L 317 583.80078 L 318.59961 583 L 320 581.40039 L 321.40039 579.30078 L 323.69922 577.30078 L 323.69922 576.69922 L 321.30078 575.80078 L 321.69922 575.30078 L 323.09961 574.59961 L 329.69922 574.19922 L 331 573.30078 L 332.69922 572.59961 L 335.30078 572 L 341.09961 572.30078 L 342.59961 570.59961 L 352.30078 563.80078 L 362.30078 560.59961 L 367.30078 560.30078 L 368.19922 559.69922 L 368.69922 558.90039 L 368.69922 556.69922 L 368.30078 554 L 368.69922 551.80078 L 368.80078 550.09961 L 368.30078 546.30078 L 368.59961 544.09961 L 369.09961 543.5 L 370.40039 543.40039 L 371.80078 544 L 372.80078 545.09961 L 374.30078 536.5 L 374.69922 528.59961 L 373.19922 511.5 L 373.40039 508.59961 L 373.90039 506.59961 L 375.09961 503.30078 L 378 491.59961 L 378.09961 489.59961 L 377.69922 484.5 L 378.09961 482.30078 L 379.80078 477.30078 L 380 475.5 L 379.5 473.40039 L 378.40039 470.69922 L 377.59961 466.59961 L 377.80078 463.69922 L 379.19922 457.90039 L 378.69922 456.19922 L 377.90039 455 L 376.09961 453.59961 L 374.30078 453.19922 L 367.80078 453.90039 L 365.90039 453.80078 L 364.30078 453.5 L 362.30078 452.40039 L 361.09961 452 L 356 452 L 352.80078 451 L 354.30078 446.59961 L 354 444.90039 L 352.5 440.40039 L 352.30078 439 L 352.59961 436.69922 L 352.80078 431.69922 L 352.19922 429.09961 L 351.5 428.19922 L 346.30078 423.09961 L 344 420.5 L 342.19922 419.19922 L 338.09961 417.19922 L 335.59961 415.19922 L 334.30078 413.30078 L 333.19922 410.69922 L 332.80078 409.19922 L 332.69922 407.90039 L 333.69922 404.59961 L 333.30078 403.19922 L 331.09961 400.5 L 330.5 399.40039 L 330.30078 398.09961 L 330.59961 395.30078 L 330.19922 393 L 329.30078 389.80078 L 327 383.5 L 324.30078 371.80078 L 323.40039 370.09961 L 320.59961 366.69922 L 318.90039 363.90039 L 314.80078 353.19922 L 313.59961 352.19922 L 311.5 351.90039 L 309 350.69922 L 298.80078 337.19922 L 297.80078 334.90039 L 298.40039 333.80078 L 299.09961 333.59961 L 300.59961 334.09961 L 301.09961 333.5 L 301 332 L 299.30078 327.5 L 298 325.09961 L 296.59961 323.19922 L 295.5 322.40039 L 294.19922 321.80078 L 289.40039 321.09961 L 288.19922 320.59961 L 287.5 319.69922 L 285.69922 313 L 284 308.59961 L 282.90039 306.40039 L 281.90039 305.09961 L 280.90039 304.80078 L 271.19922 305.80078 L 270.30078 305.5 L 265.09961 302.19922 z " class="s-iTainFd-NpUU"></path><path id="path16" d="M 488.40039 109 L 484.80078 110.30078 L 480.5 114.40039 L 478.80078 115.59961 L 476.59961 116.30078 L 456.80078 117 L 437 112.30078 L 435.09961 112.80078 L 427.80078 116.09961 L 426.30078 117.30078 L 425.5 118.69922 L 423.40039 123.5 L 422.40039 124.80078 L 420.19922 126.19922 L 411.30078 128.09961 L 409.80078 128.80078 L 409.30078 129.59961 L 408.90039 132.90039 L 408.5 134.40039 L 407.80078 135.90039 L 401.40039 145.40039 L 397.30078 149.40039 L 379.80078 148 L 376.80078 150.59961 L 378.40039 153.09961 L 378.30078 155.30078 L 377.59961 156.69922 L 377.09961 158.5 L 376.59961 161.5 L 376.69922 164.5 L 375.80078 165.90039 L 374.19922 166.5 L 368 167.19922 L 364.5 168.30078 L 360.80078 170.30078 L 359.19922 172.19922 L 358.19922 174.09961 L 357.5 176 L 356.59961 176.69922 L 355.59961 176.69922 L 354.5 176.19922 L 353.30078 176.09961 L 352 176.5 L 349.59961 178.09961 L 344.69922 180.09961 L 344.40039 181.09961 L 344 183.69922 L 343.19922 185.09961 L 342.30078 187.69922 L 341.69922 188.19922 L 339.5 188.80078 L 338.90039 189.59961 L 338.80078 190.59961 L 339.19922 191.59961 L 340.59961 193.40039 L 341.09961 194.5 L 342.09961 197.90039 L 342.19922 199.09961 L 341.80078 200.59961 L 340.80078 201.5 L 339.19922 201.90039 L 337.80078 202.09961 L 335.5 202 L 334.19922 202.19922 L 333 202.90039 L 332.5 203.80078 L 332.09961 205.80078 L 331.5 206.09961 L 329.69922 205.40039 L 328.59961 205.40039 L 327.09961 206.09961 L 326.59961 207.09961 L 327 208.5 L 329 210.80078 L 329.5 212.19922 L 329.5 213.59961 L 328.59961 215.80078 L 327.59961 216.5 L 326.59961 216.59961 L 324.5 214.19922 L 323.59961 213.90039 L 322.5 213.90039 L 320.30078 214.69922 L 319.40039 214.40039 L 318.80078 213.69922 L 318.09961 211.40039 L 317.40039 210.19922 L 316.5 209.59961 L 315.30078 209.80078 L 314.59961 210.90039 L 313.09961 213.69922 L 312.80078 214.80078 L 313 217.30078 L 312.69922 218.59961 L 311.69922 219.19922 L 310.40039 219.30078 L 308 218.40039 L 306.80078 218.19922 L 305.30078 218.5 L 303.19922 219.30078 L 301.40039 219.59961 L 297.5 218.5 L 296.19922 218.59961 L 293.90039 219 L 292.90039 219 L 292.09961 218.40039 L 291.09961 216.80078 L 290.30078 216.19922 L 289.30078 215.80078 L 285.40039 215.40039 L 284.09961 214.90039 L 283 213.59961 L 281.90039 211.59961 L 280.09961 207 L 279.30078 205.5 L 278.19922 204.59961 L 277.09961 204 L 275.19922 203.69922 L 262.59961 203.40039 L 261.40039 203 L 260.59961 205.09961 L 258.30078 209.59961 L 257.90039 211.09961 L 258.09961 212.09961 L 259 212.80078 L 264.30078 214.90039 L 265.69922 216 L 266.19922 217.59961 L 265.80078 220.5 L 264.69922 224 L 263.40039 226.30078 L 262.5 227 L 258.59961 228.80078 L 257.40039 229.59961 L 256.5 230.69922 L 255.90039 231.80078 L 255.69922 233.09961 L 256 234.5 L 257.30078 236.30078 L 261.5 240.09961 L 262.90039 242.30078 L 264.30078 245.5 L 266.09961 252.69922 L 267.09961 254.59961 L 269.19922 256.30078 L 270.19922 257.19922 L 270.69922 258.5 L 270.19922 262.30078 L 270.19922 268.09961 L 273.40039 270.90039 L 288.19922 271.30078 L 290.59961 272 L 292.09961 273 L 293.59961 276 L 294.59961 277 L 296.80078 278.80078 L 297.30078 279.59961 L 297.69922 282.40039 L 298.40039 283.5 L 299.09961 283.59961 L 299.90039 283.19922 L 301.09961 281.5 L 301.90039 280.69922 L 306.19922 278 L 307.19922 277.69922 L 309.19922 277.59961 L 314 279.19922 L 315.80078 279.40039 L 317.09961 279.19922 L 318.09961 278.59961 L 319.19922 277.59961 L 323 274.69922 L 333.59961 272.59961 L 335.40039 273.09961 L 336.90039 273.90039 L 342.80078 278.19922 L 348 280.40039 L 350.30078 280.80078 L 352.19922 280.90039 L 355.59961 280.59961 L 356.80078 281 L 357.5 281.90039 L 357.5 283.09961 L 355.80078 285.90039 L 355.30078 287.09961 L 355.40039 288.40039 L 356.19922 289.90039 L 358.40039 291.40039 L 360.09961 292 L 361.59961 292.09961 L 362.30078 291.59961 L 362.5 290.69922 L 362.09961 288.69922 L 362.09961 287.69922 L 362.69922 287 L 363.90039 286.69922 L 368.90039 286.59961 L 370.09961 286.40039 L 372.09961 285.40039 L 373.19922 285.09961 L 377.90039 285.30078 L 379.5 285.09961 L 383.40039 284.09961 L 385.5 284.40039 L 392.09961 286.5 L 393.5 286.5 L 395.19922 285.69922 L 396 284.5 L 399.30078 284.69922 L 400.90039 285.80078 L 402.09961 287.19922 L 402.69922 289 L 402.30078 290.40039 L 401.5 291.59961 L 400.19922 292.80078 L 399.30078 293.90039 L 398.80078 295.69922 L 399.30078 296.90039 L 402.59961 300.5 L 403.59961 301.19922 L 409.40039 303.69922 L 411.59961 305.5 L 412.69922 307.80078 L 413.5 312.59961 L 415.09961 314.80078 L 416.80078 315.90039 L 424.59961 315.90039 L 428.40039 315.09961 L 434.19922 317.5 L 436.19922 317.80078 L 438.30078 317.30078 L 440 316.59961 L 443.30078 315.90039 L 450.69922 316.40039 L 452.80078 316.30078 L 454.09961 315.59961 L 455.59961 313.80078 L 456.90039 312.90039 L 458.30078 312.90039 L 461.09961 313.80078 L 463.09961 314 L 464.59961 313.59961 L 466.69922 312.5 L 467.59961 312.59961 L 468 313.09961 L 467.69922 314 L 467 315 L 466.5 316.30078 L 466.40039 317.69922 L 467.09961 321.80078 L 467.59961 330.59961 L 468.19922 334.5 L 469.30078 337.90039 L 471.19922 340.19922 L 472.59961 340.90039 L 474 340.90039 L 475.19922 340.5 L 477.59961 340.5 L 478.40039 340.09961 L 479.59961 339.09961 L 480.40039 338.80078 L 483.69922 338.59961 L 487.09961 337.69922 L 488.59961 337.5 L 490.90039 337.80078 L 492.30078 338.40039 L 494 339.59961 L 495.09961 340.59961 L 500.09961 343.5 L 499.5 340.30078 L 500.5 337.40039 L 501.59961 336.19922 L 503.90039 334.19922 L 505.40039 333.40039 L 506.90039 332.90039 L 516.59961 332.5 L 521.90039 331.30078 L 513.59961 322.40039 L 508 318.09961 L 506.30078 317.40039 L 501.30078 317.59961 L 499.30078 316.90039 L 497.40039 315.09961 L 489 304.90039 L 488.40039 303.59961 L 488.5 302.59961 L 489.30078 301.80078 L 491.59961 300.80078 L 494.19922 298.80078 L 496.80078 298.19922 L 498 297.59961 L 498.59961 296.5 L 498.59961 294.90039 L 497.80078 293.90039 L 494.90039 291.80078 L 494.90039 290.80078 L 495.69922 289.80078 L 502.30078 287.09961 L 503.40039 286 L 503.90039 284.80078 L 504.40039 279 L 504.90039 277.30078 L 505.69922 275.90039 L 511.90039 269.40039 L 513.30078 268.5 L 517.80078 266.59961 L 519.59961 265.40039 L 520.90039 264 L 524.69922 258.09961 L 526.19922 256.40039 L 530.80078 252.59961 L 531.69922 251.09961 L 531.90039 249.59961 L 531.59961 245.5 L 531.90039 242.59961 L 532.5 239.19922 L 532.59961 237.09961 L 531.80078 234.59961 L 529.5 228.19922 L 528.90039 224.69922 L 530.59961 214.30078 L 530.30078 204.90039 L 529.90039 202.5 L 529.19922 200.59961 L 528.19922 199.19922 L 525.80078 196.80078 L 524.30078 193.80078 L 523.59961 187.90039 L 518.80078 185.59961 L 509.30078 183.80078 L 508.69922 173 L 509.30078 168.30078 L 509.69922 166.69922 L 510.09961 164.30078 L 509.90039 163.40039 L 509.40039 163.09961 L 507.40039 163.30078 L 506.19922 163 L 505 161.40039 L 505.09961 159.80078 L 505.90039 157.69922 L 507.30078 155.30078 L 508.09961 152.59961 L 508 150.80078 L 507.59961 149.30078 L 506.30078 146.5 L 505.5 145.19922 L 503.40039 142.5 L 502.5 140.80078 L 502.30078 139.69922 L 502.80078 138.80078 L 503.5 138.19922 L 504.5 138.09961 L 506.09961 138.30078 L 507.19922 137.59961 L 507.5 136.19922 L 507.40039 135.19922 L 506 132.90039 L 506.19922 132.09961 L 507 131.40039 L 509.69922 129.90039 L 510.90039 128.59961 L 511.59961 126.40039 L 511.5 124.59961 L 510.90039 123 L 509.69922 120.59961 L 506.90039 117.30078 L 498.59961 110.5 L 497.40039 109.09961 L 488.40039 109 z " class="s-iTainFd-NpUU"></path><path id="path22" d="M 305.69922 28 L 303.5 29 L 301.40039 32.199219 L 299.09961 39.599609 L 297.59961 42.300781 L 293.09961 45.900391 L 291.40039 46.199219 L 289.69922 45.599609 L 286.40039 43.5 L 284.59961 42.599609 L 283 42.699219 L 282.09961 44.599609 L 283 47.800781 L 282.09961 49.900391 L 280.19922 51.199219 L 278.09961 51.900391 L 276.30078 53.900391 L 273.69922 58.900391 L 271.90039 60.5 L 267.69922 62 L 266 63.199219 L 264.90039 65.300781 L 264.90039 66.699219 L 265.5 67.699219 L 265.69922 68.900391 L 264.80078 70.599609 L 264.09961 71 L 261.90039 71.300781 L 259.69922 72.300781 L 258.40039 73.300781 L 255.80078 76.699219 L 252.69922 79.400391 L 248.90039 81.099609 L 244.90039 81.699219 L 241.19922 81.099609 L 233.40039 77 L 230.19922 77.699219 L 228.40039 83.900391 L 227.19922 85.099609 L 225.80078 85.699219 L 224.30078 85.800781 L 219.40039 85 L 218.09961 85.199219 L 216.19922 85.900391 L 214.30078 86.900391 L 213.09961 88.199219 L 210.69922 91.699219 L 209.90039 92.5 L 208.19922 93.800781 L 207.40039 94.800781 L 207 96 L 206.59961 98.800781 L 206.30078 100.19922 L 203.69922 103.90039 L 203.40039 105 L 203.09961 107.19922 L 205.80078 111.30078 L 207.09961 114.40039 L 208 115.90039 L 209.19922 117.09961 L 213.5 120.40039 L 215.09961 122.59961 L 216.80078 125.69922 L 219.80078 130.40039 L 220.69922 132.19922 L 221.90039 135.5 L 222.5 136.69922 L 223.5 137.40039 L 225.30078 137.80078 L 227.19922 137.30078 L 229.09961 137.30078 L 230.69922 137.59961 L 231.69922 137.40039 L 234.19922 136 L 235.30078 135.69922 L 236.40039 136 L 237.90039 137 L 239.59961 138.5 L 242.69922 140.30078 L 244 141.40039 L 245 143.19922 L 245.69922 147.09961 L 246.69922 149.90039 L 245.59961 154.19922 L 245 155.5 L 243.80078 157.40039 L 243.30078 158.69922 L 243 161.30078 L 242.69922 162.5 L 242.09961 163.69922 L 239.40039 167.69922 L 237.59961 169.59961 L 237.69922 171.69922 L 239 175 L 243.5 182.09961 L 246.59961 188.19922 L 247 189.5 L 247.80078 190.69922 L 248.90039 192 L 255.5 195.80078 L 259.59961 199.90039 L 261.40039 203 L 262.59961 203.40039 L 275.19922 203.69922 L 277.09961 204 L 278.19922 204.59961 L 279.30078 205.5 L 280.09961 207 L 281.90039 211.59961 L 283 213.59961 L 284.09961 214.90039 L 285.40039 215.40039 L 289.30078 215.80078 L 290.30078 216.19922 L 291.09961 216.80078 L 292.09961 218.40039 L 292.90039 219 L 293.90039 219 L 296.19922 218.59961 L 297.5 218.5 L 301.40039 219.59961 L 303.19922 219.30078 L 305.30078 218.5 L 306.80078 218.19922 L 308 218.40039 L 310.40039 219.30078 L 311.69922 219.19922 L 312.69922 218.59961 L 313 217.30078 L 312.80078 214.80078 L 313.09961 213.69922 L 314.59961 210.90039 L 315.30078 209.80078 L 316.5 209.59961 L 317.40039 210.19922 L 318.09961 211.40039 L 318.80078 213.69922 L 319.40039 214.40039 L 320.30078 214.69922 L 322.5 213.90039 L 323.59961 213.90039 L 324.5 214.19922 L 326.59961 216.59961 L 327.59961 216.5 L 328.59961 215.80078 L 329.5 213.59961 L 329.5 212.19922 L 329 210.80078 L 327 208.5 L 326.59961 207.09961 L 327.09961 206.09961 L 328.59961 205.40039 L 329.69922 205.40039 L 331.5 206.09961 L 332.09961 205.80078 L 332.5 203.80078 L 333 202.90039 L 334.19922 202.19922 L 335.5 202 L 337.80078 202.09961 L 339.19922 201.90039 L 340.80078 201.5 L 341.80078 200.59961 L 342.19922 199.09961 L 342.09961 197.90039 L 341.09961 194.5 L 340.59961 193.40039 L 339.19922 191.59961 L 338.80078 190.59961 L 338.90039 189.59961 L 339.5 188.80078 L 341.69922 188.19922 L 342.30078 187.69922 L 343.19922 185.09961 L 344 183.69922 L 344.40039 181.09961 L 344.69922 180.09961 L 349.59961 178.09961 L 352 176.5 L 353.30078 176.09961 L 354.5 176.19922 L 355.59961 176.69922 L 356.59961 176.69922 L 357.5 176 L 358.19922 174.09961 L 359.19922 172.19922 L 360.80078 170.30078 L 364.5 168.30078 L 368 167.19922 L 374.19922 166.5 L 375.80078 165.90039 L 376.69922 164.5 L 376.59961 161.5 L 377.09961 158.5 L 377.59961 156.69922 L 378.30078 155.30078 L 378.40039 153.09961 L 376.80078 150.59961 L 379.80078 148 L 397.30078 149.40039 L 401.40039 145.40039 L 407.80078 135.90039 L 408.5 134.40039 L 408.90039 132.90039 L 409.30078 129.59961 L 409.80078 128.80078 L 411.30078 128.09961 L 420.19922 126.19922 L 422.40039 124.80078 L 423.40039 123.5 L 425.5 118.69922 L 426.30078 117.30078 L 427.80078 116.09961 L 435.09961 112.80078 L 437 112.30078 L 456.80078 117 L 476.59961 116.30078 L 478.80078 115.59961 L 480.5 114.40039 L 484.80078 110.30078 L 488.40039 109 L 497.40039 109.09961 L 503.69922 106.90039 L 504.59961 105.90039 L 505.40039 104.40039 L 505.19922 102.69922 L 504.30078 101.30078 L 499.80078 96.5 L 497.30078 92.5 L 496 88.199219 L 491.09961 89.099609 L 489.09961 87.699219 L 486.69922 83.900391 L 483.09961 77.5 L 481.80078 75.599609 L 480.30078 74.300781 L 471.69922 70.900391 L 468.19922 68.699219 L 466.30078 66.5 L 465.80078 64.599609 L 465.69922 62.5 L 465 60 L 463.40039 57.900391 L 460.69922 55.800781 L 455.80078 52.900391 L 453.69922 52.300781 L 447.80078 52.400391 L 441.69922 51 L 439.69922 51 L 437.30078 52.400391 L 433.09961 56 L 427.90039 56.099609 L 420.90039 59.699219 L 418.59961 59.599609 L 412.40039 57.199219 L 410.30078 57 L 406.5 53.300781 L 404.40039 52.300781 L 399.19922 50.900391 L 397.40039 49.599609 L 394.09961 49.400391 L 383.5 53.800781 L 381.19922 53.800781 L 380.5 51.400391 L 375 46.300781 L 373.30078 45.400391 L 366 45.800781 L 363.5 45.5 L 359.19922 44 L 352.40039 43.199219 L 350.40039 42.599609 L 346.40039 43.300781 L 345.30078 43.599609 L 344.09961 44.599609 L 343.09961 46.5 L 342.19922 47.5 L 341.80078 47.900391 L 339.59961 48 L 332.80078 44.599609 L 331.30078 44.900391 L 329.69922 44.900391 L 329 44.599609 L 326.59961 41.800781 L 321.59961 37.400391 L 317.19922 32.199219 L 315.40039 30.900391 L 308 28.300781 L 305.69922 28 z " class="s-iTainFd-NpUU"></path><path id="path28" d="M 478 413.30078 L 471.30078 413.90039 L 452.09961 419.5 L 430.5 419.30078 L 415.80078 422.69922 L 414.30078 423.19922 L 403.69922 429.30078 L 401.69922 429.40039 L 400.09961 429.09961 L 396.40039 427.40039 L 392.40039 426.90039 L 374.80078 427.59961 L 373.09961 428.09961 L 371.40039 430.09961 L 370.40039 430.90039 L 369.09961 431.19922 L 367.30078 431.30078 L 365.90039 431.80078 L 362.59961 434.40039 L 360.5 435.69922 L 359.19922 436.19922 L 357 436 L 352.59961 436.69922 L 352.30078 439 L 352.5 440.40039 L 354 444.90039 L 354.30078 446.59961 L 352.80078 451 L 356 452 L 361.09961 452 L 362.30078 452.40039 L 364.30078 453.5 L 365.90039 453.80078 L 367.80078 453.90039 L 374.30078 453.19922 L 376.09961 453.59961 L 377.90039 455 L 378.69922 456.19922 L 379.19922 457.90039 L 377.80078 463.69922 L 377.59961 466.59961 L 378.40039 470.69922 L 379.5 473.40039 L 380 475.5 L 379.80078 477.30078 L 378.09961 482.30078 L 377.69922 484.5 L 378.09961 489.59961 L 378 491.59961 L 375.09961 503.30078 L 373.90039 506.59961 L 373.40039 508.59961 L 373.19922 511.5 L 374.69922 528.59961 L 374.30078 536.5 L 372.80078 545.09961 L 371.80078 544 L 370.40039 543.40039 L 369.09961 543.5 L 368.59961 544.09961 L 368.30078 546.30078 L 368.80078 550.09961 L 368.69922 551.80078 L 368.30078 554 L 368.69922 556.69922 L 368.69922 558.90039 L 368.19922 559.69922 L 367.30078 560.30078 L 362.30078 560.59961 L 352.30078 563.80078 L 342.59961 570.59961 L 341.09961 572.30078 L 335.30078 572 L 332.69922 572.59961 L 331 573.30078 L 329.69922 574.19922 L 323.09961 574.59961 L 321.69922 575.30078 L 321.30078 575.80078 L 323.69922 576.69922 L 323.69922 577.30078 L 321.40039 579.30078 L 320 581.40039 L 318.59961 583 L 317 583.80078 L 314.90039 584.5 L 314.09961 585.30078 L 313.69922 586.09961 L 313.5 587.30078 L 312.69922 590.5 L 312.69922 591.5 L 313.09961 592.5 L 313.90039 593.09961 L 315.09961 593.40039 L 318.40039 593.80078 L 319.80078 594.90039 L 320.09961 595.69922 L 319.90039 596.69922 L 319.30078 596.90039 L 317.19922 596.5 L 315.80078 596.69922 L 310.19922 599.90039 L 309.30078 601.19922 L 308.69922 603.09961 L 308.19922 605.69922 L 307.69922 609.40039 L 307.40039 610.59961 L 305.19922 615.40039 L 304.90039 617.09961 L 305.09961 619 L 305.80078 621.40039 L 306.09961 623.19922 L 306.09961 624.90039 L 305.69922 626.69922 L 304.90039 627.19922 L 303.80078 627 L 300.5 627.90039 L 291.90039 637 L 294.19922 638.09961 L 295.19922 642.59961 L 293.40039 647.09961 L 289.69922 649.19922 L 287.40039 649.5 L 283.19922 650.90039 L 281 651.19922 L 278.90039 652.59961 L 277.80078 655.90039 L 275.19922 666.90039 L 275.30078 670.19922 L 276.59961 673 L 279.19922 675.30078 L 282.5 676.09961 L 304.90039 674.09961 L 308.09961 672.69922 L 311.80078 671.90039 L 315.69922 669.80078 L 325.30078 668.40039 L 342.09961 669.30078 L 353.5 675.59961 L 358.09961 676.40039 L 367 674.40039 L 369.40039 674.80078 L 375.40039 678.40039 L 412.30078 687.69922 L 413.30078 688 L 434.30078 686.90039 L 436.09961 686.40039 L 442 681.90039 L 445.69922 680.69922 L 449.30078 681.19922 L 466.30078 687.59961 L 468.59961 684.5 L 469.80078 683.30078 L 471.19922 682.30078 L 474.19922 680.80078 L 475.09961 680 L 475.30078 678.90039 L 474.69922 676.69922 L 470.19922 669.09961 L 466.40039 661.5 L 463.19922 653.09961 L 463.09961 650.30078 L 463.69922 648.19922 L 465.90039 645.19922 L 467.80078 644.19922 L 469.59961 643.59961 L 471.40039 643.5 L 472.90039 643.09961 L 474 642.5 L 477.09961 639.09961 L 478.30078 638.19922 L 479.69922 637.69922 L 483.30078 637 L 484.59961 636.09961 L 485.30078 634.80078 L 485.09961 632 L 484.59961 629.80078 L 484.40039 627.30078 L 484.5 623.40039 L 485.69922 618.40039 L 486 615.09961 L 485.69922 608.09961 L 484.80078 601.59961 L 485 597.80078 L 486.40039 594.40039 L 490.90039 593.19922 L 496.59961 594.69922 L 498.5 594.59961 L 500.09961 594.19922 L 502 592.90039 L 503.30078 591.30078 L 504.40039 590.5 L 505.40039 590.30078 L 508.69922 590.80078 L 511.30078 590.09961 L 512.80078 589.5 L 515.09961 587.19922 L 517.30078 585.90039 L 522.09961 585 L 524.5 585 L 526.30078 585.19922 L 528 585.69922 L 531.40039 587.40039 L 533.69922 583.19922 L 534 580.5 L 533 576.80078 L 532.90039 574.80078 L 533.5 573.30078 L 535.40039 569.69922 L 535.5 568.40039 L 535.09961 567.30078 L 533.30078 566.19922 L 530.90039 565.80078 L 529.80078 565.40039 L 528.90039 564.80078 L 526 561.90039 L 524.90039 560.40039 L 522.19922 555.09961 L 521.90039 553.30078 L 522.30078 552.09961 L 524.69922 550.59961 L 525.09961 549.90039 L 523 547.90039 L 521.5 546.09961 L 521.30078 544.40039 L 521.59961 542.69922 L 523.19922 539.80078 L 523.69922 538.5 L 523.90039 536.90039 L 524.80078 524.69922 L 524.5 522.40039 L 522.80078 514.30078 L 522.59961 511.40039 L 522.80078 508.90039 L 523.40039 507.59961 L 526.40039 504.09961 L 526.90039 502.80078 L 526.90039 501.40039 L 526.40039 499.5 L 525.19922 496.59961 L 521.90039 492.80078 L 520.40039 490.30078 L 519.30078 484.40039 L 519.40039 481.5 L 519.90039 479.5 L 520.40039 478.59961 L 521.5 475.90039 L 522.59961 474.80078 L 523.30078 474.90039 L 524 475.59961 L 525.19922 477.59961 L 526 478.30078 L 526.90039 478.59961 L 527.90039 478.40039 L 528.80078 477.69922 L 529.80078 476.59961 L 530.59961 475 L 531.59961 472.59961 L 532.40039 469.5 L 532.59961 466 L 533.09961 463.59961 L 533.69922 461.59961 L 534.5 460 L 536.09961 457.30078 L 536.80078 455.69922 L 537.30078 453.19922 L 537.30078 451.40039 L 536.90039 449.90039 L 536.30078 448.5 L 534.69922 445.59961 L 531.19922 441.40039 L 525.30078 428.30078 L 523.80078 426.30078 L 522.09961 425.09961 L 520.40039 424.5 L 518.59961 423.30078 L 514.59961 419.80078 L 512.09961 418.30078 L 500.30078 416.69922 L 493.80078 417.30078 L 490.69922 417.09961 L 489.40039 417.19922 L 488.19922 417.69922 L 486.30078 418.90039 L 485 419.30078 L 484.19922 418.80078 L 482.69922 416.30078 L 481 414.5 L 479.59961 413.69922 L 478 413.30078 z " class="s-iTainFd-NpUU"></path><path id="path36" d="M 266.19922 266.5 L 263.5 266.80078 L 262.30078 267.5 L 261 269.09961 L 259.59961 271.90039 L 258.5 275.80078 L 257.90039 279.40039 L 258.09961 288.80078 L 260 296.90039 L 265.09961 302.19922 L 270.30078 305.5 L 271.19922 305.80078 L 280.90039 304.80078 L 281.90039 305.09961 L 282.90039 306.40039 L 284 308.59961 L 285.69922 313 L 287.5 319.69922 L 288.19922 320.59961 L 289.40039 321.09961 L 294.19922 321.80078 L 295.5 322.40039 L 296.59961 323.19922 L 298 325.09961 L 299.30078 327.5 L 301 332 L 301.09961 333.5 L 300.59961 334.09961 L 299.09961 333.59961 L 298.40039 333.80078 L 297.80078 334.90039 L 298.80078 337.19922 L 309 350.69922 L 311.5 351.90039 L 313.59961 352.19922 L 314.80078 353.19922 L 318.90039 363.90039 L 320.59961 366.69922 L 323.40039 370.09961 L 324.30078 371.80078 L 327 383.5 L 329.30078 389.80078 L 330.19922 393 L 330.59961 395.30078 L 330.30078 398.09961 L 330.5 399.40039 L 331.09961 400.5 L 333.30078 403.19922 L 333.69922 404.59961 L 332.69922 407.90039 L 332.80078 409.19922 L 333.19922 410.69922 L 334.30078 413.30078 L 335.59961 415.19922 L 338.09961 417.19922 L 342.19922 419.19922 L 344 420.5 L 346.30078 423.09961 L 351.5 428.19922 L 352.19922 429.09961 L 352.80078 431.69922 L 352.59961 436.69922 L 357 436 L 359.19922 436.19922 L 360.5 435.69922 L 362.59961 434.40039 L 365.90039 431.80078 L 367.30078 431.30078 L 369.09961 431.19922 L 370.40039 430.90039 L 371.40039 430.09961 L 373.09961 428.09961 L 374.80078 427.59961 L 392.40039 426.90039 L 396.40039 427.40039 L 400.09961 429.09961 L 401.69922 429.40039 L 403.69922 429.30078 L 414.30078 423.19922 L 415.80078 422.69922 L 430.5 419.30078 L 452.09961 419.5 L 471.30078 413.90039 L 478 413.30078 L 479.59961 413.69922 L 481 414.5 L 482.69922 416.30078 L 484.19922 418.80078 L 485 419.30078 L 486.30078 418.90039 L 488.19922 417.69922 L 489.40039 417.19922 L 490.69922 417.09961 L 493.80078 417.30078 L 500.30078 416.69922 L 512.09961 418.30078 L 514.59961 419.80078 L 518.59961 423.30078 L 520.40039 424.5 L 522.09961 425.09961 L 523.80078 426.30078 L 525.30078 428.30078 L 531.19922 441.40039 L 534.69922 445.59961 L 541.09961 443.90039 L 543.09961 441.40039 L 543.59961 439.80078 L 544.5 437.90039 L 545.30078 437 L 547.40039 436 L 549.09961 434.80078 L 550.5 434.30078 L 568.30078 431.09961 L 570.69922 431 L 575.19922 431.90039 L 579.69922 433.59961 L 581.19922 433.90039 L 584.09961 432.90039 L 585.5 432.80078 L 586.80078 433.59961 L 587.5 434.59961 L 588.90039 437 L 589.80078 437.80078 L 591.30078 438.09961 L 593.09961 437.59961 L 595.09961 435.80078 L 596.09961 434 L 596.59961 432.09961 L 597.30078 428.69922 L 598.19922 427.5 L 599.59961 426.90039 L 601.90039 427.19922 L 607.5 430.5 L 612.40039 431.5 L 618.19922 419.09961 L 615.90039 416.69922 L 612.69922 411.59961 L 610.59961 409.80078 L 608.59961 408.69922 L 606.59961 407.80078 L 605.5 406.90039 L 603.90039 403.59961 L 602.19922 401 L 599.09961 397.80078 L 596.5 395.90039 L 586.69922 392.19922 L 584.80078 391.19922 L 583.19922 388.69922 L 582.5 389.69922 L 580.90039 390 L 579.40039 390.59961 L 577.90039 390.69922 L 576.40039 389.69922 L 574.80078 390.80078 L 572.90039 390.80078 L 572.59961 385.69922 L 569.30078 382.30078 L 561.90039 377.30078 L 560.90039 375.19922 L 560.5 372.90039 L 560.40039 363 L 560.59961 359.69922 L 561.30078 357.59961 L 561 355 L 562.30078 349.90039 L 561.90039 347.19922 L 560.59961 346.19922 L 558.40039 345.59961 L 556.30078 345.69922 L 555.40039 346.59961 L 554 344.69922 L 550.59961 342.09961 L 549.69922 340.5 L 549.30078 339.09961 L 550 337 L 547.09961 333.80078 L 542.40039 332.09961 L 540.80078 330.90039 L 539.09961 329.19922 L 536.90039 328.09961 L 535.09961 327.69922 L 533.30078 327.69922 L 527.5 330.40039 L 521.90039 331.30078 L 516.59961 332.5 L 506.90039 332.90039 L 505.40039 333.40039 L 503.90039 334.19922 L 501.59961 336.19922 L 500.5 337.40039 L 499.5 340.30078 L 500.09961 343.5 L 495.09961 340.59961 L 494 339.59961 L 492.30078 338.40039 L 490.90039 337.80078 L 488.59961 337.5 L 487.09961 337.69922 L 483.69922 338.59961 L 480.40039 338.80078 L 479.59961 339.09961 L 478.40039 340.09961 L 477.59961 340.5 L 475.19922 340.5 L 474 340.90039 L 472.59961 340.90039 L 471.19922 340.19922 L 469.30078 337.90039 L 468.19922 334.5 L 467.59961 330.59961 L 467.09961 321.80078 L 466.40039 317.69922 L 466.5 316.30078 L 467 315 L 467.69922 314 L 468 313.09961 L 467.59961 312.59961 L 466.69922 312.5 L 464.59961 313.59961 L 463.09961 314 L 461.09961 313.80078 L 458.30078 312.90039 L 456.90039 312.90039 L 455.59961 313.80078 L 454.09961 315.59961 L 452.80078 316.30078 L 450.69922 316.40039 L 443.30078 315.90039 L 440 316.59961 L 438.30078 317.30078 L 436.19922 317.80078 L 434.19922 317.5 L 428.40039 315.09961 L 424.59961 315.90039 L 416.80078 315.90039 L 415.09961 314.80078 L 413.5 312.59961 L 412.69922 307.80078 L 411.59961 305.5 L 409.40039 303.69922 L 403.59961 301.19922 L 402.59961 300.5 L 399.30078 296.90039 L 398.80078 295.69922 L 399.30078 293.90039 L 400.19922 292.80078 L 401.5 291.59961 L 402.30078 290.40039 L 402.69922 289 L 402.09961 287.19922 L 400.90039 285.80078 L 399.30078 284.69922 L 396 284.5 L 395.19922 285.69922 L 393.5 286.5 L 392.09961 286.5 L 385.5 284.40039 L 383.40039 284.09961 L 379.5 285.09961 L 377.90039 285.30078 L 373.19922 285.09961 L 372.09961 285.40039 L 370.09961 286.40039 L 368.90039 286.59961 L 363.90039 286.69922 L 362.69922 287 L 362.09961 287.69922 L 362.09961 288.69922 L 362.5 290.69922 L 362.30078 291.59961 L 361.59961 292.09961 L 360.09961 292 L 358.40039 291.40039 L 356.19922 289.90039 L 355.40039 288.40039 L 355.30078 287.09961 L 355.80078 285.90039 L 357.5 283.09961 L 357.5 281.90039 L 356.80078 281 L 355.59961 280.59961 L 352.19922 280.90039 L 350.30078 280.80078 L 348 280.40039 L 342.80078 278.19922 L 336.90039 273.90039 L 335.40039 273.09961 L 333.59961 272.59961 L 323 274.69922 L 319.19922 277.59961 L 318.09961 278.59961 L 317.09961 279.19922 L 315.80078 279.40039 L 314 279.19922 L 309.19922 277.59961 L 307.19922 277.69922 L 306.19922 278 L 301.90039 280.69922 L 301.09961 281.5 L 299.90039 283.19922 L 299.09961 283.59961 L 298.40039 283.5 L 297.69922 282.40039 L 297.30078 279.59961 L 296.80078 278.80078 L 294.59961 277 L 293.59961 276 L 292.09961 273 L 290.59961 272 L 288.19922 271.30078 L 273.40039 270.90039 L 270.19922 268.09961 L 268.59961 267.09961 L 266.19922 266.5 z " class="s-iTainFd-NpUU"></path><path id="path42" d="M 680.19922 0 L 677.80078 0.099609375 L 669.59961 4 L 654.5 7.5 L 649.5 7.6992188 L 647.69922 8.1992188 L 644.19922 9.9003906 L 642.40039 10.5 L 640.5 10.300781 L 639.59961 10 L 638.80078 15.199219 L 639 18.800781 L 637.90039 23.800781 L 636.09961 28.699219 L 634.5 32.099609 L 633.19922 33.5 L 630.5 35.900391 L 629.19922 37.599609 L 626.90039 43 L 625.80078 44.599609 L 620.80078 46.900391 L 618.40039 46.900391 L 610.69922 47 L 604 49 L 598.90039 48.5 L 597.19922 48.800781 L 594 50.300781 L 588.40039 51 L 581.5 53.800781 L 529.69922 59.5 L 525.09961 62.599609 L 514.90039 79.599609 L 510.5 83.900391 L 503.90039 86.800781 L 496 88.199219 L 497.30078 92.5 L 499.80078 96.5 L 504.30078 101.30078 L 505.19922 102.69922 L 505.40039 104.40039 L 504.59961 105.90039 L 503.69922 106.90039 L 497.40039 109.09961 L 498.59961 110.5 L 506.90039 117.30078 L 509.69922 120.59961 L 510.90039 123 L 511.5 124.59961 L 511.59961 126.40039 L 510.90039 128.59961 L 509.69922 129.90039 L 507 131.40039 L 506.19922 132.09961 L 506 132.90039 L 507.40039 135.19922 L 507.5 136.19922 L 507.19922 137.59961 L 506.09961 138.30078 L 504.5 138.09961 L 503.5 138.19922 L 502.80078 138.80078 L 502.30078 139.69922 L 502.5 140.80078 L 503.40039 142.5 L 505.5 145.19922 L 506.30078 146.5 L 507.59961 149.30078 L 508 150.80078 L 508.09961 152.59961 L 507.30078 155.30078 L 505.90039 157.69922 L 505.09961 159.80078 L 505 161.40039 L 506.19922 163 L 507.40039 163.30078 L 509.40039 163.09961 L 509.90039 163.40039 L 510.09961 164.30078 L 509.69922 166.69922 L 509.30078 168.30078 L 508.69922 173 L 509.30078 183.80078 L 518.80078 185.59961 L 523.59961 187.90039 L 527.59961 189.5 L 530.5 189.5 L 531.90039 188.90039 L 532.80078 187.90039 L 533.40039 186.59961 L 533.59961 183.90039 L 533.90039 182.5 L 534.90039 180.69922 L 536.69922 179.5 L 538.80078 178.59961 L 541.40039 178 L 543.19922 178.09961 L 545 178.90039 L 556.80078 187 L 558 188.19922 L 559 189.69922 L 560.30078 191.09961 L 562 192.19922 L 563.59961 192.40039 L 565.80078 192.09961 L 567.30078 191.59961 L 572.90039 190.80078 L 573 187.40039 L 574.19922 183.40039 L 575.5 180.69922 L 580.19922 175 L 581.80078 173.5 L 585.90039 170.80078 L 587.69922 169.19922 L 588.5 167.69922 L 588.69922 166.19922 L 588.5 164.90039 L 587.69922 163.80078 L 585.59961 161.80078 L 583.80078 159.19922 L 583.5 158.09961 L 583.90039 157.19922 L 584.69922 156.69922 L 585.90039 156.59961 L 587.19922 157.09961 L 588.59961 158.09961 L 593.40039 162.59961 L 594.69922 163.59961 L 596.09961 163.80078 L 598 163.5 L 605.69922 159.80078 L 607.19922 159.69922 L 608.69922 160.19922 L 610 161.09961 L 611.80078 161.69922 L 613.80078 161.80078 L 619.19922 160.30078 L 631.09961 160.40039 L 634.90039 159.40039 L 644.80078 154.19922 L 647.19922 153.59961 L 649.30078 153.69922 L 651.40039 154.09961 L 653.19922 154.90039 L 654.80078 156.09961 L 658.5 160.40039 L 665.80078 167.59961 L 671.19922 175.5 L 674.30078 183.40039 L 675.09961 185.80078 L 676 187.90039 L 677.40039 188.69922 L 679.19922 188.80078 L 681.19922 188.5 L 683.59961 188.59961 L 686.59961 189.40039 L 690.69922 191.69922 L 696.90039 196.5 L 699.59961 198 L 703.90039 199 L 705.5 198.90039 L 706.40039 198.40039 L 707 197.40039 L 707.90039 194.80078 L 708.80078 193.90039 L 710.30078 193.59961 L 715.30078 194.69922 L 717.19922 194.90039 L 718.5 194.40039 L 719.59961 193.40039 L 723.19922 189.09961 L 724.59961 188.30078 L 726.30078 187.90039 L 728.69922 188.09961 L 730 188.80078 L 730.90039 190 L 731.69922 192.90039 L 732.69922 194.40039 L 734 195.90039 L 736.40039 198 L 737.80078 199.69922 L 738.40039 201 L 738 202.09961 L 737.09961 202.80078 L 734 203.59961 L 732.09961 204.40039 L 730.30078 205.40039 L 728.90039 206.80078 L 728.19922 208.30078 L 728.30078 209.90039 L 729.5 211.80078 L 731.69922 214.80078 L 733.59961 218.09961 L 734.19922 219.40039 L 734.69922 221.5 L 746.90039 222.30078 L 754.80078 220.90039 L 756.80078 220.90039 L 758.80078 221.5 L 760.69922 222.19922 L 763.30078 222.80078 L 765.19922 222.69922 L 769.09961 221.40039 L 770.19922 220.40039 L 771.40039 218 L 772.09961 217 L 773.59961 217 L 775.5 217.80078 L 779.40039 218.5 L 781.5 218.19922 L 782.80078 217.5 L 783.30078 216.5 L 783.5 214.69922 L 782.5 214 L 780.59961 214.30078 L 779.40039 214.19922 L 778.69922 213.69922 L 778.5 213 L 779 210.69922 L 778.90039 208.19922 L 778.09961 205.90039 L 778.30078 204.80078 L 779.09961 203.80078 L 780.30078 203.80078 L 781.69922 204.5 L 788 209.5 L 790.90039 212.5 L 794.90039 217.80078 L 796.09961 218.59961 L 796.80078 218.59961 L 797.09961 217.69922 L 797.09961 214.80078 L 797.59961 213.40039 L 799 212.40039 L 800.30078 212.59961 L 801.19922 213.5 L 801.59961 215 L 801.5 216.69922 L 799.80078 222.30078 L 799.90039 223.40039 L 801 224.30078 L 802.40039 224.40039 L 804.09961 224.19922 L 805.19922 224.5 L 808.59961 226.69922 L 812.5 228 L 814 228 L 814.90039 227.30078 L 815.30078 226.30078 L 816.59961 225.5 L 817.5 225.59961 L 819.40039 227.09961 L 820.69922 227.69922 L 821.90039 227.69922 L 823.59961 226.40039 L 825.40039 225.30078 L 830.80078 224.59961 L 831.59961 224.09961 L 831.80078 221.09961 L 830.59961 219.59961 L 830.69922 217.80078 L 830.59961 216 L 828.90039 214.80078 L 829.80078 212.5 L 829.40039 209.80078 L 827.40039 204.19922 L 825.90039 201.5 L 822.5 197.19922 L 821.59961 194.69922 L 819.5 195.69922 L 817.19922 194.59961 L 814.69922 193 L 812.19922 192.5 L 812.09961 190.30078 L 810.80078 189.09961 L 807.80078 187.09961 L 804.59961 183.5 L 802.19922 182 L 802.80078 180.90039 L 802.80078 179.80078 L 798.19922 177.30078 L 797 175.59961 L 798.19922 175.19922 L 798.30078 174.59961 L 797.59961 172.30078 L 796.30078 168.09961 L 793.59961 164.59961 L 792.5 162.69922 L 792.59961 160.69922 L 790.5 157 L 789.40039 155.80078 L 786.80078 155.09961 L 784 153.19922 L 781.09961 152.59961 L 780.30078 152.09961 L 779 149.80078 L 776.40039 143.69922 L 775 142.5 L 773.5 141.5 L 774.30078 136.69922 L 772.5 135 L 773.19922 131.59961 L 773.80078 130.40039 L 774.59961 129.69922 L 773.90039 128.19922 L 772.5 126.90039 L 771 126 L 769.40039 125.5 L 766.59961 125.40039 L 765.09961 124.40039 L 764.19922 124.30078 L 763 123.30078 L 762.40039 121 L 761.59961 116.80078 L 760.19922 116.5 L 759.5 115.59961 L 759.59961 114.19922 L 758.59961 110.59961 L 758.30078 109.30078 L 755 108.09961 L 752.09961 105 L 745.19922 95.900391 L 742.80078 91.800781 L 741.80078 88.300781 L 744.19922 87.800781 L 744.19922 86.800781 L 743.69922 85.699219 L 743.80078 84 L 743.40039 82.5 L 741 80.5 L 738.90039 76.099609 L 737.5 73.900391 L 736.19922 72.800781 L 739.80078 70.599609 L 739 69.199219 L 736.59961 68.300781 L 735.5 67.400391 L 735.59961 66.5 L 735.40039 61.599609 L 735.5 60.900391 L 733.59961 58.599609 L 731.19922 57.300781 L 730.09961 55.800781 L 731.90039 53.300781 L 731.90039 52.300781 L 731.30078 51.900391 L 729 50.099609 L 730.30078 49 L 731 47.599609 L 730.90039 46.199219 L 729.69922 44.699219 L 728.30078 45.599609 L 727.30078 43.400391 L 725.90039 41.400391 L 723.19922 42.599609 L 722.5 40.400391 L 724.59961 39.400391 L 724.59961 38.199219 L 721.90039 36.599609 L 719.40039 34.300781 L 717.5 31.300781 L 716.69922 27.400391 L 717 26.5 L 718.09961 25.099609 L 718.19922 24.199219 L 716.69922 22.599609 L 715.80078 22.099609 L 714.40039 23.199219 L 712.5 22.599609 L 709.59961 20.800781 L 709.59961 19.800781 L 711.69922 19.699219 L 712.90039 18.5 L 712.90039 17.199219 L 709.19922 15.800781 L 708.40039 14.099609 L 707.90039 12.300781 L 706.59961 11.099609 L 705.59961 12 L 704.40039 13.800781 L 703.40039 14.300781 L 703 11.599609 L 702.30078 10.400391 L 697.90039 5.9003906 L 696.69922 6.5996094 L 694.30078 3.5 L 692.5 2.5996094 L 688.19922 3.5 L 686.09961 3.0996094 L 684.90039 0.59960938 L 683.80078 2.4003906 L 682.69922 2.0996094 L 680.19922 0 z " class="s-iTainFd-NpUU"></path><path id="path48" d="M 647.19922 153.59961 L 644.80078 154.19922 L 634.90039 159.40039 L 631.09961 160.40039 L 619.19922 160.30078 L 613.80078 161.80078 L 611.80078 161.69922 L 610 161.09961 L 608.69922 160.19922 L 607.19922 159.69922 L 605.69922 159.80078 L 598 163.5 L 596.09961 163.80078 L 594.69922 163.59961 L 593.40039 162.59961 L 588.59961 158.09961 L 587.19922 157.09961 L 585.90039 156.59961 L 584.69922 156.69922 L 583.90039 157.19922 L 583.5 158.09961 L 583.80078 159.19922 L 585.59961 161.80078 L 587.69922 163.80078 L 588.5 164.90039 L 588.69922 166.19922 L 588.5 167.69922 L 587.69922 169.19922 L 585.90039 170.80078 L 581.80078 173.5 L 580.19922 175 L 575.5 180.69922 L 574.19922 183.40039 L 573 187.40039 L 572.90039 190.80078 L 567.30078 191.59961 L 565.80078 192.09961 L 563.59961 192.40039 L 562 192.19922 L 560.30078 191.09961 L 559 189.69922 L 558 188.19922 L 556.80078 187 L 545 178.90039 L 543.19922 178.09961 L 541.40039 178 L 538.80078 178.59961 L 536.69922 179.5 L 534.90039 180.69922 L 533.90039 182.5 L 533.59961 183.90039 L 533.40039 186.59961 L 532.80078 187.90039 L 531.90039 188.90039 L 530.5 189.5 L 527.59961 189.5 L 523.59961 187.90039 L 524.30078 193.80078 L 525.80078 196.80078 L 528.19922 199.19922 L 529.19922 200.59961 L 529.90039 202.5 L 530.30078 204.90039 L 530.59961 214.30078 L 528.90039 224.69922 L 529.5 228.19922 L 531.80078 234.59961 L 532.59961 237.09961 L 532.5 239.19922 L 531.90039 242.59961 L 531.59961 245.5 L 531.90039 249.59961 L 531.69922 251.09961 L 530.80078 252.59961 L 526.19922 256.40039 L 524.69922 258.09961 L 520.90039 264 L 519.59961 265.40039 L 517.80078 266.59961 L 513.30078 268.5 L 511.90039 269.40039 L 505.69922 275.90039 L 504.90039 277.30078 L 504.40039 279 L 503.90039 284.80078 L 503.40039 286 L 502.30078 287.09961 L 495.69922 289.80078 L 494.90039 290.80078 L 494.90039 291.80078 L 497.80078 293.90039 L 498.59961 294.90039 L 498.59961 296.5 L 498 297.59961 L 496.80078 298.19922 L 494.19922 298.80078 L 491.59961 300.80078 L 489.30078 301.80078 L 488.5 302.59961 L 488.40039 303.59961 L 489 304.90039 L 497.40039 315.09961 L 499.30078 316.90039 L 501.30078 317.59961 L 506.30078 317.40039 L 508 318.09961 L 513.59961 322.40039 L 521.90039 331.30078 L 527.5 330.40039 L 533.30078 327.69922 L 535.09961 327.69922 L 536.90039 328.09961 L 539.09961 329.19922 L 540.80078 330.90039 L 542.40039 332.09961 L 547.09961 333.80078 L 550 337 L 552.59961 331.80078 L 554.19922 330.30078 L 554.09961 328.90039 L 554.5 328 L 558.30078 323.80078 L 560.5 322.19922 L 562.09961 320.40039 L 565.90039 314.90039 L 567.59961 313.30078 L 571.09961 311 L 572.40039 309.69922 L 573.59961 308.80078 L 575 308.5 L 576.59961 309.40039 L 579.40039 311.90039 L 580.59961 313.09961 L 581.30078 314.40039 L 582.09961 318.80078 L 586 326.40039 L 590.19922 329.80078 L 591.19922 331 L 592.09961 332.5 L 593.90039 334 L 596.90039 335.5 L 606.69922 336.30078 L 634.09961 330.30078 L 638.5 328.80078 L 641.90039 325.80078 L 642.80078 325.69922 L 643.59961 326.09961 L 645.09961 327.90039 L 645.90039 328.69922 L 649.80078 331.09961 L 650.80078 332.40039 L 651.40039 333.69922 L 651.09961 334.69922 L 649.69922 336.30078 L 649.40039 337.40039 L 650 338.80078 L 652 339.80078 L 653.19922 340.69922 L 654.09961 341.80078 L 654.59961 343.09961 L 655.59961 346.40039 L 657 349 L 658.69922 349.90039 L 670.90039 351.69922 L 674.09961 350.19922 L 674.40039 345.80078 L 674.69922 344.40039 L 675.40039 343.09961 L 676.59961 342 L 678.30078 341.5 L 688.5 340.80078 L 691.69922 341.40039 L 696.30078 341.59961 L 698.90039 342.30078 L 700.59961 342.5 L 702.69922 342 L 704.5 342 L 706.09961 342.19922 L 710.19922 343.90039 L 711.19922 343.69922 L 711.59961 343.09961 L 712.40039 340.90039 L 713.30078 339.90039 L 715.09961 339 L 716.69922 338.80078 L 718.09961 339.09961 L 723.59961 341.09961 L 725 340.80078 L 725.90039 340.09961 L 727.09961 337.80078 L 728.09961 336.59961 L 731 334.69922 L 732.09961 333.59961 L 733.90039 331.09961 L 735.09961 329.80078 L 737.69922 328.30078 L 745.5 326.69922 L 748.19922 326.59961 L 750.30078 327 L 754.80078 329.80078 L 756.69922 330 L 757.90039 329.69922 L 758.69922 328.90039 L 760.09961 327 L 761.09961 326.90039 L 764.80078 328 L 768 328.40039 L 769.40039 335.40039 L 773 340.40039 L 774.30078 343 L 775.30078 347.40039 L 776.59961 351.19922 L 777.5 352.90039 L 778.59961 353.69922 L 779.90039 353.09961 L 780.5 351.5 L 780.5 349.19922 L 781.09961 345.09961 L 781.09961 343.69922 L 780.19922 340.90039 L 778.09961 336.80078 L 777.90039 335.59961 L 778.30078 334.59961 L 779.69922 333.69922 L 797.80078 336 L 799.5 336.59961 L 800.30078 337.5 L 800.59961 339.80078 L 801.30078 340.69922 L 802.40039 340.69922 L 803.30078 340.09961 L 805 337 L 805.80078 335.69922 L 806.80078 334.90039 L 808.5 334.09961 L 810 334.09961 L 817.90039 336.69922 L 821.80078 338.80078 L 824.5 339.5 L 826.09961 339.59961 L 829.59961 338.69922 L 830 338.5 L 832.09961 332.5 L 832.69922 328.80078 L 833.90039 325.19922 L 833.59961 323.90039 L 832.30078 322 L 830.40039 318.80078 L 830.09961 317.5 L 832.59961 316.59961 L 832.80078 315.80078 L 832.5 313.19922 L 832.90039 312.09961 L 836.09961 310.69922 L 837.40039 309.40039 L 839 305.69922 L 838.90039 303.80078 L 838.5 300.69922 L 838.69922 299.59961 L 840 299.19922 L 840.5 298.5 L 841.09961 293.90039 L 841.80078 293.09961 L 842.80078 292.69922 L 843.30078 291.90039 L 842.5 289.80078 L 844 289 L 844.59961 287.90039 L 844.69922 286.59961 L 844.69922 281.80078 L 844.59961 280.59961 L 843.30078 280.19922 L 842 277.40039 L 841.80078 276.19922 L 842 270.5 L 842.40039 269.30078 L 843.30078 268.59961 L 842.40039 266.09961 L 843 263.90039 L 844 262 L 844.69922 260.30078 L 844.69922 258.19922 L 844.40039 256 L 843.30078 251.80078 L 837.40039 239.90039 L 837.40039 237 L 833.19922 229.69922 L 831.5 225.40039 L 831.59961 224.09961 L 830.80078 224.59961 L 825.40039 225.30078 L 823.59961 226.40039 L 821.90039 227.69922 L 820.69922 227.69922 L 819.40039 227.09961 L 817.5 225.59961 L 816.59961 225.5 L 815.30078 226.30078 L 814.90039 227.30078 L 814 228 L 812.5 228 L 808.59961 226.69922 L 805.19922 224.5 L 804.09961 224.19922 L 802.40039 224.40039 L 801 224.30078 L 799.90039 223.40039 L 799.80078 222.30078 L 801.5 216.69922 L 801.59961 215 L 801.19922 213.5 L 800.30078 212.59961 L 799 212.40039 L 797.59961 213.40039 L 797.09961 214.80078 L 797.09961 217.69922 L 796.80078 218.59961 L 796.09961 218.59961 L 794.90039 217.80078 L 790.90039 212.5 L 788 209.5 L 781.69922 204.5 L 780.30078 203.80078 L 779.09961 203.80078 L 778.30078 204.80078 L 778.09961 205.90039 L 778.90039 208.19922 L 779 210.69922 L 778.5 213 L 778.69922 213.69922 L 779.40039 214.19922 L 780.59961 214.30078 L 782.5 214 L 783.5 214.69922 L 783.30078 216.5 L 782.80078 217.5 L 781.5 218.19922 L 779.40039 218.5 L 775.5 217.80078 L 773.59961 217 L 772.09961 217 L 771.40039 218 L 770.19922 220.40039 L 769.09961 221.40039 L 765.19922 222.69922 L 763.30078 222.80078 L 760.69922 222.19922 L 758.80078 221.5 L 756.80078 220.90039 L 754.80078 220.90039 L 746.90039 222.30078 L 734.69922 221.5 L 734.19922 219.40039 L 733.59961 218.09961 L 731.69922 214.80078 L 729.5 211.80078 L 728.30078 209.90039 L 728.19922 208.30078 L 728.90039 206.80078 L 730.30078 205.40039 L 732.09961 204.40039 L 734 203.59961 L 737.09961 202.80078 L 738 202.09961 L 738.40039 201 L 737.80078 199.69922 L 736.40039 198 L 734 195.90039 L 732.69922 194.40039 L 731.69922 192.90039 L 730.90039 190 L 730 188.80078 L 728.69922 188.09961 L 726.30078 187.90039 L 724.59961 188.30078 L 723.19922 189.09961 L 719.59961 193.40039 L 718.5 194.40039 L 717.19922 194.90039 L 715.30078 194.69922 L 710.30078 193.59961 L 708.80078 193.90039 L 707.90039 194.80078 L 707 197.40039 L 706.40039 198.40039 L 705.5 198.90039 L 703.90039 199 L 699.59961 198 L 696.90039 196.5 L 690.69922 191.69922 L 686.59961 189.40039 L 683.59961 188.59961 L 681.19922 188.5 L 679.19922 188.80078 L 677.40039 188.69922 L 676 187.90039 L 675.09961 185.80078 L 674.30078 183.40039 L 671.19922 175.5 L 665.80078 167.59961 L 658.5 160.40039 L 654.80078 156.09961 L 653.19922 154.90039 L 651.40039 154.09961 L 649.30078 153.69922 L 647.19922 153.59961 z " class="s-iTainFd-NpUU"></path><path id="path56" d="M 575 308.5 L 573.59961 308.80078 L 572.40039 309.69922 L 571.09961 311 L 567.59961 313.30078 L 565.90039 314.90039 L 562.09961 320.40039 L 560.5 322.19922 L 558.30078 323.80078 L 554.5 328 L 554.09961 328.90039 L 554.19922 330.30078 L 552.59961 331.80078 L 550 337 L 549.30078 339.09961 L 549.69922 340.5 L 550.59961 342.09961 L 554 344.69922 L 555.40039 346.59961 L 556.30078 345.69922 L 558.40039 345.59961 L 560.59961 346.19922 L 561.90039 347.19922 L 562.30078 349.90039 L 561 355 L 561.30078 357.59961 L 560.59961 359.69922 L 560.40039 363 L 560.5 372.90039 L 560.90039 375.19922 L 561.90039 377.30078 L 569.30078 382.30078 L 572.59961 385.69922 L 572.90039 390.80078 L 574.80078 390.80078 L 576.40039 389.69922 L 577.90039 390.69922 L 579.40039 390.59961 L 580.90039 390 L 582.5 389.69922 L 583.19922 388.69922 L 584.80078 391.19922 L 586.69922 392.19922 L 596.5 395.90039 L 599.09961 397.80078 L 602.19922 401 L 603.90039 403.59961 L 605.5 406.90039 L 606.59961 407.80078 L 608.59961 408.69922 L 610.59961 409.80078 L 612.69922 411.59961 L 615.90039 416.69922 L 618.19922 419.09961 L 622.30078 417.80078 L 627.5 417.59961 L 628.80078 417.09961 L 629.42188 416.30078 L 684.90039 416.30078 L 687.19922 419.19922 L 690.80078 421.90039 L 695.30078 424.5 L 696.59961 425 L 698.69922 425.30078 L 700.19922 425.90039 L 702 426 L 702.69922 424.40039 L 702.30078 423.09961 L 703.30078 422 L 704.90039 421.90039 L 707.40039 422.40039 L 710.59961 423.80078 L 712.40039 425.19922 L 713 426.5 L 713 429.59961 L 713.80078 431.5 L 716.5 434.40039 L 718.40039 435.69922 L 719.80078 436.19922 L 721.19922 436.09961 L 722.40039 435.59961 L 725 434.09961 L 726.19922 433.69922 L 727.69922 433.59961 L 728.30078 434.19922 L 728.5 435.19922 L 728.19922 437.90039 L 728.59961 439.30078 L 729.5 439.5 L 730.5 439.09961 L 732.30078 437.19922 L 733.30078 436.40039 L 734.30078 436.09961 L 736 436.40039 L 737.19922 437.09961 L 738.19922 438.09961 L 739.09961 438.40039 L 740.90039 438.30078 L 742.19922 438.59961 L 743 439.30078 L 743.40039 440.30078 L 743.80078 442.69922 L 744.5 443.80078 L 745.59961 444.40039 L 750.59961 445.80078 L 753 446.09961 L 757.80078 445.90039 L 758.80078 442.80078 L 761.40039 438.69922 L 764.09961 435.19922 L 766 433.5 L 768.09961 432.09961 L 774.30078 429.80078 L 780.40039 432.5 L 784.09961 432.30078 L 786 431.90039 L 787.30078 432.19922 L 788.19922 433.09961 L 790.30078 435.69922 L 793.90039 438.80078 L 799.69922 442 L 803.40039 442.69922 L 810.30078 442.40039 L 812.80078 442.80078 L 815.40039 443.69922 L 821.80078 444.5 L 823.30078 442.09961 L 824 441.59961 L 825.09961 441.40039 L 829.69922 439.80078 L 831.80078 439.59961 L 833.69922 440.19922 L 836.69922 441.69922 L 837.80078 441.90039 L 838.80078 441.30078 L 839.69922 438.30078 L 841.30078 436.30078 L 841.09961 436.30078 L 836.90039 431.09961 L 836.09961 429.59961 L 836.09961 424.5 L 833.5 419.69922 L 831.09961 417.80078 L 825.19922 414.69922 L 826.5 413 L 828.30078 411.30078 L 830 410 L 831.40039 409.5 L 834.90039 409.59961 L 836.40039 408.80078 L 835.69922 406.90039 L 835.90039 404.40039 L 835 389.30078 L 834.09961 387.80078 L 832.19922 384.19922 L 830.59961 379.59961 L 830.30078 375.19922 L 830.80078 374.40039 L 832.19922 373.40039 L 832.5 372.69922 L 831.30078 370.19922 L 831 369 L 831.19922 367.80078 L 831.80078 365.5 L 830.80078 363.30078 L 830.30078 360.69922 L 827.69922 353.09961 L 827.40039 350.90039 L 827.59961 349.40039 L 828.90039 344.09961 L 828.80078 343.19922 L 828.19922 342.80078 L 828.40039 341.19922 L 829.30078 340.69922 L 830 338.5 L 829.59961 338.69922 L 826.09961 339.59961 L 824.5 339.5 L 821.80078 338.80078 L 817.90039 336.69922 L 810 334.09961 L 808.5 334.09961 L 806.80078 334.90039 L 805.80078 335.69922 L 805 337 L 803.30078 340.09961 L 802.40039 340.69922 L 801.30078 340.69922 L 800.59961 339.80078 L 800.30078 337.5 L 799.5 336.59961 L 797.80078 336 L 792.76953 335.36133 L 792.76953 335.30273 L 792.31445 335.30273 L 779.69922 333.69922 L 778.30078 334.59961 L 778.01953 335.30273 L 769.38086 335.30273 L 768 328.40039 L 764.80078 328 L 761.09961 326.90039 L 760.09961 327 L 758.69922 328.90039 L 757.90039 329.69922 L 756.69922 330 L 754.80078 329.80078 L 750.30078 327 L 748.19922 326.59961 L 745.5 326.69922 L 737.69922 328.30078 L 735.09961 329.80078 L 733.90039 331.09961 L 732.09961 333.59961 L 731 334.69922 L 728.09961 336.59961 L 727.09961 337.80078 L 725.90039 340.09961 L 725 340.80078 L 723.59961 341.09961 L 718.09961 339.09961 L 716.69922 338.80078 L 715.09961 339 L 713.30078 339.90039 L 712.40039 340.90039 L 711.59961 343.09961 L 711.19922 343.69922 L 710.19922 343.90039 L 706.09961 342.19922 L 704.5 342 L 702.69922 342 L 700.59961 342.5 L 698.90039 342.30078 L 696.30078 341.59961 L 691.69922 341.40039 L 688.5 340.80078 L 678.30078 341.5 L 676.59961 342 L 675.40039 343.09961 L 674.69922 344.40039 L 674.40039 345.80078 L 674.09961 350.19922 L 670.90039 351.69922 L 658.69922 349.90039 L 657 349 L 655.59961 346.40039 L 654.59961 343.09961 L 654.09961 341.80078 L 653.19922 340.69922 L 652 339.80078 L 650 338.80078 L 649.40039 337.40039 L 649.69922 336.30078 L 651.09961 334.69922 L 651.40039 333.69922 L 650.80078 332.40039 L 649.80078 331.09961 L 645.90039 328.69922 L 645.09961 327.90039 L 643.59961 326.09961 L 642.80078 325.69922 L 641.90039 325.80078 L 638.5 328.80078 L 634.09961 330.30078 L 606.69922 336.30078 L 596.90039 335.5 L 593.90039 334 L 592.09961 332.5 L 591.19922 331 L 590.19922 329.80078 L 586 326.40039 L 582.09961 318.80078 L 581.30078 314.40039 L 580.59961 313.09961 L 579.40039 311.90039 L 576.59961 309.40039 L 575 308.5 z " class="s-iTainFd-NpUU"></path><path id="path62" d="M 624.90039 538.30078 L 618.5 540.40039 L 612 540.5 L 611.19922 542.19922 L 610.59961 542.80078 L 608 545.90039 L 606.69922 546.90039 L 606 548.40039 L 605.59961 549.90039 L 605 550.90039 L 602.69922 552.59961 L 602.30078 553.5 L 602.30078 554.40039 L 602.69922 555.30078 L 606.30078 556.5 L 606.69922 557.69922 L 606.19922 559 L 605.19922 560.40039 L 600.19922 566.40039 L 597.80078 568.30078 L 565.30078 570.30078 L 562.30078 571.09961 L 560.19922 572.19922 L 559.09961 573.5 L 556.19922 577.19922 L 553.59961 577 L 547.69922 574.19922 L 545.30078 573.69922 L 543.80078 574 L 543.19922 574.5 L 543.30078 575.40039 L 544.09961 576.90039 L 544.09961 577.80078 L 543.59961 578.59961 L 541.5 581.19922 L 539.90039 584 L 538.80078 585.59961 L 536.69922 587.59961 L 534.90039 588.19922 L 533.69922 588.30078 L 531.40039 587.40039 L 528 585.69922 L 526.30078 585.19922 L 524.5 585 L 522.09961 585 L 517.30078 585.90039 L 515.09961 587.19922 L 512.80078 589.5 L 511.30078 590.09961 L 508.69922 590.80078 L 505.40039 590.30078 L 504.40039 590.5 L 503.30078 591.30078 L 502 592.90039 L 500.09961 594.19922 L 498.5 594.59961 L 496.59961 594.69922 L 490.90039 593.19922 L 486.40039 594.40039 L 485 597.80078 L 484.80078 601.59961 L 485.69922 608.09961 L 486 615.09961 L 485.69922 618.40039 L 484.5 623.40039 L 484.40039 627.30078 L 484.59961 629.80078 L 485.09961 632 L 485.30078 634.80078 L 484.59961 636.09961 L 483.30078 637 L 479.69922 637.69922 L 478.30078 638.19922 L 477.09961 639.09961 L 474 642.5 L 472.90039 643.09961 L 471.40039 643.5 L 469.59961 643.59961 L 467.80078 644.19922 L 465.90039 645.19922 L 463.69922 648.19922 L 463.09961 650.30078 L 463.19922 653.09961 L 466.40039 661.5 L 470.19922 669.09961 L 474.69922 676.69922 L 475.30078 678.90039 L 475.09961 680 L 474.19922 680.80078 L 471.19922 682.30078 L 469.80078 683.30078 L 468.59961 684.5 L 466.30078 687.59961 L 471 689.30078 L 475.90039 690 L 498.19922 688.5 L 510.69922 692.90039 L 524.30078 694 L 528.69922 695 L 532.5 697.30078 L 536.09961 700.09961 L 540 702.40039 L 544.59961 703 L 547 702.40039 L 551.40039 700.40039 L 553.59961 700 L 558.40039 700.30078 L 560.80078 700 L 562.69922 699 L 564.69922 698.5 L 567.09961 697.5 L 569.40039 696.09961 L 571 694.5 L 572.90039 693.19922 L 579.40039 693 L 580.09961 692.90039 L 584.5 691 L 586.90039 687 L 587.09961 686.40039 L 590.59961 682.80078 L 593.80078 681 L 598.80078 674.59961 L 599.59961 672.5 L 600.59961 670.80078 L 613.30078 661.40039 L 614.09961 659.19922 L 615.90039 656.30078 L 619.80078 652 L 623.5 650 L 632 647.80078 L 640.30078 644.09961 L 651.5 642.40039 L 651.30078 640.30078 L 651.59961 638.80078 L 652.40039 637 L 655.40039 632.59961 L 656.09961 630.59961 L 656.40039 628.19922 L 656.09961 624.59961 L 655.19922 621.40039 L 653.80078 618.5 L 651.40039 615.90039 L 642 610.30078 L 637.09961 604.5 L 638.30078 600.59961 L 641 596.30078 L 643.69922 592.69922 L 645.5 590.90039 L 647.5 589.5 L 653.80078 586.5 L 655 585.19922 L 656.19922 582.80078 L 656.09961 582 L 655.5 581.40039 L 653.5 580.69922 L 652 579.80078 L 651 578.69922 L 651.09961 576.80078 L 651.5 575.90039 L 653.40039 574.59961 L 650.90039 572.69922 L 647.59961 571 L 646.69922 569.69922 L 646.40039 568.5 L 646.90039 566 L 648.09961 563.69922 L 649 562.69922 L 653.09961 559.80078 L 653.80078 559 L 654.30078 557.80078 L 654 556.80078 L 653.09961 555.69922 L 646.59961 552.09961 L 645.5 550.69922 L 645.30078 548.30078 L 645 547.09961 L 644.19922 545.59961 L 643.90039 544.40039 L 643.90039 541.90039 L 643.30078 541.19922 L 642.19922 540.80078 L 638 540.19922 L 636 539.59961 L 631.59961 539.30078 L 630.09961 539.5 L 627.30078 538.40039 L 624.90039 538.30078 z " class="s-iTainFd-NpUU"></path><path id="path70" d="m 642.30078,411 -1,1.40039 -1.90039,1 -1.80078,-0.0996 -1.19922,-0.60156 -1.90039,-1.89844 -1.09961,-0.70117 -1.09961,-0.19922 -1,0.40039 -1,1.59961 -0.40039,1.5 -0.40039,2.79883 -0.69922,0.90039 -1.30078,0.5 -5.19922,0.20117 -4.10156,1.29883 -5.79883,12.40039 -4.90039,-1 -5.59961,-3.30078 -2.30078,-0.29883 -1.40039,0.59961 -0.89844,1.19922 -0.70117,3.40039 -0.5,1.90039 -1,1.80078 -2,1.79883 -1.79883,0.5 -1.5,-0.29883 L 588.90039,437 587.5,434.59961 l -0.69922,-1 -1.30078,-0.79883 -1.40039,0.0996 -2.90039,1 -1.5,-0.30078 -4.5,-1.69922 -4.5,-0.90039 -2.39844,0.0996 -17.80078,3.20117 -1.40039,0.5 -1.69922,1.19922 -2.09961,1 -0.80078,0.90039 -0.90039,1.90039 -0.5,1.59961 -2,2.5 -6.40039,1.69922 1.60156,2.90039 0.59961,1.40039 0.40039,1.5 v 1.79883 l -0.5,2.5 -0.70117,1.60156 L 534.5,460 l -0.80078,1.59961 -0.59961,2 -0.5,2.40039 -0.19922,3.5 -0.80078,3.09961 -1,2.40039 -0.79883,1.59961 -1,1.09961 -0.90039,0.70117 -1,0.19922 -0.90039,-0.29883 -0.80078,-0.70117 -1.19922,-2 -0.69922,-0.69922 -0.70117,-0.0996 -1.09961,1.09961 -1.09961,2.69922 -0.5,0.90039 -0.5,2 -0.0996,2.90039 1.09961,5.90039 1.5,2.5 3.29883,3.79883 1.20117,2.90039 0.5,1.90039 v 1.40039 l -0.5,1.29883 -3,3.5 -0.59961,1.30078 -0.20117,2.5 0.20117,2.90039 1.69922,8.09961 0.30078,2.29883 -0.90039,12.20117 -0.20117,1.59961 -0.5,1.30078 -1.59961,2.89844 -0.29883,1.70117 0.19922,1.69922 1.5,1.80078 2.09961,2 -0.40039,0.69922 -2.39844,1.5 -0.40039,1.20117 0.29883,1.79883 2.70117,5.30078 1.09961,1.5 2.90039,2.90039 0.90039,0.59961 1.09961,0.40039 2.40039,0.39844 1.79883,1.10156 0.40039,1.09961 -0.0996,1.29883 -1.90039,3.60156 -0.59961,1.5 0.0996,2 1,3.69922 -0.30078,2.69922 -2.29883,4.20117 2.29883,0.90039 1.20117,-0.10156 1.79883,-0.59961 2.10156,-2 1.09961,-1.59961 1.59961,-2.80078 2.09961,-2.59961 0.5,-0.79883 v -0.90039 l -0.79883,-1.5 -0.10156,-0.90039 0.60156,-0.5 1.5,-0.30078 2.39844,0.5 5.90039,2.80078 2.59961,0.19922 2.90039,-3.69922 1.09961,-1.30078 2.10156,-1.09961 3,-0.79883 32.5,-2 2.39844,-1.90039 5,-6 1,-1.40039 0.5,-1.30078 -0.39844,-1.19922 -3.60156,-1.19922 -0.39844,-0.90039 V 553.5 l 0.39844,-0.90039 2.30078,-1.69922 0.59961,-1 0.40039,-1.5 0.69922,-1.5 1.30078,-1 2.59961,-3.09961 0.59961,-0.60156 L 612,540.5 l 6.5,-0.0996 6.40039,-2.09961 2.40039,0.0996 2.79883,1.09961 1.5,-0.19922 L 636,539.59961 639.80078,536 l 3.59961,-1.69922 1.5,-0.10156 1.19922,0.30078 2.5,1.40039 2.30078,0.19922 1.19922,-0.5 1.80078,-2.09961 1.5,-1.19922 1.40039,-0.30078 5.69922,0.5 1.5,-0.40039 1.40039,-0.79883 1.90039,-1.60156 1.29883,-2.39844 2.70117,-3.40039 2.39844,1.19922 3.5,3.09961 1.90039,0.5 2.5,0.20117 7,-0.5 6.30078,1.09961 2.40039,0.80078 h 1.5 l 3.69922,-0.70117 2.09961,0.0996 2.5,0.90039 3.09961,2 1.40039,0.59961 h 1.5 l 1.5,-0.89844 1.09961,-1.20117 1.30078,-0.79883 1.59961,-0.20117 2.5,0.70117 1.70117,0.89844 1.39844,0.90039 1,1 0.60156,1 0.0996,1.09961 -0.20117,1.90039 0.10156,1.5 0.39844,0.40039 1.5,-0.0996 3,-1.20117 2.40039,-0.59961 1,-0.5 0.5,-0.69922 -0.5,-0.80078 -1.90039,-1.5 -0.69922,-0.69922 0.5,-1.5 2.30078,-1.20117 -0.40039,-1.09961 0.69922,-6.90039 -0.69922,-1.79883 -2.09961,-2.20117 -0.30078,-1.39844 0.40039,-1.40039 1.40039,-1.30078 1.09961,-0.59961 3.79883,-1 0.90039,-1.40039 L 739.90039,509 741,503.5 l 0.5,-3.19922 0.0996,-2.40039 -0.19922,-1.40039 -0.5,-0.90039 -1,-0.40039 -2.5,0.10156 -1.40039,-0.20117 -0.80078,-0.5 -0.39844,-1.09961 0.0996,-4.19922 -0.0996,-1.5 -0.70117,-1.20117 -0.79883,-0.69922 L 731,485 l -0.59961,-1 -0.0996,-1.59961 0.0996,-3 -0.0996,-1.30078 -0.40039,-1.09961 -0.70117,-0.80078 -0.89844,-0.5 -1,-0.0996 -0.90039,0.40039 -0.70117,0.59961 -0.0996,2 -0.29883,1 -1,0.90039 -1.20117,0.30078 -1,-0.30078 -0.69922,-0.59961 -1.59961,-4.09961 0.0996,-2.20117 0.90039,-1.19922 1.5,-1.30078 8.39844,-2.90039 5,0.70117 H 737 l 4.19922,-1.30078 h 1.40039 l 2.70117,1.09961 0.59961,-0.59961 0.40039,-2.19922 -0.5,-3.40039 v -1.59961 l 0.69922,-1.20117 2,-0.89844 h 1.59961 l 1.59961,0.29883 1.30078,-0.29883 1,-1.20117 0.80078,-3.40039 0.69922,-2.09961 1.90039,-3.29883 0.40039,-2.90039 -4.80078,0.19922 -2.40039,-0.29883 -5,-1.40039 -1.09961,-0.59961 -0.69922,-1.10156 -0.40039,-2.39844 -0.40039,-1 -0.80078,-0.70117 -1.29883,-0.29883 -1.80078,0.0996 -0.90039,-0.30078 -1,-1 -1.19922,-0.69922 -1.69922,-0.30078 -1,0.30078 -1,0.79883 -1.80078,1.90039 -1,0.40039 -0.90039,-0.19922 -0.40039,-1.40039 0.30078,-2.70117 -0.19922,-1 -0.60156,-0.59961 -1.5,0.0996 -1.19922,0.40039 -2.59961,1.5 -1.20117,0.5 -1.39844,0.0996 -1.40039,-0.5 L 716.5,434.40039 713.80078,431.5 713,429.59961 V 426.5 l -0.59961,-1.30078 -1.80078,-1.39844 -3.19922,-1.40039 -2.5,-0.5 -1.59961,0.0996 -1,1.09961 0.39844,1.30078 L 702,426 l -1.80078,-0.0996 -1.5,-0.59961 -2.09961,-0.30078 -1.29883,-0.5 -4.5,-2.59961 -3.60156,-2.70117 -2.29883,-2.89844 -6.70117,-5.80078 -2.39844,-1 H 674.5 l -2.40039,0.80078 -1.5,0.0996 -3,-0.40039 -1.79883,-1.5 c -14.7026,-3.31241 -17.72739,1.34556 -23.5,2.5 z" class="s-iTainFd-NpUU"></path><path id="path76" d="M 774.30078 429.80078 L 768.09961 432.09961 L 766 433.5 L 764.09961 435.19922 L 761.40039 438.69922 L 758.80078 442.80078 L 757.80078 445.90039 L 757.40039 448.80078 L 755.5 452.09961 L 754.80078 454.19922 L 754 457.59961 L 753 458.80078 L 751.69922 459.09961 L 750.09961 458.80078 L 748.5 458.80078 L 746.5 459.69922 L 745.80078 460.90039 L 745.80078 462.5 L 746.30078 465.90039 L 745.90039 468.09961 L 745.30078 468.69922 L 742.59961 467.59961 L 741.19922 467.59961 L 737 468.90039 L 735.69922 468.90039 L 730.69922 468.19922 L 722.30078 471.09961 L 720.80078 472.40039 L 719.90039 473.59961 L 719.80078 475.80078 L 721.40039 479.90039 L 722.09961 480.5 L 723.09961 480.80078 L 724.30078 480.5 L 725.30078 479.59961 L 725.59961 478.59961 L 725.69922 476.59961 L 726.40039 476 L 727.30078 475.59961 L 728.30078 475.69922 L 729.19922 476.19922 L 729.90039 477 L 730.30078 478.09961 L 730.40039 479.40039 L 730.30078 482.40039 L 730.40039 484 L 731 485 L 733.30078 485.90039 L 734.09961 486.59961 L 734.80078 487.80078 L 734.90039 489.30078 L 734.80078 493.5 L 735.19922 494.59961 L 736 495.09961 L 737.40039 495.30078 L 739.90039 495.19922 L 740.90039 495.59961 L 741.40039 496.5 L 741.59961 497.90039 L 741.5 500.30078 L 741 503.5 L 739.90039 509 L 739.09961 511.59961 L 738.19922 513 L 734.40039 514 L 733.30078 514.59961 L 731.90039 515.90039 L 731.5 517.30078 L 731.80078 518.69922 L 733.90039 520.90039 L 734.59961 522.69922 L 733.90039 529.59961 L 734.30078 530.69922 L 732 531.90039 L 731.5 533.40039 L 732.19922 534.09961 L 734.09961 535.59961 L 734.59961 536.40039 L 734.09961 537.09961 L 733.09961 537.59961 L 730.69922 538.19922 L 727.69922 539.40039 L 726.19922 539.5 L 725.80078 539.09961 L 725.69922 537.59961 L 725.90039 535.69922 L 725.80078 534.59961 L 725.19922 533.59961 L 724.19922 532.59961 L 722.80078 531.69922 L 721.09961 530.80078 L 718.59961 530.09961 L 717 530.30078 L 715.69922 531.09961 L 714.59961 532.30078 L 713.09961 533.19922 L 711.59961 533.19922 L 710.19922 532.59961 L 707.09961 530.59961 L 704.59961 529.69922 L 702.5 529.59961 L 698.80078 530.30078 L 697.30078 530.30078 L 694.90039 529.5 L 688.59961 528.40039 L 681.59961 528.90039 L 679.09961 528.69922 L 677.19922 528.19922 L 673.69922 525.09961 L 671.30078 523.90039 L 668.59961 527.30078 L 667.30078 529.69922 L 665.40039 531.30078 L 664 532.09961 L 662.5 532.5 L 656.80078 532 L 655.40039 532.30078 L 653.90039 533.5 L 652.09961 535.59961 L 650.90039 536.09961 L 648.59961 535.90039 L 646.09961 534.5 L 644.90039 534.19922 L 643.40039 534.30078 L 639.80078 536 L 636 539.59961 L 638 540.19922 L 642.19922 540.80078 L 643.30078 541.19922 L 643.90039 541.90039 L 643.90039 544.40039 L 644.19922 545.59961 L 645 547.09961 L 645.30078 548.30078 L 645.5 550.69922 L 646.59961 552.09961 L 653.09961 555.69922 L 654 556.80078 L 654.30078 557.80078 L 653.80078 559 L 653.09961 559.80078 L 649 562.69922 L 648.09961 563.69922 L 646.90039 566 L 646.40039 568.5 L 646.69922 569.69922 L 647.59961 571 L 650.90039 572.69922 L 653.40039 574.59961 L 651.5 575.90039 L 651.09961 576.80078 L 651 578.69922 L 652 579.80078 L 653.5 580.69922 L 655.5 581.40039 L 656.09961 582 L 656.19922 582.80078 L 655 585.19922 L 653.80078 586.5 L 647.5 589.5 L 645.5 590.90039 L 643.69922 592.69922 L 641 596.30078 L 638.30078 600.59961 L 637.09961 604.5 L 642 610.30078 L 651.40039 615.90039 L 653.80078 618.5 L 655.19922 621.40039 L 656.09961 624.59961 L 656.40039 628.19922 L 656.09961 630.59961 L 655.40039 632.59961 L 652.40039 637 L 651.59961 638.80078 L 651.30078 640.30078 L 651.5 642.40039 L 672.40039 639.30078 L 675.90039 638.09961 L 678 637.80078 L 679.09961 637.5 L 681.19922 636.19922 L 682.40039 635.90039 L 687.09961 635.90039 L 690.90039 634.80078 L 700.90039 628.80078 L 713.30078 627.5 L 716 625.80078 L 723.69922 630.59961 L 734.80078 632.80078 L 737 634.09961 L 739.80078 633.90039 L 741.5 635.30078 L 741 638.59961 L 743.19922 641.09961 L 749.19922 644 L 750.40039 645.09961 L 752.5 648.69922 L 753.59961 649.59961 L 773.69922 649.40039 L 780 647.40039 L 782.40039 648.30078 L 784.5 652.69922 L 789.30078 659.30078 L 796.19922 657.59961 L 803.5 653.5 L 809.40039 652.80078 L 811.90039 657 L 816.59961 673.90039 L 820.19922 676.69922 L 842 686.69922 L 864.5 690.59961 L 879.69922 689.69922 L 880.19922 688.30078 L 880 686.69922 L 880.40039 683.69922 L 880.80078 682.40039 L 880.30078 681 L 880.69922 679.59961 L 881.30078 678.19922 L 883 670.19922 L 883.40039 668.80078 L 885.90039 663.69922 L 886.30078 661.69922 L 887.80078 657.5 L 888.30078 654.80078 L 889.30078 653.40039 L 889.5 651.30078 L 887.69922 643.69922 L 885.90039 631.80078 L 885.19922 629.09961 L 885.80078 627.59961 L 886.80078 626.5 L 888.80078 626 L 889.19922 624.69922 L 888.80078 622.5 L 887.40039 617.90039 L 885.69922 614.69922 L 885.19922 612.90039 L 885.40039 607.30078 L 885.69922 605.19922 L 886.30078 603.40039 L 887.40039 601.69922 L 888.80078 600.5 L 890.40039 599.80078 L 891.80078 600.80078 L 892.09961 599 L 893.19922 595.69922 L 902.69922 582.80078 L 907.69922 579 L 914.59961 565.59961 L 915.59961 563.09961 L 915.19922 563.09961 L 914.30078 565.09961 L 912.80078 566.69922 L 910.80078 567.19922 L 908.90039 568.09961 L 907.09961 570.09961 L 903.90039 574.40039 L 901.80078 575.80078 L 900.80078 577 L 900.09961 580.5 L 899.5 582.09961 L 898.69922 583.19922 L 897.80078 583 L 897.30078 580.09961 L 898.19922 576.09961 L 899.40039 572.30078 L 900.30078 570.30078 L 899 569.19922 L 897.5 568.30078 L 896 570.30078 L 896 568 L 897.59961 566.59961 L 901.80078 565.30078 L 900.40039 564.69922 L 899.30078 563.90039 L 898.90039 562.69922 L 899.59961 561.19922 L 898.19922 561.19922 L 898.59961 559.30078 L 899.59961 558.30078 L 900.90039 558 L 902.5 558.19922 L 902.19922 559.69922 L 900.30078 563.19922 L 901.80078 561.90039 L 908.80078 558.19922 L 912.09961 554.69922 L 914.09961 553.09961 L 915.09961 551.40039 L 916.19922 551.09961 L 917.69922 552.09961 L 919.69922 551.59961 L 919.90039 551.09961 L 919.19922 550.09961 L 919.19922 549 L 921.59961 550.40039 L 921.30078 552.90039 L 919.59961 555.69922 L 917.69922 558.19922 L 920.19922 557.40039 L 922 555.09961 L 922.90039 552.09961 L 922.40039 549.5 L 920.69922 548.30078 L 913.40039 545.90039 L 914.90039 549 L 912.69922 551.80078 L 910.40039 554.09961 L 907.90039 555.59961 L 902.30078 556.59961 L 901.40039 556 L 901.09961 553.59961 L 901.5 551.5 L 903.5 550.80078 L 903.90039 549 L 902.40039 550.19922 L 901.69922 549.40039 L 901.90039 547.5 L 902.90039 545.40039 L 904 544.40039 L 910.30078 540.5 L 911.40039 540 L 916.09961 539.90039 L 917.5 539.5 L 918.5 538.69922 L 917.09961 537.5 L 916.30078 536 L 916.40039 534.59961 L 917.69922 533.80078 L 917.69922 532.59961 L 916.30078 531.59961 L 917.80078 531.09961 L 919.19922 529.59961 L 914 524.19922 L 911.69922 523.19922 L 910.80078 522.40039 L 910.09961 521.30078 L 909.80078 519.90039 L 910.90039 518.80078 L 911.19922 518 L 910.90039 517 L 909.90039 516.19922 L 909.80078 515.40039 L 910.40039 512.19922 L 911.5 510.5 L 915.40039 506.80078 L 916.5 506.40039 L 918.80078 506.19922 L 920 505.59961 L 920.59961 504.30078 L 921.30078 502.09961 L 922.40039 501.90039 L 925.69922 503 L 928.90039 503 L 930.30078 503.59961 L 934.90039 506.69922 L 935.80078 508.19922 L 934.59961 510.19922 L 929.69922 512 L 928.59961 514.90039 L 928.80078 523.80078 L 929.30078 526.59961 L 930.5 528.80078 L 931.90039 528.30078 L 933.5 527.19922 L 935.09961 527.59961 L 934.90039 524.80078 L 934.30078 522.40039 L 937.5 525.80078 L 938.80078 527.69922 L 939.40039 529.59961 L 938.80078 533 L 936.90039 535.59961 L 934.5 537.19922 L 930.30078 538.30078 L 926.40039 540.30078 L 923.90039 540.80078 L 921.5 541.80078 L 922.19922 544.09961 L 923.59961 546.80078 L 923.5 549 L 924.30078 550.09961 L 927 546.30078 L 930.09961 543.19922 L 940.59961 535.90039 L 944.40039 534.59961 L 957.5 533.80078 L 978.09961 530.5 L 980.19922 529.69922 L 981.40039 529.40039 L 983.5 530.59961 L 984.30078 529.90039 L 985.80078 527.59961 L 986.80078 527 L 987.80078 526.80078 L 988.69922 526.19922 L 989.40039 524.40039 L 988 521.69922 L 990.69922 517.5 L 990 514.30078 L 990.80078 512.90039 L 991 510.69922 L 991.19922 508.30078 L 991.5 506.19922 L 992.80078 502 L 993.40039 499.40039 L 994.30078 486.30078 L 995.59961 482.09961 L 998 479.59961 L 994.59961 479.19922 L 992.69922 477.19922 L 991.59961 474.5 L 990 472.30078 L 990 471.40039 L 992.80078 471.30078 L 993.69922 471.5 L 994.5 469.30078 L 994.40039 468.19922 L 993.69922 467.19922 L 995.09961 462.90039 L 994.59961 457.09961 L 992.80078 451.90039 L 990.5 449.69922 L 989.19922 449 L 984.30078 444.59961 L 969.59961 439.30078 L 961.5 438.40039 L 959.30078 437.5 L 958.19922 437.19922 L 957.19922 437.90039 L 955.80078 439.5 L 953.90039 440.5 L 951.69922 440.5 L 950 440.19922 L 948.30078 440.30078 L 946 441.5 L 944.40039 442.90039 L 943.5 444 L 943.09961 445.09961 L 942.59961 445.5 L 940 445.69922 L 939.09961 446.09961 L 937.59961 447.69922 L 935.80078 448.5 L 931.5 449.69922 L 926.09961 454.19922 L 924.69922 454.90039 L 922.30078 455 L 920.59961 455.90039 L 920 457.19922 L 919.69922 460.09961 L 919.19922 461.09961 L 916.80078 462 L 914.69922 460.80078 L 912.90039 458.90039 L 911.59961 457.90039 L 909.19922 457.5 L 906.40039 455.5 L 904.80078 454.90039 L 902 455.59961 L 901.90039 457.80078 L 902 460 L 899 461.59961 L 898.80078 462.69922 L 899.59961 465.19922 L 900.40039 465.90039 L 903.30078 467.19922 L 902.19922 468.59961 L 900.80078 469.19922 L 897.5 469.30078 L 893.59961 469.80078 L 879.5 466.59961 L 870.80078 462 L 861.40039 459.59961 L 857.69922 457.5 L 855.90039 457 L 853.5 455.40039 L 851.40039 451.69922 L 848.30078 443.59961 L 848.90039 440.59961 L 846.80078 437.69922 L 843.69922 436 L 841.30078 436.30078 L 839.69922 438.30078 L 838.80078 441.30078 L 837.80078 441.90039 L 836.69922 441.69922 L 833.69922 440.19922 L 831.80078 439.59961 L 829.69922 439.80078 L 825.09961 441.40039 L 824 441.59961 L 823.30078 442.09961 L 821.80078 444.5 L 815.40039 443.69922 L 812.80078 442.80078 L 810.30078 442.40039 L 803.40039 442.69922 L 799.69922 442 L 793.90039 438.80078 L 790.30078 435.69922 L 788.19922 433.09961 L 787.30078 432.19922 L 786 431.90039 L 784.09961 432.30078 L 780.40039 432.5 L 774.30078 429.80078 z " class="s-iTainFd-NpUU"></path></svg>
